font.ufo
<glyph name="exclam" format="1">
	<unicode hex="0021"/>
	<advance width="600"/>
	<outline>
		<contour>
			<point x="262" y="244" type="line"/>
			<point x="338" y="244" type="line"/>
			<point x="354" y="556" type="line"/>
			<point x="357" y="670" type="line"/>
			<point x="243" y="670" type="line"/>
			<point x="246" y="556" type="line"/>
		</contour>
		<contour>
			<point x="300" y="-12" type="curve" smooth="yes"/>
			<point x="349" y="-12"/>
			<point x="387" y="24"/>
			<point x="387" y="78" type="curve" smooth="yes"/>
			<point x="387" y="131"/>
			<point x="349" y="166"/>
			<point x="300" y="166" type="curve" smooth="yes"/>
			<point x="251" y="166"/>
			<point x="213" y="131"/>
			<point x="213" y="78" type="curve" smooth="yes"/>
			<point x="213" y="24"/>
			<point x="251" y="-12"/>
		</contour>
	</outline>
</glyph>
<glyph name="dollar" format="2">
	<unicode hex="0024"/>
	<advance width="600"/>
	<outline>
		<contour>
			<point x="74" y="114" type="line"/>
			<point x="130" y="67"/>
			<point x="217" y="34"/>
			<point x="294" y="34" type="curve" smooth="yes"/>
			<point x="433" y="34"/>
			<point x="518" y="104"/>
			<point x="518" y="202" type="curve" smooth="yes"/>
			<point x="518" y="385"/>
			<point x="213" y="370"/>
			<point x="213" y="460" type="curve" smooth="yes"/>
			<point x="213" y="500"/>
			<point x="247" y="524"/>
			<point x="302" y="524" type="curve" smooth="yes"/>
			<point x="363" y="524"/>
			<point x="399" y="505"/>
			<point x="446" y="470" type="curve"/>
			<point x="504" y="537" type="line"/>
			<point x="457" y="584"/>
			<point x="400" y="618"/>
			<point x="310" y="618" type="curve" smooth="yes"/>
			<point x="186" y="618"/>
			<point x="102" y="556"/>
			<point x="102" y="458" type="curve" smooth="yes"/>
			<point x="102" y="279"/>
			<point x="406" y="297"/>
			<point x="406" y="194" type="curve" smooth="yes"/>
			<point x="406" y="154"/>
			<point x="373" y="128"/>
			<point x="309" y="128" type="curve" smooth="yes"/>
			<point x="240" y="128"/>
			<point x="183" y="155"/>
			<point x="126" y="193" type="curve"/>
		</contour>
		<contour>
			<point x="265" y="580" type="line"/>
			<point x="345" y="580" type="line"/>
			<point x="345" y="746" type="line"/>
			<point x="265" y="746" type="line"/>
		</contour>
		<contour>
			<point x="265" y="79" type="line"/>
			<point x="265" y="-110" type="line"/>
			<point x="345" y="-110" type="line"/>
			<point x="345" y="79" type="line"/>
		</contour>
	</outline>
</glyph>
<glyph name="ampersand" format="1">
	<unicode hex="0026"/>
	<advance width="600"/>
	<outline>
		<contour>
			<point x="235" y="-12" type="curve" smooth="yes"/>
			<point x="329" y="-12"/>
			<point x="399" y="32"/>
			<point x="454" y="96" type="curve" smooth="yes"/>
			<point x="512" y="173"/>
			<point x="552" y="263"/>
			<point x="578" y="361" type="curve"/>
			<point x="472" y="361" type="line"/>
			<point x="452" y="274"/>
			<point x="419" y="203"/>
			<point x="374" y="149" type="curve" smooth="yes"/>
			<point x="337" y="106"/>
			<point x="294" y="77"/>
			<point x="249" y="77" type="curve" smooth="yes"/>
			<point x="188" y="77"/>
			<point x="142" y="118"/>
			<point x="142" y="179" type="curve" smooth="yes"/>
			<point x="142" y="316"/>
			<point x="398" y="364"/>
			<point x="398" y="527" type="curve" smooth="yes"/>
			<point x="398" y="610"/>
			<point x="345" y="666"/>
			<point x="256" y="666" type="curve" smooth="yes"/>
			<point x="163" y="666"/>
			<point x="103" y="593"/>
			<point x="103" y="503" type="curve" smooth="yes"/>
			<point x="103" y="375"/>
			<point x="238" y="188"/>
			<point x="386" y="78" type="curve" smooth="yes"/>
			<point x="444" y="32"/>
			<point x="499" y="3"/>
			<point x="553" y="-12" type="curve"/>
			<point x="582" y="82" type="line"/>
			<point x="544" y="93"/>
			<point x="501" y="117"/>
			<point x="455" y="152" type="curve" smooth="yes"/>
			<point x="331" y="239"/>
			<point x="199" y="391"/>
			<point x="199" y="504" type="curve" smooth="yes"/>
			<point x="199" y="554"/>
			<point x="222" y="588"/>
			<point x="257" y="588" type="curve" smooth="yes"/>
			<point x="295" y="588"/>
			<point x="308" y="561"/>
			<point x="308" y="526" type="curve" smooth="yes"/>
			<point x="308" y="392"/>
			<point x="32" y="368"/>
			<point x="32" y="172" type="curve" smooth="yes"/>
			<point x="32" y="69"/>
			<point x="109" y="-12"/>
		</contour>
	</outline>
</glyph>
<glyph name="slash" format="1">
	<unicode hex="002F"/>
	<advance width="600"/>
	<outline>
		<contour>
			<point x="86" y="-160" type="line"/>
			<point x="185" y="-160" type="line"/>
			<point x="514" y="710" type="line"/>
			<point x="415" y="710" type="line"/>
		</contour>
	</outline>
</glyph>
<glyph name="zero" format="1">
	<unicode hex="0030"/>
	<advance width="600"/>
	<outline>
		<contour>
			<point x="300" y="-12" type="curve" smooth="yes"/>
			<point x="445" y="-12"/>
			<point x="536" y="107"/>
			<point x="536" y="321" type="curve" smooth="yes"/>
			<point x="536" y="536"/>
			<point x="445" y="648"/>
			<point x="300" y="648" type="curve" smooth="yes"/>
			<point x="155" y="648"/>
			<point x="64" y="536"/>
			<point x="64" y="321" type="curve" smooth="yes"/>
			<point x="64" y="107"/>
			<point x="155" y="-12"/>
		</contour>
		<contour>
			<point x="300" y="78" type="curve" smooth="yes"/>
			<point x="224" y="78"/>
			<point x="168" y="147"/>
			<point x="168" y="321" type="curve" smooth="yes"/>
			<point x="168" y="495"/>
			<point x="224" y="558"/>
			<point x="300" y="558" type="curve" smooth="yes"/>
			<point x="376" y="558"/>
			<point x="432" y="495"/>
			<point x="432" y="321" type="curve" smooth="yes"/>
			<point x="432" y="147"/>
			<point x="376" y="78"/>
		</contour>
		<contour>
			<point x="300" y="254" type="curve" smooth="yes"/>
			<point x="338" y="254"/>
			<point x="369" y="281"/>
			<point x="369" y="325" type="curve" smooth="yes"/>
			<point x="369" y="369"/>
			<point x="338" y="396"/>
			<point x="300" y="396" type="curve" smooth="yes"/>
			<point x="262" y="396"/>
			<point x="231" y="369"/>
			<point x="231" y="325" type="curve" smooth="yes"/>
			<point x="231" y="281"/>
			<point x="262" y="254"/>
		</contour>
	</outline>
</glyph>
<glyph name="one" format="1">
	<unicode hex="0031"/>
	<advance width="600"/>
	<outline>
		<contour>
			<point x="88" y="0" type="line"/>
			<point x="536" y="0" type="line"/>
			<point x="536" y="94" type="line"/>
			<point x="380" y="94" type="line"/>
			<point x="380" y="636" type="line"/>
			<point x="296" y="636" type="line"/>
			<point x="250" y="611"/>
			<point x="204" y="596"/>
			<point x="124" y="584" type="curve"/>
			<point x="124" y="512" type="line"/>
			<point x="265" y="512" type="line"/>
			<point x="265" y="94" type="line"/>
			<point x="88" y="94" type="line"/>
		</contour>
	</outline>
</glyph>
<glyph name="three" format="1">
	<unicode hex="0033"/>
	<advance width="600"/>
	<outline>
		<contour>
			<point x="283" y="-12" type="curve" smooth="yes"/>
			<point x="413" y="-12"/>
			<point x="525" y="56"/>
			<point x="525" y="172" type="curve" smooth="yes"/>
			<point x="525" y="256"/>
			<point x="457" y="310"/>
			<point x="374" y="330" type="curve"/>
			<point x="374" y="334" type="line"/>
			<point x="452" y="361"/>
			<point x="503" y="409"/>
			<point x="503" y="480" type="curve" smooth="yes"/>
			<point x="503" y="588"/>
			<point x="410" y="648"/>
			<point x="280" y="648" type="curve" smooth="yes"/>
			<point x="198" y="648"/>
			<point x="128" y="616"/>
			<point x="70" y="568" type="curve"/>
			<point x="130" y="497" type="line"/>
			<point x="172" y="533"/>
			<point x="220" y="557"/>
			<point x="275" y="557" type="curve" smooth="yes"/>
			<point x="343" y="557"/>
			<point x="387" y="525"/>
			<point x="387" y="472" type="curve" smooth="yes"/>
			<point x="387" y="413"/>
			<point x="335" y="370"/>
			<point x="198" y="370" type="curve"/>
			<point x="198" y="286" type="line"/>
			<point x="355" y="286"/>
			<point x="409" y="244"/>
			<point x="409" y="178" type="curve" smooth="yes"/>
			<point x="409" y="118"/>
			<point x="351" y="82"/>
			<point x="273" y="82" type="curve" smooth="yes"/>
			<point x="204" y="82"/>
			<point x="146" y="113"/>
			<point x="104" y="152" type="curve"/>
			<point x="50" y="78" type="line"/>
			<point x="97" y="28"/>
			<point x="174" y="-12"/>
		</contour>
	</outline>
</glyph>
<glyph name="six" format="1">
	<unicode hex="0036"/>
	<advance width="600"/>
	<outline>
		<contour>
			<point x="319" y="-12" type="curve" smooth="yes"/>
			<point x="437" y="-12"/>
			<point x="540" y="70"/>
			<point x="540" y="197" type="curve" smooth="yes"/>
			<point x="540" y="330"/>
			<point x="456" y="394"/>
			<point x="342" y="394" type="curve" smooth="yes"/>
			<point x="284" y="394"/>
			<point x="219" y="363"/>
			<point x="170" y="312" type="curve"/>
			<point x="174" y="231" type="line"/>
			<point x="222" y="289"/>
			<point x="274" y="310"/>
			<point x="318" y="310" type="curve" smooth="yes"/>
			<point x="390" y="310"/>
			<point x="433" y="273"/>
			<point x="433" y="197" type="curve" smooth="yes"/>
			<point x="433" y="119"/>
			<point x="381" y="76"/>
			<point x="318" y="76" type="curve" smooth="yes"/>
			<point x="235" y="76"/>
			<point x="175" y="142"/>
			<point x="175" y="299" type="curve" smooth="yes"/>
			<point x="175" y="490"/>
			<point x="255" y="554"/>
			<point x="348" y="554" type="curve" smooth="yes"/>
			<point x="393" y="554"/>
			<point x="438" y="534"/>
			<point x="467" y="506" type="curve"/>
			<point x="529" y="576" type="line"/>
			<point x="486" y="616"/>
			<point x="423" y="648"/>
			<point x="339" y="648" type="curve" smooth="yes"/>
			<point x="199" y="648"/>
			<point x="68" y="546"/>
			<point x="68" y="299" type="curve" smooth="yes"/>
			<point x="68" y="85"/>
			<point x="185" y="-12"/>
		</contour>
	</outline>
</glyph>
<glyph name="eight" format="1">
	<unicode hex="0038"/>
	<advance width="600"/>
	<outline>
		<contour>
			<point x="301" y="-12" type="curve" smooth="yes"/>
			<point x="451" y="-12"/>
			<point x="536" y="63"/>
			<point x="536" y="161" type="curve" smooth="yes"/>
			<point x="536" y="249"/>
			<point x="482" y="293"/>
			<point x="413" y="327" type="curve"/>
			<point x="413" y="331" type="line"/>
			<point x="465" y="365"/>
			<point x="508" y="417"/>
			<point x="508" y="476" type="curve" smooth="yes"/>
			<point x="508" y="579"/>
			<point x="430" y="648"/>
			<point x="304" y="648" type="curve" smooth="yes"/>
			<point x="185" y="648"/>
			<point x="98" y="582"/>
			<point x="98" y="479" type="curve" smooth="yes"/>
			<point x="98" y="412"/>
			<point x="140" y="364"/>
			<point x="193" y="330" type="curve"/>
			<point x="193" y="326" type="line"/>
			<point x="126" y="294"/>
			<point x="64" y="246"/>
			<point x="64" y="163" type="curve" smooth="yes"/>
			<point x="64" y="60"/>
			<point x="155" y="-12"/>
		</contour>
		<contour>
			<point x="348" y="359" type="curve"/>
			<point x="263" y="387"/>
			<point x="200" y="415"/>
			<point x="200" y="479" type="curve" smooth="yes"/>
			<point x="200" y="534"/>
			<point x="243" y="566"/>
			<point x="302" y="566" type="curve" smooth="yes"/>
			<point x="372" y="566"/>
			<point x="411" y="525"/>
			<point x="411" y="469" type="curve" smooth="yes"/>
			<point x="411" y="429"/>
			<point x="390" y="393"/>
		</contour>
		<contour>
			<point x="303" y="70" type="curve" smooth="yes"/>
			<point x="222" y="70"/>
			<point x="166" y="112"/>
			<point x="166" y="175" type="curve" smooth="yes"/>
			<point x="166" y="228"/>
			<point x="202" y="265"/>
			<point x="251" y="294" type="curve"/>
			<point x="352" y="259"/>
			<point x="427" y="238"/>
			<point x="427" y="165" type="curve" smooth="yes"/>
			<point x="427" y="106"/>
			<point x="380" y="70"/>
		</contour>
	</outline>
</glyph>
<glyph name="less" format="2">
	<unicode hex="003C"/>
	<advance width="600"/>
	<outline>
		<contour>
			<point x="498" y="39" type="line"/>
			<point x="498" y="146" type="line"/>
			<point x="215" y="330" type="line"/>
			<point x="215" y="334" type="line"/>
			<point x="498" y="518" type="line"/>
			<point x="498" y="625" type="line"/>
			<point x="118" y="373" type="line"/>
			<point x="118" y="291" type="line"/>
		</contour>
	</outline>
</glyph>
<glyph name="A" format="2">
	<unicode hex="0041"/>
	<advance width="600"/>
	<outline>
		<contour>
			<point x="20" y="0" type="line"/>
			<point x="138" y="0" type="line"/>
			<point x="238" y="348" type="line" smooth="yes"/>
			<point x="258" y="417"/>
			<point x="278" y="491"/>
			<point x="296" y="564" type="curve"/>
			<point x="300" y="564" type="line"/>
			<point x="318" y="491"/>
			<point x="339" y="417"/>
			<point x="358" y="348" type="curve" smooth="yes"/>
			<point x="457" y="0" type="line"/>
			<point x="580" y="0" type="line"/>
			<point x="368" y="654" type="line"/>
			<point x="232" y="654" type="line"/>
		</contour>
		<contour>
			<point x="145" y="177" type="line"/>
			<point x="452" y="177" type="line"/>
			<point x="452" y="268" type="line"/>
			<point x="145" y="268" type="line"/>
		</contour>
	</outline>
	<anchor name="aboveUC" x="300" y="674"/>
	<anchor name="baseLC" x="518" y="0"/>
	<anchor name="belowLC" x="300" y="-20"/>
	<anchor name="ogonekCXT-ATH" x="300" y="0"/>
	<anchor name="ogonekUC" x="499" y="0"/>
</glyph>
<glyph name="B" format="1">
	<unicode hex="0042"/>
	<advance width="600"/>
	<outline>
		<contour>
			<point x="86" y="0" type="line"/>
			<point x="306" y="0" type="line" smooth="yes"/>
			<point x="450" y="0"/>
			<point x="555" y="61"/>
			<point x="555" y="192" type="curve" smooth="yes"/>
			<point x="555" y="281"/>
			<point x="502" y="331"/>
			<point x="408" y="347" type="curve"/>
			<point x="408" y="351" type="line"/>
			<point x="485" y="371"/>
			<point x="521" y="431"/>
			<point x="521" y="493" type="curve" smooth="yes"/>
			<point x="521" y="613"/>
			<point x="424" y="654"/>
			<point x="289" y="654" type="curve" smooth="yes"/>
			<point x="86" y="654" type="line"/>
		</contour>
		<contour>
			<point x="202" y="385" type="line"/>
			<point x="202" y="561" type="line"/>
			<point x="281" y="561" type="line" smooth="yes"/>
			<point x="366" y="561"/>
			<point x="407" y="539"/>
			<point x="407" y="479" type="curve" smooth="yes"/>
			<point x="407" y="418"/>
			<point x="370" y="385"/>
			<point x="279" y="385" type="curve" smooth="yes"/>
		</contour>
		<contour>
			<point x="202" y="93" type="line"/>
			<point x="202" y="297" type="line"/>
			<point x="294" y="297" type="line" smooth="yes"/>
			<point x="392" y="297"/>
			<point x="441" y="269"/>
			<point x="441" y="200" type="curve" smooth="yes"/>
			<point x="441" y="126"/>
			<point x="390" y="93"/>
			<point x="294" y="93" type="curve" smooth="yes"/>
		</contour>
		<contour>
			<point name="aboveUC" x="304" y="674" type="move"/>
		</contour>
		<contour>
			<point name="belowLC" x="308" y="-20" type="move"/>
		</contour>
	</outline>
</glyph>
<glyph name="D" format="1">
	<unicode hex="0044"/>
	<advance width="600"/>
	<outline>
		<contour>
			<point x="78" y="0" type="line"/>
			<point x="256" y="0" type="line" smooth="yes"/>
			<point x="443" y="0"/>
			<point x="558" y="113"/>
			<point x="558" y="330" type="curve" smooth="yes"/>
			<point x="558" y="546"/>
			<point x="443" y="654"/>
			<point x="250" y="654" type="curve" smooth="yes"/>
			<point x="78" y="654" type="line"/>
		</contour>
		<contour>
			<point x="194" y="94" type="line"/>
			<point x="194" y="560" type="line"/>
			<point x="243" y="560" type="line" smooth="yes"/>
			<point x="368" y="560"/>
			<point x="439" y="490"/>
			<point x="439" y="330" type="curve" smooth="yes"/>
			<point x="439" y="169"/>
			<point x="368" y="94"/>
			<point x="243" y="94" type="curve" smooth="yes"/>
		</contour>
		<contour>
			<point name="aboveUC" x="300" y="674" type="move"/>
		</contour>
		<contour>
			<point name="baseLC" x="284" y="0" type="move"/>
		</contour>
		<contour>
			<point name="belowLC" x="296" y="-20" type="move"/>
		</contour>
	</outline>
</glyph>
<glyph name="E" format="1">
	<unicode hex="0045"/>
	<advance width="600"/>
	<outline>
		<contour>
			<point x="103" y="0" type="line"/>
			<point x="532" y="0" type="line"/>
			<point x="532" y="98" type="line"/>
			<point x="219" y="98" type="line"/>
			<point x="219" y="291" type="line"/>
			<point x="476" y="291" type="line"/>
			<point x="476" y="389" type="line"/>
			<point x="219" y="389" type="line"/>
			<point x="219" y="556" type="line"/>
			<point x="522" y="556" type="line"/>
			<point x="522" y="654" type="line"/>
			<point x="103" y="654" type="line"/>
		</contour>
		<contour>
			<point name="aboveUC" x="327" y="674" type="move"/>
		</contour>
		<contour>
			<point name="ogonekCXT-ATH" x="328" y="0" type="move"/>
		</contour>
		<contour>
			<point name="ogonekUC" x="430" y="0" type="move"/>
		</contour>
		<contour>
			<point name="baseLC" x="324" y="0" type="move"/>
		</contour>
		<contour>
			<point name="belowLC" x="328" y="-20" type="move"/>
		</contour>
	</outline>
</glyph>
<glyph name="F" format="1">
	<unicode hex="0046"/>
	<advance width="600"/>
	<outline>
		<contour>
			<point x="119" y="0" type="line"/>
			<point x="235" y="0" type="line"/>
			<point x="235" y="273" type="line"/>
			<point x="492" y="273" type="line"/>
			<point x="492" y="371" type="line"/>
			<point x="235" y="371" type="line"/>
			<point x="235" y="556" type="line"/>
			<point x="537" y="556" type="line"/>
			<point x="537" y="654" type="line"/>
			<point x="119" y="654" type="line"/>
		</contour>
		<contour>
			<point name="aboveUC" x="338" y="674" type="move"/>
		</contour>
		<contour>
			<point name="baseLC" x="174" y="0" type="move"/>
		</contour>
		<contour>
			<point name="belowLC" x="180" y="-20" type="move"/>
		</contour>
	</outline>
</glyph>
<glyph name="G" format="1">
	<unicode hex="0047"/>
	<advance width="600"/>
	<outline>
		<contour>
			<point x="340" y="-12" type="curve" smooth="yes"/>
			<point x="424" y="-12"/>
			<point x="498" y="24"/>
			<point x="540" y="66" type="curve"/>
			<point x="540" y="354" type="line"/>
			<point x="322" y="354" type="line"/>
			<point x="322" y="259" type="line"/>
			<point x="435" y="259" type="line"/>
			<point x="435" y="118" type="line"/>
			<point x="416" y="99"/>
			<point x="382" y="89"/>
			<point x="347" y="89" type="curve" smooth="yes"/>
			<point x="231" y="89"/>
			<point x="168" y="179"/>
			<point x="168" y="328" type="curve" smooth="yes"/>
			<point x="168" y="475"/>
			<point x="241" y="565"/>
			<point x="345" y="565" type="curve" smooth="yes"/>
			<point x="402" y="565"/>
			<point x="436" y="543"/>
			<point x="466" y="512" type="curve"/>
			<point x="530" y="584" type="line"/>
			<point x="491" y="625"/>
			<point x="432" y="666"/>
			<point x="345" y="666" type="curve" smooth="yes"/>
			<point x="175" y="666"/>
			<point x="48" y="540"/>
			<point x="48" y="325" type="curve" smooth="yes"/>
			<point x="48" y="108"/>
			<point x="174" y="-12"/>
		</contour>
		<contour>
			<point name="aboveUC" x="330" y="674" type="move"/>
		</contour>
		<contour>
			<point name="belowLC" x="326" y="-20" type="move"/>
		</contour>
	</outline>
</glyph>
<glyph name="H" format="2">
	<unicode hex="0048"/>
	<advance width="600"/>
	<outline>
		<contour>
			<point x="72" y="0" type="line"/>
			<point x="188" y="0" type="line"/>
			<point x="188" y="290" type="line"/>
			<point x="412" y="290" type="line"/>
			<point x="412" y="0" type="line"/>
			<point x="528" y="0" type="line"/>
			<point x="528" y="654" type="line"/>
			<point x="412" y="654" type="line"/>
			<point x="412" y="391" type="line"/>
			<point x="188" y="391" type="line"/>
			<point x="188" y="654" type="line"/>
			<point x="72" y="654" type="line"/>
		</contour>
	</outline>
	<anchor name="aboveUC" x="300" y="674"/>
	<anchor name="baseLC" x="131" y="0"/>
	<anchor name="belowLC" x="300" y="-20"/>
</glyph>
<glyph name="I" format="2">
	<unicode hex="0049"/>
	<advance width="600"/>
	<outline>
		<contour>
			<point x="84" y="0" type="line"/>
			<point x="516" y="0" type="line"/>
			<point x="516" y="98" type="line"/>
			<point x="358" y="98" type="line"/>
			<point x="358" y="556" type="line"/>
			<point x="516" y="556" type="line"/>
			<point x="516" y="654" type="line"/>
			<point x="84" y="654" type="line"/>
			<point x="84" y="556" type="line"/>
			<point x="242" y="556" type="line"/>
			<point x="242" y="98" type="line"/>
			<point x="84" y="98" type="line"/>
		</contour>
	</outline>
	<anchor name="aboveUC" x="300" y="674"/>
	<anchor name="baseLC" x="300" y="0"/>
	<anchor name="belowLC" x="300" y="-20"/>
	<anchor name="ogonekUC" x="300" y="0"/>
</glyph>
<glyph name="K" format="1">
	<unicode hex="004B"/>
	<advance width="600"/>
	<outline>
		<contour>
			<point x="82" y="0" type="line"/>
			<point x="200" y="0" type="line"/>
			<point x="200" y="193" type="line"/>
			<point x="566" y="654" type="line"/>
			<point x="436" y="654" type="line"/>
			<point x="203" y="357" type="line"/>
			<point x="200" y="357" type="line"/>
			<point x="200" y="654" type="line"/>
			<point x="82" y="654" type="line"/>
		</contour>
		<contour>
			<point x="458" y="0" type="line"/>
			<point x="587" y="0" type="line"/>
			<point x="350" y="425" type="line"/>
			<point x="281" y="334" type="line"/>
		</contour>
		<contour>
			<point name="aboveUC" x="324" y="674" type="move"/>
		</contour>
		<contour>
			<point name="belowLC" x="332" y="-20" type="move"/>
		</contour>
	</outline>
</glyph>
<glyph name="L" format="1">
	<unicode hex="004C"/>
	<advance width="600"/>
	<outline>
		<contour>
			<point x="120" y="0" type="line"/>
			<point x="542" y="0" type="line"/>
			<point x="542" y="98" type="line"/>
			<point x="235" y="98" type="line"/>
			<point x="235" y="654" type="line"/>
			<point x="120" y="654" type="line"/>
		</contour>
		<contour>
			<point name="aboveUC" x="191" y="674" type="move"/>
		</contour>
		<contour>
			<point name="center" x="178" y="342" type="move"/>
		</contour>
		<contour>
			<point name="baseLC" x="342" y="0" type="move"/>
		</contour>
		<contour>
			<point name="belowLC" x="342" y="-20" type="move"/>
		</contour>
	</outline>
</glyph>
<glyph name="O" format="1">
	<unicode hex="004F"/>
	<advance width="600"/>
	<outline>
		<contour>
			<point x="300" y="-12" type="curve" smooth="yes"/>
			<point x="452" y="-12"/>
			<point x="557" y="111"/>
			<point x="557" y="330" type="curve" smooth="yes"/>
			<point x="557" y="545"/>
			<point x="452" y="666"/>
			<point x="300" y="666" type="curve" smooth="yes"/>
			<point x="148" y="666"/>
			<point x="43" y="545"/>
			<point x="43" y="330" type="curve" smooth="yes"/>
			<point x="43" y="111"/>
			<point x="148" y="-12"/>
		</contour>
		<contour>
			<point x="300" y="89" type="curve" smooth="yes"/>
			<point x="216" y="89"/>
			<point x="162" y="176"/>
			<point x="162" y="330" type="curve" smooth="yes"/>
			<point x="162" y="480"/>
			<point x="216" y="565"/>
			<point x="300" y="565" type="curve" smooth="yes"/>
			<point x="384" y="565"/>
			<point x="438" y="480"/>
			<point x="438" y="330" type="curve" smooth="yes"/>
			<point x="438" y="176"/>
			<point x="384" y="89"/>
		</contour>
		<contour>
			<point name="aboveUC" x="300" y="674" type="move"/>
		</contour>
		<contour>
			<point name="hornLC" x="422" y="644" type="move"/>
		</contour>
		<contour>
			<point name="ogonekUC" x="300" y="0" type="move"/>
		</contour>
		<contour>
			<point name="baseLC" x="300" y="0" type="move"/>
		</contour>
		<contour>
			<point name="belowLC" x="300" y="-20" type="move"/>
		</contour>
	</outline>
</glyph>
<glyph name="P" format="1">
	<unicode hex="0050"/>
	<advance width="600"/>
	<outline>
		<contour>
			<point x="88" y="0" type="line"/>
			<point x="204" y="0" type="line"/>
			<point x="204" y="240" type="line"/>
			<point x="303" y="240" type="line" smooth="yes"/>
			<point x="444" y="240"/>
			<point x="552" y="307"/>
			<point x="552" y="452" type="curve" smooth="yes"/>
			<point x="552" y="604"/>
			<point x="446" y="654"/>
			<point x="303" y="654" type="curve" smooth="yes"/>
			<point x="88" y="654" type="line"/>
		</contour>
		<contour>
			<point x="204" y="333" type="line"/>
			<point x="204" y="561" type="line"/>
			<point x="294" y="561" type="line" smooth="yes"/>
			<point x="389" y="561"/>
			<point x="438" y="534"/>
			<point x="438" y="452" type="curve" smooth="yes"/>
			<point x="438" y="372"/>
			<point x="391" y="333"/>
			<point x="294" y="333" type="curve" smooth="yes"/>
		</contour>
		<contour>
			<point name="aboveUC" x="320" y="674" type="move"/>
		</contour>
		<contour>
			<point name="belowLC" x="140" y="-20" type="move"/>
		</contour>
	</outline>
</glyph>
<glyph name="Q" format="2">
	<unicode hex="0051"/>
	<advance width="600"/>
	<outline>
		<contour>
			<point x="300" y="-12" type="curve" smooth="yes"/>
			<point x="452" y="-12"/>
			<point x="557" y="111"/>
			<point x="557" y="330" type="curve" smooth="yes"/>
			<point x="557" y="545"/>
			<point x="452" y="666"/>
			<point x="300" y="666" type="curve" smooth="yes"/>
			<point x="148" y="666"/>
			<point x="43" y="545"/>
			<point x="43" y="330" type="curve" smooth="yes"/>
			<point x="43" y="111"/>
			<point x="148" y="-12"/>
		</contour>
		<contour>
			<point x="300" y="83" type="curve" smooth="yes"/>
			<point x="216" y="83"/>
			<point x="162" y="168"/>
			<point x="162" y="330" type="curve" smooth="yes"/>
			<point x="162" y="480"/>
			<point x="216" y="565"/>
			<point x="300" y="565" type="curve" smooth="yes"/>
			<point x="384" y="565"/>
			<point x="438" y="480"/>
			<point x="438" y="330" type="curve" smooth="yes"/>
			<point x="438" y="168"/>
			<point x="384" y="83"/>
		</contour>
		<contour>
			<point x="484" y="-170" type="curve" smooth="yes"/>
			<point x="519" y="-170"/>
			<point x="548" y="-163"/>
			<point x="569" y="-153" type="curve"/>
			<point x="548" y="-64" type="line"/>
			<point x="536" y="-70"/>
			<point x="518" y="-76"/>
			<point x="498" y="-76" type="curve" smooth="yes"/>
			<point x="435" y="-76"/>
			<point x="380" y="-50"/>
			<point x="361" y="13" type="curve"/>
			<point x="242" y="2" type="line"/>
			<point x="278" y="-98"/>
			<point x="359" y="-170"/>
		</contour>
	</outline>
	<anchor name="aboveUC" x="304" y="680"/>
</glyph>
<glyph name="T" format="2">
	<unicode hex="0054"/>
	<advance width="600"/>
	<outline>
		<contour>
			<point x="242" y="0" type="line"/>
			<point x="358" y="0" type="line"/>
			<point x="358" y="556" type="line"/>
			<point x="564" y="556" type="line"/>
			<point x="564" y="654" type="line"/>
			<point x="36" y="654" type="line"/>
			<point x="36" y="556" type="line"/>
			<point x="242" y="556" type="line"/>
		</contour>
	</outline>
	<anchor name="aboveUC" x="300" y="674"/>
	<anchor name="baseLC" x="300" y="0"/>
	<anchor name="belowLC" x="300" y="-20"/>
</glyph>
<glyph name="Y" format="2">
	<unicode hex="0059"/>
	<advance width="600"/>
	<outline>
		<contour>
			<point x="242" y="0" type="line"/>
			<point x="358" y="0" type="line"/>
			<point x="358" y="227" type="line"/>
			<point x="573" y="654" type="line"/>
			<point x="453" y="654" type="line"/>
			<point x="372" y="479" type="line" smooth="yes"/>
			<point x="350" y="428"/>
			<point x="327" y="380"/>
			<point x="303" y="327" type="curve"/>
			<point x="299" y="327" type="line"/>
			<point x="276" y="380"/>
			<point x="255" y="428"/>
			<point x="232" y="478" type="curve" smooth="yes"/>
			<point x="150" y="654" type="line"/>
			<point x="27" y="654" type="line"/>
			<point x="242" y="227" type="line"/>
		</contour>
	</outline>
	<anchor name="aboveUC" x="300" y="674"/>
	<anchor name="belowLC" x="300" y="-20"/>
	<anchor name="ogonekUC" x="300" y="0"/>
</glyph>
<glyph name="Z" format="2">
	<unicode hex="005A"/>
	<advance width="600"/>
	<outline>
		<contour>
			<point x="61" y="0" type="line"/>
			<point x="543" y="0" type="line"/>
			<point x="543" y="98" type="line"/>
			<point x="203" y="98" type="line"/>
			<point x="539" y="584" type="line"/>
			<point x="539" y="654" type="line"/>
			<point x="91" y="654" type="line"/>
			<point x="91" y="557" type="line"/>
			<point x="396" y="557" type="line"/>
			<point x="61" y="70" type="line"/>
		</contour>
	</outline>
	<anchor name="aboveUC" x="318" y="674"/>
	<anchor name="baseLC" x="320" y="0"/>
	<anchor name="belowLC" x="314" y="-20"/>
</glyph>
<glyph name="bracketright" format="1">
	<unicode hex="005D"/>
	<advance width="600"/>
	<outline>
		<contour>
			<point x="101" y="-152" type="line"/>
			<point x="388" y="-152" type="line"/>
			<point x="388" y="708" type="line"/>
			<point x="101" y="708" type="line"/>
			<point x="101" y="645" type="line"/>
			<point x="298" y="645" type="line"/>
			<point x="298" y="-89" type="line"/>
			<point x="101" y="-89" type="line"/>
		</contour>
	</outline>
</glyph>
<glyph name="c" format="1">
	<unicode hex="0063"/>
	<advance width="600"/>
	<outline>
		<contour>
			<point x="344" y="-12" type="curve" smooth="yes"/>
			<point x="414" y="-12"/>
			<point x="486" y="13"/>
			<point x="543" y="62" type="curve"/>
			<point x="495" y="136" type="line"/>
			<point x="457" y="107"/>
			<point x="411" y="82"/>
			<point x="355" y="82" type="curve" smooth="yes"/>
			<point x="258" y="82"/>
			<point x="192" y="147"/>
			<point x="192" y="245" type="curve" smooth="yes"/>
			<point x="192" y="344"/>
			<point x="260" y="409"/>
			<point x="358" y="409" type="curve" smooth="yes"/>
			<point x="402" y="409"/>
			<point x="441" y="393"/>
			<point x="479" y="362" type="curve"/>
			<point x="534" y="434" type="line"/>
			<point x="493" y="473"/>
			<point x="431" y="503"/>
			<point x="352" y="503" type="curve" smooth="yes"/>
			<point x="202" y="503"/>
			<point x="73" y="409"/>
			<point x="73" y="245" type="curve" smooth="yes"/>
			<point x="73" y="82"/>
			<point x="190" y="-12"/>
		</contour>
		<contour>
			<point name="aboveLC" x="344" y="512" type="move"/>
		</contour>
		<contour>
			<point name="baseLC" x="344" y="0" type="move"/>
		</contour>
		<contour>
			<point name="belowLC" x="340" y="-20" type="move"/>
		</contour>
	</outline>
</glyph>
<glyph name="e" format="1">
	<unicode hex="0065"/>
	<advance width="600"/>
	<outline>
		<contour>
			<point x="330" y="-12" type="curve" smooth="yes"/>
			<point x="402" y="-12"/>
			<point x="470" y="12"/>
			<point x="522" y="46" type="curve"/>
			<point x="483" y="118" type="line"/>
			<point x="439" y="93"/>
			<point x="397" y="77"/>
			<point x="345" y="77" type="curve" smooth="yes"/>
			<point x="243" y="77"/>
			<point x="174" y="132"/>
			<point x="174" y="246" type="curve" smooth="yes"/>
			<point x="174" y="356"/>
			<point x="237" y="414"/>
			<point x="318" y="414" type="curve" smooth="yes"/>
			<point x="395" y="414"/>
			<point x="441" y="365"/>
			<point x="441" y="268" type="curve"/>
			<point x="463" y="294" type="line"/>
			<point x="144" y="294" type="line"/>
			<point x="144" y="212" type="line"/>
			<point x="537" y="212" type="line"/>
			<point x="539" y="225"/>
			<point x="542" y="247"/>
			<point x="542" y="270" type="curve" smooth="yes"/>
			<point x="542" y="406"/>
			<point x="461" y="503"/>
			<point x="315" y="503" type="curve" smooth="yes"/>
			<point x="183" y="503"/>
			<point x="61" y="406"/>
			<point x="61" y="246" type="curve" smooth="yes"/>
			<point x="61" y="83"/>
			<point x="180" y="-12"/>
		</contour>
		<contour>
			<point name="ogonekLC" x="403" y="0" type="move"/>
		</contour>
		<contour>
			<point name="aboveLC" x="314" y="512" type="move"/>
		</contour>
		<contour>
			<point name="baseLC" x="314" y="0" type="move"/>
		</contour>
		<contour>
			<point name="belowLC" x="314" y="-20" type="move"/>
		</contour>
	</outline>
</glyph>
<glyph name="k" format="1">
	<unicode hex="006B"/>
	<advance width="600"/>
	<outline>
		<contour>
			<point x="90" y="0" type="line"/>
			<point x="206" y="0" type="line"/>
			<point x="206" y="128" type="line"/>
			<point x="559" y="491" type="line"/>
			<point x="431" y="491" type="line"/>
			<point x="210" y="264" type="line"/>
			<point x="206" y="264" type="line"/>
			<point x="206" y="706" type="line"/>
			<point x="90" y="706" type="line"/>
		</contour>
		<contour>
			<point x="454" y="0" type="line"/>
			<point x="580" y="0" type="line"/>
			<point x="354" y="314" type="line"/>
			<point x="287" y="242" type="line"/>
		</contour>
		<contour>
			<point name="aboveUC" x="171" y="734" type="move"/>
		</contour>
		<contour>
			<point name="belowLC" x="330" y="-20" type="move"/>
		</contour>
	</outline>
</glyph>
<glyph name="l" format="2">
	<unicode hex="006C"/>
	<advance width="600"/>
	<outline>
		<contour>
			<point x="401" y="-12" type="curve" smooth="yes"/>
			<point x="458" y="-12"/>
			<point x="492" y="-2"/>
			<point x="540" y="16" type="curve"/>
			<point x="513" y="101" type="line"/>
			<point x="482" y="88"/>
			<point x="455" y="82"/>
			<point x="429" y="82" type="curve" smooth="yes"/>
			<point x="380" y="82"/>
			<point x="341" y="107"/>
			<point x="341" y="173" type="curve" smooth="yes"/>
			<point x="341" y="706" type="line"/>
			<point x="62" y="706" type="line"/>
			<point x="62" y="615" type="line"/>
			<point x="226" y="615" type="line"/>
			<point x="226" y="179" type="line" smooth="yes"/>
			<point x="226" y="58"/>
			<point x="287" y="-12"/>
		</contour>
	</outline>
	<anchor name="aboveUC" x="280" y="734"/>
	<anchor name="baseLC" x="340" y="0"/>
	<anchor name="belowLC" x="376" y="-20"/>
	<anchor name="center" x="283" y="376"/>
</glyph>
<glyph name="t" format="2">
	<unicode hex="0074"/>
	<advance width="600"/>
	<outline>
		<contour>
			<point x="391" y="-12" type="curve" smooth="yes"/>
			<point x="455" y="-12"/>
			<point x="504" y="1"/>
			<point x="548" y="16" type="curve"/>
			<point x="526" y="100" type="line"/>
			<point x="494" y="88"/>
			<point x="460" y="80"/>
			<point x="419" y="80" type="curve" smooth="yes"/>
			<point x="335" y="80"/>
			<point x="305" y="117"/>
			<point x="305" y="198" type="curve" smooth="yes"/>
			<point x="305" y="400" type="line"/>
			<point x="529" y="400" type="line"/>
			<point x="529" y="491" type="line"/>
			<point x="305" y="491" type="line"/>
			<point x="305" y="645" type="line"/>
			<point x="210" y="645" type="line"/>
			<point x="195" y="491" type="line"/>
			<point x="59" y="486" type="line"/>
			<point x="59" y="400" type="line"/>
			<point x="190" y="400" type="line"/>
			<point x="190" y="198" type="line" smooth="yes"/>
			<point x="190" y="72"/>
			<point x="241" y="-12"/>
		</contour>
	</outline>
	<anchor name="aboveLC" x="260" y="650"/>
	<anchor name="baseLC" x="382" y="0"/>
	<anchor name="belowLC" x="374" y="-20"/>
</glyph>
<glyph name="z" format="1">
	<unicode hex="007A"/>
	<advance width="600"/>
	<outline>
		<contour>
			<point x="71" y="0" type="line"/>
			<point x="536" y="0" type="line"/>
			<point x="536" y="92" type="line"/>
			<point x="232" y="92" type="line"/>
			<point x="528" y="430" type="line"/>
			<point x="528" y="491" type="line"/>
			<point x="104" y="491" type="line"/>
			<point x="104" y="400" type="line"/>
			<point x="366" y="400" type="line"/>
			<point x="71" y="62" type="line"/>
		</contour>
		<contour>
			<point name="aboveLC" x="325" y="512" type="move"/>
		</contour>
		<contour>
			<point name="baseLC" x="320" y="0" type="move"/>
		</contour>
		<contour>
			<point name="belowLC" x="312" y="-20" type="move"/>
		</contour>
	</outline>
</glyph>
<glyph name="bar" format="1">
	<unicode hex="007C"/>
	<advance width="600"/>
	<outline>
		<contour>
			<point x="249" y="-250" type="line"/>
			<point x="351" y="-250" type="line"/>
			<point x="351" y="750" type="line"/>
			<point x="249" y="750" type="line"/>
		</contour>
	</outline>
</glyph>
<glyph name="asciitilde" format="2">
	<unicode hex="007E"/>
	<advance width="600"/>
	<outline>
		<contour>
			<point x="386" y="248" type="curve" smooth="yes"/>
			<point x="443" y="248"/>
			<point x="498" y="284"/>
			<point x="536" y="383" type="curve"/>
			<point x="466" y="416" type="line"/>
			<point x="444" y="353"/>
			<point x="418" y="332"/>
			<point x="388" y="332" type="curve" smooth="yes"/>
			<point x="333" y="332"/>
			<point x="294" y="412"/>
			<point x="214" y="412" type="curve" smooth="yes"/>
			<point x="157" y="412"/>
			<point x="102" y="376"/>
			<point x="64" y="276" type="curve"/>
			<point x="134" y="244" type="line"/>
			<point x="156" y="306"/>
			<point x="182" y="328"/>
			<point x="212" y="328" type="curve" smooth="yes"/>
			<point x="267" y="328"/>
			<point x="306" y="248"/>
		</contour>
	</outline>
</glyph>
<glyph name="exclamdown" format="1">
	<unicode hex="00A1"/>
	<advance width="600"/>
	<outline>
		<contour>
			<point x="243" y="-179" type="line"/>
			<point x="357" y="-179" type="line"/>
			<point x="354" y="-65" type="line"/>
			<point x="338" y="247" type="line"/>
			<point x="262" y="247" type="line"/>
			<point x="246" y="-65" type="line"/>
		</contour>
		<contour>
			<point x="300" y="325" type="curve" smooth="yes"/>
			<point x="349" y="325"/>
			<point x="387" y="360"/>
			<point x="387" y="413" type="curve" smooth="yes"/>
			<point x="387" y="467"/>
			<point x="349" y="503"/>
			<point x="300" y="503" type="curve" smooth="yes"/>
			<point x="251" y="503"/>
			<point x="213" y="467"/>
			<point x="213" y="413" type="curve" smooth="yes"/>
			<point x="213" y="360"/>
			<point x="251" y="325"/>
		</contour>
	</outline>
</glyph>
<glyph name="cent" format="1">
	<unicode hex="00A2"/>
	<advance width="600"/>
	<outline>
		<contour>
			<point x="353" y="60" type="curve" smooth="yes"/>
			<point x="409" y="60"/>
			<point x="469" y="82"/>
			<point x="515" y="123" type="curve"/>
			<point x="467" y="196" type="line"/>
			<point x="440" y="174"/>
			<point x="406" y="154"/>
			<point x="365" y="154" type="curve" smooth="yes"/>
			<point x="272" y="154"/>
			<point x="217" y="215"/>
			<point x="217" y="308" type="curve" smooth="yes"/>
			<point x="217" y="402"/>
			<point x="273" y="463"/>
			<point x="369" y="463" type="curve" smooth="yes"/>
			<point x="400" y="463"/>
			<point x="426" y="450"/>
			<point x="452" y="428" type="curve"/>
			<point x="506" y="499" type="line"/>
			<point x="473" y="532"/>
			<point x="425" y="557"/>
			<point x="363" y="557" type="curve" smooth="yes"/>
			<point x="220" y="557"/>
			<point x="104" y="467"/>
			<point x="104" y="308" type="curve" smooth="yes"/>
			<point x="104" y="150"/>
			<point x="206" y="60"/>
		</contour>
		<contour>
			<point x="312" y="-37" type="line"/>
			<point x="379" y="-37" type="line"/>
			<point x="379" y="654" type="line"/>
			<point x="312" y="654" type="line"/>
		</contour>
	</outline>
</glyph>
<glyph name="yen" format="1">
	<unicode hex="00A5"/>
	<advance width="600"/>
	<outline>
		<contour>
			<point x="242" y="0" type="line"/>
			<point x="357" y="0" type="line"/>
			<point x="357" y="152" type="line"/>
			<point x="533" y="152" type="line"/>
			<point x="533" y="212" type="line"/>
			<point x="357" y="212" type="line"/>
			<point x="357" y="271" type="line"/>
			<point x="533" y="271" type="line"/>
			<point x="533" y="330" type="line"/>
			<point x="384" y="330" type="line"/>
			<point x="558" y="636" type="line"/>
			<point x="443" y="636" type="line"/>
			<point x="367" y="485" type="line" smooth="yes"/>
			<point x="345" y="441"/>
			<point x="325" y="397"/>
			<point x="303" y="352" type="curve"/>
			<point x="299" y="352" type="line"/>
			<point x="277" y="397"/>
			<point x="258" y="441"/>
			<point x="236" y="485" type="curve" smooth="yes"/>
			<point x="160" y="636" type="line"/>
			<point x="42" y="636" type="line"/>
			<point x="215" y="330" type="line"/>
			<point x="67" y="330" type="line"/>
			<point x="67" y="271" type="line"/>
			<point x="242" y="271" type="line"/>
			<point x="242" y="212" type="line"/>
			<point x="67" y="212" type="line"/>
			<point x="67" y="152" type="line"/>
			<point x="242" y="152" type="line"/>
		</contour>
	</outline>
</glyph>
<glyph name="registered" format="1">
	<unicode hex="00AE"/>
	<advance width="600"/>
	<outline>
		<contour>
			<point x="299" y="315" type="curve" smooth="yes"/>
			<point x="406" y="315"/>
			<point x="493" y="397"/>
			<point x="493" y="514" type="curve" smooth="yes"/>
			<point x="493" y="632"/>
			<point x="406" y="714"/>
			<point x="299" y="714" type="curve" smooth="yes"/>
			<point x="193" y="714"/>
			<point x="106" y="632"/>
			<point x="106" y="514" type="curve" smooth="yes"/>
			<point x="106" y="397"/>
			<point x="193" y="315"/>
		</contour>
		<contour>
			<point x="299" y="358" type="curve" smooth="yes"/>
			<point x="215" y="358"/>
			<point x="153" y="421"/>
			<point x="153" y="514" type="curve" smooth="yes"/>
			<point x="153" y="608"/>
			<point x="215" y="672"/>
			<point x="299" y="672" type="curve" smooth="yes"/>
			<point x="383" y="672"/>
			<point x="445" y="608"/>
			<point x="445" y="514" type="curve" smooth="yes"/>
			<point x="445" y="421"/>
			<point x="383" y="358"/>
		</contour>
		<contour>
			<point x="223" y="417" type="line"/>
			<point x="272" y="417" type="line"/>
			<point x="272" y="482" type="line"/>
			<point x="307" y="482" type="line"/>
			<point x="339" y="417" type="line"/>
			<point x="393" y="417" type="line"/>
			<point x="349" y="496" type="line"/>
			<point x="372" y="506"/>
			<point x="385" y="528"/>
			<point x="385" y="551" type="curve" smooth="yes"/>
			<point x="385" y="598"/>
			<point x="349" y="616"/>
			<point x="305" y="616" type="curve" smooth="yes"/>
			<point x="223" y="616" type="line"/>
		</contour>
		<contour>
			<point x="272" y="518" type="line"/>
			<point x="272" y="578" type="line"/>
			<point x="297" y="578" type="line" smooth="yes"/>
			<point x="321" y="578"/>
			<point x="332" y="565"/>
			<point x="332" y="548" type="curve" smooth="yes"/>
			<point x="332" y="530"/>
			<point x="319" y="518"/>
			<point x="295" y="518" type="curve" smooth="yes"/>
		</contour>
	</outline>
</glyph>
<glyph name="Oslash" format="1">
	<unicode hex="00D8"/>
	<advance width="600"/>
	<outline>
		<contour>
			<point x="27" y="7" type="line"/>
			<point x="96" y="-37" type="line"/>
			<point x="570" y="647" type="line"/>
			<point x="502" y="691" type="line"/>
		</contour>
		<component base="O"/>
		<contour>
			<point name="aboveUC" x="300" y="674" type="move"/>
		</contour>
		<contour>
			<point name="baseLC" x="300" y="0" type="move"/>
		</contour>
	</outline>
</glyph>
<glyph name="Thorn" format="1">
	<unicode hex="00DE"/>
	<advance width="600"/>
	<outline>
		<contour>
			<point x="87" y="0" type="line"/>
			<point x="203" y="0" type="line"/>
			<point x="203" y="136" type="line"/>
			<point x="307" y="136" type="line" smooth="yes"/>
			<point x="448" y="136"/>
			<point x="556" y="202"/>
			<point x="556" y="348" type="curve" smooth="yes"/>
			<point x="556" y="499"/>
			<point x="450" y="550"/>
			<point x="307" y="550" type="curve" smooth="yes"/>
			<point x="203" y="550" type="line"/>
			<point x="203" y="654" type="line"/>
			<point x="87" y="654" type="line"/>
		</contour>
		<contour>
			<point x="203" y="229" type="line"/>
			<point x="203" y="457" type="line"/>
			<point x="297" y="457" type="line" smooth="yes"/>
			<point x="392" y="457"/>
			<point x="441" y="429"/>
			<point x="441" y="348" type="curve" smooth="yes"/>
			<point x="441" y="268"/>
			<point x="395" y="229"/>
			<point x="297" y="229" type="curve" smooth="yes"/>
		</contour>
	</outline>
</glyph>
<glyph name="germandbls" format="1">
	<unicode hex="00DF"/>
	<advance width="600"/>
	<outline>
		<contour>
			<point x="399" y="-12" type="curve" smooth="yes"/>
			<point x="505" y="-12"/>
			<point x="568" y="57"/>
			<point x="568" y="144" type="curve" smooth="yes"/>
			<point x="568" y="296"/>
			<point x="390" y="290"/>
			<point x="390" y="371" type="curve" smooth="yes"/>
			<point x="390" y="431"/>
			<point x="465" y="462"/>
			<point x="465" y="560" type="curve" smooth="yes"/>
			<point x="465" y="642"/>
			<point x="406" y="718"/>
			<point x="288" y="718" type="curve" smooth="yes"/>
			<point x="149" y="718"/>
			<point x="74" y="630"/>
			<point x="74" y="507" type="curve" smooth="yes"/>
			<point x="74" y="0" type="line"/>
			<point x="189" y="0" type="line"/>
			<point x="189" y="496" type="line" smooth="yes"/>
			<point x="189" y="580"/>
			<point x="224" y="627"/>
			<point x="287" y="627" type="curve" smooth="yes"/>
			<point x="331" y="627"/>
			<point x="357" y="595"/>
			<point x="357" y="553" type="curve" smooth="yes"/>
			<point x="357" y="472"/>
			<point x="282" y="442"/>
			<point x="282" y="357" type="curve" smooth="yes"/>
			<point x="282" y="222"/>
			<point x="460" y="230"/>
			<point x="460" y="135" type="curve" smooth="yes"/>
			<point x="460" y="102"/>
			<point x="436" y="75"/>
			<point x="395" y="75" type="curve" smooth="yes"/>
			<point x="363" y="75"/>
			<point x="332" y="85"/>
			<point x="299" y="108" type="curve"/>
			<point x="258" y="29" type="line"/>
			<point x="301" y="3"/>
			<point x="343" y="-12"/>
		</contour>
	</outline>
</glyph>
<glyph name="eth" format="2">
	<unicode hex="00F0"/>
	<advance width="600"/>
	<outline>
		<contour>
			<point x="297" y="-12" type="curve" smooth="yes"/>
			<point x="450" y="-12"/>
			<point x="543" y="101"/>
			<point x="543" y="262" type="curve" smooth="yes"/>
			<point x="543" y="520"/>
			<point x="386" y="650"/>
			<point x="201" y="735" type="curve"/>
			<point x="150" y="664" type="line"/>
			<point x="335" y="575"/>
			<point x="435" y="476"/>
			<point x="435" y="256" type="curve" smooth="yes"/>
			<point x="435" y="148"/>
			<point x="387" y="82"/>
			<point x="300" y="82" type="curve" smooth="yes"/>
			<point x="223" y="82"/>
			<point x="159" y="136"/>
			<point x="159" y="225" type="curve" smooth="yes"/>
			<point x="159" y="311"/>
			<point x="210" y="364"/>
			<point x="299" y="364" type="curve" smooth="yes"/>
			<point x="348" y="364"/>
			<point x="397" y="343"/>
			<point x="439" y="288" type="curve"/>
			<point x="437" y="355" type="line"/>
			<point x="406" y="419"/>
			<point x="343" y="451"/>
			<point x="278" y="451" type="curve" smooth="yes"/>
			<point x="154" y="451"/>
			<point x="53" y="365"/>
			<point x="53" y="225" type="curve" smooth="yes"/>
			<point x="53" y="79"/>
			<point x="166" y="-12"/>
		</contour>
		<contour>
			<point x="164" y="483" type="line"/>
			<point x="517" y="663" type="line"/>
			<point x="482" y="722" type="line"/>
			<point x="129" y="543" type="line"/>
		</contour>
	</outline>
</glyph>
<glyph name="divide" format="2">
	<unicode hex="00F7"/>
	<advance width="600"/>
	<outline>
		<contour>
			<point x="300" y="444" type="curve" smooth="yes"/>
			<point x="338" y="444"/>
			<point x="368" y="471"/>
			<point x="368" y="510" type="curve" smooth="yes"/>
			<point x="368" y="548"/>
			<point x="338" y="575"/>
			<point x="300" y="575" type="curve" smooth="yes"/>
			<point x="262" y="575"/>
			<point x="232" y="548"/>
			<point x="232" y="510" type="curve" smooth="yes"/>
			<point x="232" y="471"/>
			<point x="262" y="444"/>
		</contour>
		<contour>
			<point x="300" y="84" type="curve" smooth="yes"/>
			<point x="338" y="84"/>
			<point x="368" y="111"/>
			<point x="368" y="150" type="curve" smooth="yes"/>
			<point x="368" y="188"/>
			<point x="338" y="215"/>
			<point x="300" y="215" type="curve" smooth="yes"/>
			<point x="262" y="215"/>
			<point x="232" y="188"/>
			<point x="232" y="150" type="curve" smooth="yes"/>
			<point x="232" y="111"/>
			<point x="262" y="84"/>
		</contour>
		<contour>
			<point x="78" y="288" type="line"/>
			<point x="522" y="288" type="line"/>
			<point x="522" y="372" type="line"/>
			<point x="78" y="372" type="line"/>
		</contour>
	</outline>
</glyph>
<glyph name="thorn" format="2">
	<unicode hex="00FE"/>
	<advance width="600"/>
	<outline>
		<contour>
			<point x="82" y="-194" type="line"/>
			<point x="198" y="-194" type="line"/>
			<point x="198" y="-40" type="line"/>
			<point x="193" y="46" type="line"/>
			<point x="196" y="46" type="line"/>
			<point x="233" y="12"/>
			<point x="281" y="-12"/>
			<point x="329" y="-12" type="curve" smooth="yes"/>
			<point x="440" y="-12"/>
			<point x="547" y="85"/>
			<point x="547" y="253" type="curve" smooth="yes"/>
			<point x="547" y="405"/>
			<point x="472" y="503"/>
			<point x="346" y="503" type="curve" smooth="yes"/>
			<point x="292" y="503"/>
			<point x="238" y="478"/>
			<point x="196" y="438" type="curve"/>
			<point x="193" y="438" type="line"/>
			<point x="198" y="520" type="line"/>
			<point x="198" y="706" type="line"/>
			<point x="82" y="706" type="line"/>
		</contour>
		<contour>
			<point x="305" y="83" type="curve" smooth="yes"/>
			<point x="275" y="83"/>
			<point x="234" y="95"/>
			<point x="198" y="128" type="curve"/>
			<point x="198" y="349" type="line"/>
			<point x="238" y="390"/>
			<point x="277" y="408"/>
			<point x="314" y="408" type="curve" smooth="yes"/>
			<point x="394" y="408"/>
			<point x="428" y="350"/>
			<point x="428" y="252" type="curve" smooth="yes"/>
			<point x="428" y="141"/>
			<point x="373" y="83"/>
		</contour>
	</outline>
	<anchor name="aboveUC" x="142" y="734"/>
	<anchor name="belowLC" x="142" y="-212"/>
</glyph>
<glyph name="Aogonek" format="1">
	<unicode hex="0104"/>
	<advance width="600"/>
	<outline>
		<contour>
			<point x="511" y="-226" type="curve" smooth="yes"/>
			<point x="549" y="-226"/>
			<point x="586" y="-210"/>
			<point x="611" y="-189" type="curve"/>
			<point x="581" y="-130" type="line"/>
			<point x="570" y="-140"/>
			<point x="554" y="-149"/>
			<point x="535" y="-149" type="curve" smooth="yes"/>
			<point x="510" y="-149"/>
			<point x="488" y="-134"/>
			<point x="488" y="-104" type="curve" smooth="yes"/>
			<point x="488" y="-58"/>
			<point x="526" y="-14"/>
			<point x="580" y="0" type="curve"/>
			<point x="368" y="654" type="line"/>
			<point x="232" y="654" type="line"/>
			<point x="20" y="0" type="line"/>
			<point x="138" y="0" type="line"/>
			<point x="238" y="348" type="line" smooth="yes"/>
			<point x="258" y="417"/>
			<point x="278" y="491"/>
			<point x="296" y="564" type="curve"/>
			<point x="300" y="564" type="line"/>
			<point x="318" y="491"/>
			<point x="338" y="417"/>
			<point x="358" y="348" type="curve" smooth="yes"/>
			<point x="457" y="0" type="line"/>
			<point x="487" y="0" type="line"/>
			<point x="450" y="-23"/>
			<point x="401" y="-69"/>
			<point x="401" y="-132" type="curve" smooth="yes"/>
			<point x="401" y="-194"/>
			<point x="449" y="-226"/>
		</contour>
		<contour>
			<point x="145" y="177" type="line"/>
			<point x="453" y="177" type="line"/>
			<point x="453" y="268" type="line"/>
			<point x="145" y="268" type="line"/>
		</contour>
		<contour>
			<point name="aboveUC" x="300" y="674" type="move"/>
		</contour>
	</outline>
</glyph>
<glyph name="dcaron" format="1">
	<unicode hex="010F"/>
	<advance width="600"/>
	<outline>
		<contour>
			<point x="236" y="-12" type="curve" smooth="yes"/>
			<point x="287" y="-12"/>
			<point x="335" y="21"/>
			<point x="372" y="57" type="curve"/>
			<point x="375" y="57" type="line"/>
			<point x="384" y="0" type="line"/>
			<point x="472" y="0" type="line"/>
			<point x="472" y="706" type="line"/>
			<point x="363" y="706" type="line"/>
			<point x="363" y="528" type="line"/>
			<point x="368" y="445" type="line"/>
			<point x="365" y="445" type="line"/>
			<point x="328" y="481"/>
			<point x="293" y="503"/>
			<point x="242" y="503" type="curve" smooth="yes"/>
			<point x="140" y="503"/>
			<point x="44" y="405"/>
			<point x="44" y="245" type="curve" smooth="yes"/>
			<point x="44" y="83"/>
			<point x="120" y="-12"/>
		</contour>
		<contour>
			<point x="264" y="83" type="curve" smooth="yes"/>
			<point x="196" y="83"/>
			<point x="156" y="140"/>
			<point x="156" y="246" type="curve" smooth="yes"/>
			<point x="156" y="349"/>
			<point x="208" y="408"/>
			<point x="270" y="408" type="curve" smooth="yes"/>
			<point x="301" y="408"/>
			<point x="329" y="394"/>
			<point x="363" y="363" type="curve"/>
			<point x="363" y="142" type="line"/>
			<point x="330" y="103"/>
			<point x="299" y="83"/>
		</contour>
		<component base="caron.a" xOffset="279"/>
	</outline>
</glyph>
<glyph name="dcroat" format="2">
	<unicode hex="0111"/>
	<advance width="600"/>
	<outline>
		<contour>
			<point x="264" y="-12" type="curve" smooth="yes"/>
			<point x="318" y="-12"/>
			<point x="373" y="19"/>
			<point x="411" y="57" type="curve"/>
			<point x="414" y="57" type="line"/>
			<point x="423" y="0" type="line"/>
			<point x="518" y="0" type="line"/>
			<point x="518" y="706" type="line"/>
			<point x="403" y="706" type="line"/>
			<point x="403" y="508" type="line"/>
			<point x="408" y="425" type="line"/>
			<point x="405" y="425" type="line"/>
			<point x="368" y="461"/>
			<point x="327" y="483"/>
			<point x="270" y="483" type="curve" smooth="yes"/>
			<point x="159" y="483"/>
			<point x="53" y="389"/>
			<point x="53" y="235" type="curve" smooth="yes"/>
			<point x="53" y="79"/>
			<point x="137" y="-12"/>
		</contour>
		<contour>
			<point x="291" y="83" type="curve" smooth="yes"/>
			<point x="216" y="83"/>
			<point x="172" y="136"/>
			<point x="172" y="236" type="curve" smooth="yes"/>
			<point x="172" y="332"/>
			<point x="229" y="388"/>
			<point x="299" y="388" type="curve" smooth="yes"/>
			<point x="333" y="388"/>
			<point x="367" y="375"/>
			<point x="403" y="343" type="curve"/>
			<point x="403" y="142" type="line"/>
			<point x="368" y="102"/>
			<point x="332" y="83"/>
		</contour>
		<contour>
			<point x="238" y="558" type="line"/>
			<point x="512" y="558" type="line"/>
			<point x="587" y="564" type="line"/>
			<point x="587" y="627" type="line"/>
			<point x="238" y="627" type="line"/>
		</contour>
	</outline>
</glyph>
<glyph name="dotlessi" format="1">
	<unicode hex="0131"/>
	<advance width="600"/>
	<outline>
		<contour>
			<point x="297" y="0" type="line"/>
			<point x="412" y="0" type="line"/>
			<point x="412" y="491" type="line"/>
			<point x="84" y="491" type="line"/>
			<point x="84" y="400" type="line"/>
			<point x="297" y="400" type="line"/>
		</contour>
		<contour>
			<point name="ogonekLC" x="354" y="0" type="move"/>
		</contour>
		<contour>
			<point name="aboveLC" x="346" y="512" type="move"/>
		</contour>
		<contour>
			<point name="baseLC" x="354" y="0" type="move"/>
		</contour>
		<contour>
			<point name="belowLC" x="346" y="-20" type="move"/>
		</contour>
	</outline>
</glyph>
<glyph name="ij" format="2">
	<unicode hex="0133"/>
	<advance width="600"/>
	<outline>
		<contour>
			<point x="94" y="0" type="line"/>
			<point x="210" y="0" type="line"/>
			<point x="210" y="491" type="line"/>
			<point x="94" y="491" type="line"/>
		</contour>
		<contour>
			<point x="152" y="577" type="curve" smooth="yes"/>
			<point x="195" y="577"/>
			<point x="226" y="605"/>
			<point x="226" y="646" type="curve" smooth="yes"/>
			<point x="226" y="686"/>
			<point x="195" y="714"/>
			<point x="152" y="714" type="curve" smooth="yes"/>
			<point x="110" y="714"/>
			<point x="79" y="686"/>
			<point x="79" y="646" type="curve" smooth="yes"/>
			<point x="79" y="605"/>
			<point x="110" y="577"/>
		</contour>
		<contour>
			<point x="364" y="-206" type="curve" smooth="yes"/>
			<point x="480" y="-206"/>
			<point x="520" y="-129"/>
			<point x="520" y="-25" type="curve" smooth="yes"/>
			<point x="520" y="491" type="line"/>
			<point x="404" y="491" type="line"/>
			<point x="404" y="-27" type="line" smooth="yes"/>
			<point x="404" y="-84"/>
			<point x="392" y="-115"/>
			<point x="348" y="-115" type="curve" smooth="yes"/>
			<point x="333" y="-115"/>
			<point x="319" y="-111"/>
			<point x="306" y="-107" type="curve"/>
			<point x="284" y="-193" type="line"/>
			<point x="303" y="-200"/>
			<point x="328" y="-206"/>
		</contour>
		<contour>
			<point x="462" y="577" type="curve" smooth="yes"/>
			<point x="505" y="577"/>
			<point x="536" y="605"/>
			<point x="536" y="646" type="curve" smooth="yes"/>
			<point x="536" y="686"/>
			<point x="505" y="714"/>
			<point x="462" y="714" type="curve" smooth="yes"/>
			<point x="420" y="714"/>
			<point x="389" y="686"/>
			<point x="389" y="646" type="curve" smooth="yes"/>
			<point x="389" y="605"/>
			<point x="420" y="577"/>
		</contour>
	</outline>
</glyph>
<glyph name="Lslash" format="1">
	<unicode hex="0141"/>
	<advance width="600"/>
	<outline>
		<contour>
			<point x="41" y="176" type="line"/>
			<point x="132" y="227" type="line"/>
			<point x="224" y="266" type="line"/>
			<point x="470" y="399" type="line"/>
			<point x="430" y="470" type="line"/>
			<point x="224" y="358" type="line"/>
			<point x="132" y="318" type="line"/>
			<point x="1" y="246" type="line"/>
		</contour>
		<component base="L"/>
		<contour>
			<point name="aboveUC" x="191" y="674" type="move"/>
		</contour>
		<contour>
			<point name="belowLC" x="342" y="-20" type="move"/>
		</contour>
	</outline>
</glyph>
<glyph name="lslash" format="1">
	<unicode hex="0142"/>
	<advance width="600"/>
	<outline>
		<contour>
			<point x="130" y="250" type="line"/>
			<point x="232" y="309" type="line"/>
			<point x="321" y="349" type="line"/>
			<point x="515" y="457" type="line"/>
			<point x="476" y="530" type="line"/>
			<point x="321" y="443" type="line"/>
			<point x="232" y="404" type="line"/>
			<point x="90" y="323" type="line"/>
		</contour>
		<component base="l"/>
		<contour>
			<point name="aboveUC" x="280" y="734" type="move"/>
		</contour>
		<contour>
			<point name="belowLC" x="376" y="-20" type="move"/>
		</contour>
	</outline>
</glyph>
<glyph name="napostrophe" format="1">
	<unicode hex="0149"/>
	<advance width="600"/>
	<outline>
		<contour>
			<point x="206" y="0" type="line"/>
			<point x="322" y="0" type="line"/>
			<point x="322" y="339" type="line"/>
			<point x="362" y="382"/>
			<point x="388" y="404"/>
			<point x="430" y="404" type="curve" smooth="yes"/>
			<point x="484" y="404"/>
			<point x="506" y="369"/>
			<point x="506" y="293" type="curve" smooth="yes"/>
			<point x="506" y="0" type="line"/>
			<point x="621" y="0" type="line"/>
			<point x="621" y="308" type="line" smooth="yes"/>
			<point x="621" y="432"/>
			<point x="574" y="503"/>
			<point x="472" y="503" type="curve" smooth="yes"/>
			<point x="404" y="503"/>
			<point x="357" y="466"/>
			<point x="314" y="421" type="curve"/>
			<point x="310" y="421" type="line"/>
			<point x="301" y="491" type="line"/>
			<point x="206" y="491" type="line"/>
		</contour>
		<component base="quoteright" xOffset="-244"/>
	</outline>
</glyph>
<glyph name="eng" format="2">
	<unicode hex="014B"/>
	<advance width="600"/>
	<outline>
		<contour>
			<point x="378" y="-185" type="curve" smooth="yes"/>
			<point x="490" y="-185"/>
			<point x="532" y="-106"/>
			<point x="532" y="0" type="curve" smooth="yes"/>
			<point x="532" y="304" type="line" smooth="yes"/>
			<point x="532" y="431"/>
			<point x="480" y="503"/>
			<point x="367" y="503" type="curve" smooth="yes"/>
			<point x="292" y="503"/>
			<point x="236" y="464"/>
			<point x="190" y="417" type="curve"/>
			<point x="186" y="417" type="line"/>
			<point x="177" y="491" type="line"/>
			<point x="82" y="491" type="line"/>
			<point x="82" y="0" type="line"/>
			<point x="198" y="0" type="line"/>
			<point x="198" y="335" type="line"/>
			<point x="243" y="381"/>
			<point x="276" y="404"/>
			<point x="324" y="404" type="curve" smooth="yes"/>
			<point x="391" y="404"/>
			<point x="416" y="368"/>
			<point x="416" y="289" type="curve" smooth="yes"/>
			<point x="416" y="-2" type="line" smooth="yes"/>
			<point x="416" y="-61"/>
			<point x="403" y="-93"/>
			<point x="362" y="-93" type="curve" smooth="yes"/>
			<point x="346" y="-93"/>
			<point x="331" y="-89"/>
			<point x="318" y="-85" type="curve"/>
			<point x="297" y="-171" type="line"/>
			<point x="316" y="-178"/>
			<point x="342" y="-185"/>
		</contour>
	</outline>
	<anchor name="aboveLC" x="316" y="512"/>
	<anchor name="belowLC" x="342" y="-212"/>
</glyph>
<glyph name="oe" format="1">
	<unicode hex="0153"/>
	<advance width="600"/>
	<outline>
		<contour>
			<point x="197" y="82" type="curve" smooth="yes"/>
			<point x="144" y="82"/>
			<point x="117" y="147"/>
			<point x="117" y="245" type="curve" smooth="yes"/>
			<point x="117" y="344"/>
			<point x="144" y="409"/>
			<point x="197" y="409" type="curve" smooth="yes"/>
			<point x="243" y="409"/>
			<point x="272" y="344"/>
			<point x="272" y="246" type="curve" smooth="yes"/>
			<point x="272" y="147"/>
			<point x="243" y="82"/>
		</contour>
		<contour>
			<point x="189" y="-12" type="curve" smooth="yes"/>
			<point x="253" y="-12"/>
			<point x="299" y="25"/>
			<point x="325" y="118" type="curve"/>
			<point x="307" y="118" type="line"/>
			<point x="329" y="25"/>
			<point x="392" y="-12"/>
			<point x="455" y="-12" type="curve" smooth="yes"/>
			<point x="498" y="-12"/>
			<point x="545" y="6"/>
			<point x="580" y="33" type="curve"/>
			<point x="540" y="109" type="line"/>
			<point x="514" y="91"/>
			<point x="489" y="80"/>
			<point x="459" y="80" type="curve" smooth="yes"/>
			<point x="398" y="80"/>
			<point x="351" y="133"/>
			<point x="351" y="246" type="curve" smooth="yes"/>
			<point x="351" y="361"/>
			<point x="388" y="414"/>
			<point x="435" y="414" type="curve" smooth="yes"/>
			<point x="482" y="414"/>
			<point x="504" y="369"/>
			<point x="504" y="271" type="curve"/>
			<point x="523" y="291" type="line"/>
			<point x="330" y="291" type="line"/>
			<point x="330" y="212" type="line"/>
			<point x="590" y="212" type="line"/>
			<point x="592" y="227"/>
			<point x="595" y="249"/>
			<point x="595" y="272" type="curve" smooth="yes"/>
			<point x="595" y="397"/>
			<point x="544" y="503"/>
			<point x="445" y="503" type="curve" smooth="yes"/>
			<point x="385" y="503"/>
			<point x="329" y="462"/>
			<point x="307" y="370" type="curve"/>
			<point x="325" y="370" type="line"/>
			<point x="299" y="462"/>
			<point x="253" y="503"/>
			<point x="191" y="503" type="curve" smooth="yes"/>
			<point x="91" y="503"/>
			<point x="11" y="409"/>
			<point x="11" y="245" type="curve" smooth="yes"/>
			<point x="11" y="82"/>
			<point x="89" y="-12"/>
		</contour>
		<contour>
			<point name="aboveLC" x="317" y="512" type="move"/>
		</contour>
		<contour>
			<point name="baseLC" x="446" y="0" type="move"/>
		</contour>
		<contour>
			<point name="belowLC" x="309" y="-20" type="move"/>
		</contour>
	</outline>
</glyph>
<glyph name="Tbar" format="1">
	<unicode hex="0166"/>
	<advance width="600"/>
	<outline>
		<contour>
			<point x="104" y="294" type="line"/>
			<point x="496" y="294" type="line"/>
			<point x="496" y="363" type="line"/>
			<point x="196" y="363" type="line"/>
			<point x="104" y="358" type="line"/>
		</contour>
		<component base="T"/>
		<contour>
			<point name="aboveUC" x="300" y="674" type="move"/>
		</contour>
		<contour>
			<point name="belowLC" x="300" y="-20" type="move"/>
		</contour>
	</outline>
</glyph>
<glyph name="tbar" format="2">
	<unicode hex="0167"/>
	<advance width="600"/>
	<outline>
		<contour>
			<point x="60" y="219" type="line"/>
			<point x="509" y="219" type="line"/>
			<point x="509" y="288" type="line"/>
			<point x="198" y="288" type="line"/>
			<point x="60" y="282" type="line"/>
		</contour>
		<component base="t"/>
	</outline>
</glyph>
<glyph name="uogonek" format="1">
	<unicode hex="0173"/>
	<advance width="600"/>
	<outline>
		<contour>
			<point x="441" y="-226" type="curve" smooth="yes"/>
			<point x="478" y="-226"/>
			<point x="518" y="-212"/>
			<point x="544" y="-190" type="curve"/>
			<point x="516" y="-138" type="line"/>
			<point x="505" y="-147"/>
			<point x="487" y="-155"/>
			<point x="467" y="-155" type="curve" smooth="yes"/>
			<point x="439" y="-155"/>
			<point x="411" y="-139"/>
			<point x="411" y="-105" type="curve" smooth="yes"/>
			<point x="411" y="-69"/>
			<point x="440" y="-30"/>
			<point x="515" y="-3" type="curve"/>
			<point x="515" y="491" type="line"/>
			<point x="400" y="491" type="line"/>
			<point x="400" y="160" type="line"/>
			<point x="356" y="106"/>
			<point x="323" y="87"/>
			<point x="277" y="87" type="curve" smooth="yes"/>
			<point x="209" y="87"/>
			<point x="185" y="123"/>
			<point x="185" y="202" type="curve" smooth="yes"/>
			<point x="185" y="491" type="line"/>
			<point x="70" y="491" type="line"/>
			<point x="70" y="187" type="line" smooth="yes"/>
			<point x="70" y="60"/>
			<point x="120" y="-12"/>
			<point x="234" y="-12" type="curve" smooth="yes"/>
			<point x="307" y="-12"/>
			<point x="362" y="24"/>
			<point x="408" y="78" type="curve"/>
			<point x="412" y="78" type="line"/>
			<point x="422" y="-2" type="line"/>
			<point x="377" y="-28"/>
			<point x="331" y="-70"/>
			<point x="331" y="-130" type="curve" smooth="yes"/>
			<point x="331" y="-194"/>
			<point x="379" y="-226"/>
		</contour>
		<contour>
			<point name="aboveLC" x="295" y="512" type="move"/>
		</contour>
	</outline>
</glyph>
<glyph name="longs" format="1">
	<unicode hex="017F"/>
	<advance width="600"/>
	<outline>
		<contour>
			<point x="228" y="0" type="line"/>
			<point x="342" y="0" type="line"/>
			<point x="342" y="520" type="line" smooth="yes"/>
			<point x="342" y="589"/>
			<point x="375" y="627"/>
			<point x="450" y="627" type="curve" smooth="yes"/>
			<point x="490" y="627"/>
			<point x="522" y="620"/>
			<point x="558" y="606" type="curve"/>
			<point x="582" y="691" type="line"/>
			<point x="538" y="708"/>
			<point x="489" y="718"/>
			<point x="436" y="718" type="curve" smooth="yes"/>
			<point x="292" y="718"/>
			<point x="228" y="634"/>
			<point x="228" y="518" type="curve" smooth="yes"/>
		</contour>
		<contour>
			<point x="92" y="400" type="line"/>
			<point x="301" y="400" type="line"/>
			<point x="301" y="491" type="line"/>
			<point x="231" y="491" type="line"/>
			<point x="92" y="486" type="line"/>
		</contour>
	</outline>
</glyph>
<glyph name="bstroke" format="2">
	<unicode hex="0180"/>
	<advance width="600"/>
	<outline>
		<contour>
			<point x="329" y="-12" type="curve" smooth="yes"/>
			<point x="443" y="-12"/>
			<point x="547" y="81"/>
			<point x="547" y="244" type="curve" smooth="yes"/>
			<point x="547" y="389"/>
			<point x="473" y="483"/>
			<point x="346" y="483" type="curve" smooth="yes"/>
			<point x="293" y="483"/>
			<point x="237" y="458"/>
			<point x="197" y="418" type="curve"/>
			<point x="193" y="418" type="line"/>
			<point x="196" y="500" type="line"/>
			<point x="197" y="706" type="line"/>
			<point x="82" y="706" type="line"/>
			<point x="82" y="0" type="line"/>
			<point x="173" y="0" type="line"/>
			<point x="183" y="54" type="line"/>
			<point x="186" y="54" type="line"/>
			<point x="230" y="12"/>
			<point x="283" y="-12"/>
		</contour>
		<contour>
			<point x="306" y="83" type="curve" smooth="yes"/>
			<point x="275" y="83"/>
			<point x="234" y="95"/>
			<point x="197" y="128" type="curve"/>
			<point x="197" y="329" type="line"/>
			<point x="238" y="370"/>
			<point x="277" y="388"/>
			<point x="314" y="388" type="curve" smooth="yes"/>
			<point x="394" y="388"/>
			<point x="428" y="334"/>
			<point x="428" y="242" type="curve" smooth="yes"/>
			<point x="428" y="137"/>
			<point x="375" y="83"/>
		</contour>
		<contour>
			<point x="13" y="558" type="line"/>
			<point x="395" y="558" type="line"/>
			<point x="395" y="627" type="line"/>
			<point x="89" y="627" type="line"/>
			<point x="13" y="622" type="line"/>
		</contour>
	</outline>
</glyph>
<glyph name="Schwa" format="2">
	<unicode hex="018F"/>
	<advance width="600"/>
	<outline>
		<contour>
			<point x="302" y="-12" type="curve" smooth="yes"/>
			<point x="451" y="-12"/>
			<point x="555" y="117"/>
			<point x="555" y="328" type="curve" smooth="yes"/>
			<point x="555" y="540"/>
			<point x="456" y="666"/>
			<point x="301" y="666" type="curve" smooth="yes"/>
			<point x="220" y="666"/>
			<point x="161" y="635"/>
			<point x="118" y="593" type="curve"/>
			<point x="172" y="514" type="line"/>
			<point x="202" y="544"/>
			<point x="242" y="566"/>
			<point x="292" y="566" type="curve" smooth="yes"/>
			<point x="389" y="566"/>
			<point x="440" y="486"/>
			<point x="440" y="328" type="curve" smooth="yes"/>
			<point x="440" y="158"/>
			<point x="384" y="88"/>
			<point x="302" y="88" type="curve" smooth="yes"/>
			<point x="219" y="88"/>
			<point x="166" y="157"/>
			<point x="166" y="328" type="curve"/>
			<point x="146" y="275" type="line"/>
			<point x="468" y="275" type="line"/>
			<point x="468" y="361" type="line"/>
			<point x="56" y="361" type="line"/>
			<point x="55" y="349"/>
			<point x="54" y="337"/>
			<point x="54" y="325" type="curve" smooth="yes"/>
			<point x="54" y="118"/>
			<point x="154" y="-12"/>
		</contour>
	</outline>
	<anchor name="aboveUC" x="318" y="674"/>
	<anchor name="baseLC" x="310" y="0"/>
	<anchor name="belowLC" x="306" y="-20"/>
	<anchor name="ogonekUC" x="310" y="0"/>
</glyph>
<glyph name="Istroke" format="2">
	<unicode hex="0197"/>
	<advance width="600"/>
	<outline>
		<contour>
			<point x="139" y="302" type="line"/>
			<point x="458" y="302" type="line"/>
			<point x="458" y="380" type="line"/>
			<point x="246" y="380" type="line"/>
			<point x="139" y="375" type="line"/>
		</contour>
		<component base="I"/>
	</outline>
</glyph>
<glyph name="uhorn" format="2">
	<unicode hex="01B0"/>
	<advance width="600"/>
	<outline>
		<contour>
			<point x="502" y="452" type="line"/>
			<point x="560" y="472"/>
			<point x="610" y="513"/>
			<point x="610" y="593" type="curve" smooth="yes"/>
			<point x="610" y="628"/>
			<point x="600" y="662"/>
			<point x="584" y="686" type="curve"/>
			<point x="497" y="647" type="line"/>
			<point x="507" y="632"/>
			<point x="512" y="608"/>
			<point x="512" y="585" type="curve" smooth="yes"/>
			<point x="512" y="514"/>
			<point x="469" y="496"/>
			<point x="425" y="491" type="curve"/>
		</contour>
		<component base="u"/>
	</outline>
	<anchor name="aboveLC" x="295" y="512"/>
	<anchor name="belowLC" x="307" y="-20"/>
</glyph>
<glyph name="clickretroflex" format="2">
	<unicode hex="01C3"/>
	<advance width="459"/>
	<outline>
		<contour>
			<point x="191" y="227" type="line"/>
			<point x="268" y="227" type="line"/>
			<point x="285" y="556" type="line"/>
			<point x="289" y="706" type="line"/>
			<point x="170" y="706" type="line"/>
			<point x="174" y="556" type="line"/>
		</contour>
		<contour>
			<point x="230" y="-12" type="curve" smooth="yes"/>
			<point x="275" y="-12"/>
			<point x="310" y="22"/>
			<point x="310" y="70" type="curve" smooth="yes"/>
			<point x="310" y="119"/>
			<point x="275" y="151"/>
			<point x="230" y="151" type="curve" smooth="yes"/>
			<point x="184" y="151"/>
			<point x="149" y="119"/>
			<point x="149" y="70" type="curve" smooth="yes"/>
			<point x="149" y="22"/>
			<point x="184" y="-12"/>
		</contour>
	</outline>
	<anchor name="aboveUC" x="230" y="725"/>
	<anchor name="belowLC" x="230" y="-22"/>
</glyph>
<glyph name="Aringacute" format="1">
	<unicode hex="01FA"/>
	<advance width="600"/>
	<outline>
		<contour>
			<point x="263" y="842" type="line"/>
			<point x="422" y="922" type="line"/>
			<point x="374" y="988" type="line"/>
			<point x="226" y="862" type="line"/>
		</contour>
		<component base="Aring"/>
	</outline>
</glyph>
<glyph name="aringacute" format="2">
	<unicode hex="01FB"/>
	<advance width="600"/>
	<outline>
		<contour>
			<point x="290" y="730" type="line"/>
			<point x="436" y="798" type="line"/>
			<point x="388" y="861" type="line"/>
			<point x="240" y="746" type="line"/>
		</contour>
		<component base="aring"/>
	</outline>
</glyph>
<glyph name="Glottalstop" format="2">
	<unicode hex="0241"/>
	<advance width="507"/>
	<outline>
		<contour>
			<point x="171" y="0" type="line"/>
			<point x="287" y="0" type="line"/>
			<point x="287" y="218" type="line"/>
			<point x="395" y="268"/>
			<point x="472" y="350"/>
			<point x="472" y="464" type="curve" smooth="yes"/>
			<point x="472" y="597"/>
			<point x="361" y="666"/>
			<point x="230" y="666" type="curve" smooth="yes"/>
			<point x="134" y="666"/>
			<point x="54" y="623"/>
			<point x="0" y="570" type="curve"/>
			<point x="60" y="496" type="line"/>
			<point x="103" y="534"/>
			<point x="163" y="565"/>
			<point x="222" y="565" type="curve" smooth="yes"/>
			<point x="302" y="565"/>
			<point x="353" y="524"/>
			<point x="353" y="456" type="curve" smooth="yes"/>
			<point x="353" y="381"/>
			<point x="304" y="322"/>
			<point x="171" y="271" type="curve"/>
		</contour>
	</outline>
	<anchor name="aboveUC" x="250" y="676"/>
	<anchor name="belowLC" x="224" y="-22"/>
</glyph>
<glyph name="Bstroke" format="1">
	<unicode hex="0243"/>
	<advance width="600"/>
	<outline>
		<contour>
			<point x="94" y="0" type="line"/>
			<point x="310" y="0" type="line" smooth="yes"/>
			<point x="454" y="0"/>
			<point x="559" y="62"/>
			<point x="559" y="196" type="curve" smooth="yes"/>
			<point x="559" y="286"/>
			<point x="506" y="338"/>
			<point x="412" y="355" type="curve"/>
			<point x="412" y="359" type="line"/>
			<point x="489" y="378"/>
			<point x="524" y="435"/>
			<point x="524" y="495" type="curve" smooth="yes"/>
			<point x="524" y="612"/>
			<point x="428" y="654"/>
			<point x="293" y="654" type="curve" smooth="yes"/>
			<point x="94" y="654" type="line"/>
		</contour>
		<contour>
			<point x="17" y="166" type="line"/>
			<point x="334" y="166" type="line"/>
			<point x="334" y="235" type="line"/>
			<point x="95" y="235" type="line"/>
			<point x="17" y="229" type="line"/>
		</contour>
		<contour>
			<point x="210" y="89" type="line"/>
			<point x="210" y="308" type="line"/>
			<point x="298" y="308" type="line" smooth="yes"/>
			<point x="395" y="308"/>
			<point x="444" y="277"/>
			<point x="444" y="203" type="curve" smooth="yes"/>
			<point x="444" y="125"/>
			<point x="393" y="89"/>
			<point x="298" y="89" type="curve" smooth="yes"/>
		</contour>
		<contour>
			<point x="210" y="389" type="line"/>
			<point x="210" y="565" type="line"/>
			<point x="285" y="565" type="line" smooth="yes"/>
			<point x="370" y="565"/>
			<point x="412" y="542"/>
			<point x="412" y="483" type="curve" smooth="yes"/>
			<point x="412" y="420"/>
			<point x="374" y="389"/>
			<point x="283" y="389" type="curve" smooth="yes"/>
		</contour>
	</outline>
</glyph>
<glyph name="aturned" format="1">
	<unicode hex="0250"/>
	<advance width="600"/>
	<outline>
		<contour>
			<point x="294" y="-12" type="curve" smooth="yes"/>
			<point x="379" y="-12"/>
			<point x="459" y="21"/>
			<point x="518" y="56" type="curve"/>
			<point x="476" y="133" type="line"/>
			<point x="425" y="105"/>
			<point x="371" y="81"/>
			<point x="315" y="81" type="curve" smooth="yes"/>
			<point x="235" y="81"/>
			<point x="202" y="122"/>
			<point x="198" y="178" type="curve"/>
			<point x="441" y="194"/>
			<point x="538" y="249"/>
			<point x="538" y="359" type="curve" smooth="yes"/>
			<point x="538" y="445"/>
			<point x="469" y="503"/>
			<point x="373" y="503" type="curve" smooth="yes"/>
			<point x="307" y="503"/>
			<point x="241" y="470"/>
			<point x="190" y="430" type="curve"/>
			<point x="186" y="430" type="line"/>
			<point x="178" y="491" type="line"/>
			<point x="83" y="491" type="line"/>
			<point x="83" y="200" type="line" smooth="yes"/>
			<point x="83" y="64"/>
			<point x="158" y="-12"/>
		</contour>
		<contour>
			<point x="198" y="249" type="curve"/>
			<point x="198" y="353" type="line"/>
			<point x="243" y="390"/>
			<point x="289" y="413"/>
			<point x="339" y="413" type="curve" smooth="yes"/>
			<point x="388" y="413"/>
			<point x="426" y="394"/>
			<point x="426" y="350" type="curve" smooth="yes"/>
			<point x="426" y="297"/>
			<point x="375" y="261"/>
		</contour>
		<contour>
			<point name="aboveLC" x="326" y="512" type="move"/>
		</contour>
		<contour>
			<point name="belowLC" x="304" y="-20" type="move"/>
		</contour>
	</outline>
</glyph>
<glyph name="alphalatin" format="2">
	<unicode hex="0251"/>
	<advance width="600"/>
	<outline>
		<contour>
			<point x="263" y="-12" type="curve" smooth="yes"/>
			<point x="317" y="-12"/>
			<point x="374" y="19"/>
			<point x="411" y="57" type="curve"/>
			<point x="414" y="57" type="line"/>
			<point x="423" y="0" type="line"/>
			<point x="518" y="0" type="line"/>
			<point x="518" y="491" type="line"/>
			<point x="427" y="491" type="line"/>
			<point x="417" y="439" type="line"/>
			<point x="414" y="439" type="line"/>
			<point x="371" y="482"/>
			<point x="325" y="503"/>
			<point x="272" y="503" type="curve" smooth="yes"/>
			<point x="157" y="503"/>
			<point x="53" y="405"/>
			<point x="53" y="245" type="curve" smooth="yes"/>
			<point x="53" y="83"/>
			<point x="138" y="-12"/>
		</contour>
		<contour>
			<point x="291" y="83" type="curve" smooth="yes"/>
			<point x="216" y="83"/>
			<point x="172" y="140"/>
			<point x="172" y="246" type="curve" smooth="yes"/>
			<point x="172" y="349"/>
			<point x="229" y="408"/>
			<point x="297" y="408" type="curve" smooth="yes"/>
			<point x="333" y="408"/>
			<point x="367" y="396"/>
			<point x="402" y="363" type="curve"/>
			<point x="402" y="142" type="line"/>
			<point x="368" y="102"/>
			<point x="332" y="83"/>
		</contour>
	</outline>
	<anchor name="aboveLC" x="306" y="512"/>
	<anchor name="baseLC" x="466" y="0"/>
	<anchor name="belowLC" x="306" y="-20"/>
</glyph>
<glyph name="oopen" format="2">
	<unicode hex="0254"/>
	<advance width="600"/>
	<outline>
		<contour>
			<point x="255" y="-12" type="curve" smooth="yes"/>
			<point x="407" y="-12"/>
			<point x="527" y="82"/>
			<point x="527" y="245" type="curve" smooth="yes"/>
			<point x="527" y="409"/>
			<point x="404" y="503"/>
			<point x="261" y="503" type="curve" smooth="yes"/>
			<point x="176" y="503"/>
			<point x="108" y="473"/>
			<point x="66" y="434" type="curve"/>
			<point x="120" y="362" type="line"/>
			<point x="162" y="393"/>
			<point x="204" y="409"/>
			<point x="253" y="409" type="curve" smooth="yes"/>
			<point x="342" y="409"/>
			<point x="408" y="344"/>
			<point x="408" y="245" type="curve" smooth="yes"/>
			<point x="408" y="147"/>
			<point x="341" y="82"/>
			<point x="243" y="82" type="curve" smooth="yes"/>
			<point x="188" y="82"/>
			<point x="141" y="107"/>
			<point x="105" y="136" type="curve"/>
			<point x="56" y="62" type="line"/>
			<point x="111" y="13"/>
			<point x="183" y="-12"/>
		</contour>
	</outline>
	<anchor name="aboveLC" x="290" y="512"/>
	<anchor name="baseLC" x="280" y="0"/>
	<anchor name="belowLC" x="280" y="-20"/>
</glyph>
<glyph name="ccurl" format="2">
	<unicode hex="0255"/>
	<advance width="600"/>
	<outline>
		<contour>
			<point x="189" y="-99" type="line"/>
			<point x="235" y="58"/>
			<point x="342" y="164"/>
			<point x="405" y="164" type="curve" smooth="yes"/>
			<point x="444" y="164"/>
			<point x="460" y="149"/>
			<point x="460" y="127" type="curve" smooth="yes"/>
			<point x="460" y="99"/>
			<point x="427" y="77"/>
			<point x="364" y="77" type="curve" smooth="yes"/>
			<point x="265" y="77"/>
			<point x="186" y="137"/>
			<point x="186" y="245" type="curve" smooth="yes"/>
			<point x="186" y="347"/>
			<point x="258" y="414"/>
			<point x="355" y="414" type="curve" smooth="yes"/>
			<point x="403" y="414"/>
			<point x="445" y="397"/>
			<point x="481" y="364" type="curve"/>
			<point x="534" y="434" type="line"/>
			<point x="491" y="475"/>
			<point x="431" y="503"/>
			<point x="349" y="503" type="curve" smooth="yes"/>
			<point x="202" y="503"/>
			<point x="73" y="409"/>
			<point x="73" y="245" type="curve" smooth="yes"/>
			<point x="73" y="82"/>
			<point x="199" y="-12"/>
			<point x="361" y="-12" type="curve" smooth="yes"/>
			<point x="482" y="-12"/>
			<point x="547" y="50"/>
			<point x="547" y="128" type="curve" smooth="yes"/>
			<point x="547" y="198"/>
			<point x="498" y="242"/>
			<point x="414" y="242" type="curve" smooth="yes"/>
			<point x="309" y="242"/>
			<point x="169" y="135"/>
			<point x="98" y="-60" type="curve"/>
		</contour>
	</outline>
	<anchor name="aboveLC" x="340" y="512"/>
	<anchor name="belowLC" x="360" y="-20"/>
</glyph>
<glyph name="ereversed" format="2">
	<unicode hex="0258"/>
	<advance width="600"/>
	<outline>
		<contour>
			<point x="270" y="-12" type="curve" smooth="yes"/>
			<point x="419" y="-12"/>
			<point x="538" y="83"/>
			<point x="538" y="245" type="curve" smooth="yes"/>
			<point x="538" y="406"/>
			<point x="426" y="503"/>
			<point x="296" y="503" type="curve" smooth="yes"/>
			<point x="150" y="503"/>
			<point x="58" y="406"/>
			<point x="58" y="270" type="curve" smooth="yes"/>
			<point x="58" y="248"/>
			<point x="61" y="224"/>
			<point x="63" y="212" type="curve"/>
			<point x="456" y="212" type="line"/>
			<point x="456" y="294" type="line"/>
			<point x="137" y="294" type="line"/>
			<point x="159" y="268" type="line"/>
			<point x="159" y="365"/>
			<point x="210" y="414"/>
			<point x="287" y="414" type="curve" smooth="yes"/>
			<point x="368" y="414"/>
			<point x="426" y="356"/>
			<point x="426" y="246" type="curve" smooth="yes"/>
			<point x="426" y="132"/>
			<point x="357" y="77"/>
			<point x="255" y="77" type="curve" smooth="yes"/>
			<point x="204" y="77"/>
			<point x="162" y="92"/>
			<point x="117" y="117" type="curve"/>
			<point x="78" y="45" type="line"/>
			<point x="131" y="12"/>
			<point x="198" y="-12"/>
		</contour>
	</outline>
</glyph>
<glyph name="schwa" format="1">
	<unicode hex="0259"/>
	<advance width="600"/>
	<outline>
		<contour>
			<point x="294" y="-12" type="curve" smooth="yes"/>
			<point x="428" y="-12"/>
			<point x="542" y="83"/>
			<point x="542" y="246" type="curve" smooth="yes"/>
			<point x="542" y="408"/>
			<point x="434" y="503"/>
			<point x="285" y="503" type="curve" smooth="yes"/>
			<point x="213" y="503"/>
			<point x="146" y="479"/>
			<point x="93" y="446" type="curve"/>
			<point x="132" y="374" type="line"/>
			<point x="176" y="399"/>
			<point x="219" y="414"/>
			<point x="271" y="414" type="curve" smooth="yes"/>
			<point x="370" y="414"/>
			<point x="430" y="359"/>
			<point x="430" y="245" type="curve" smooth="yes"/>
			<point x="430" y="133"/>
			<point x="375" y="77"/>
			<point x="290" y="77" type="curve" smooth="yes"/>
			<point x="209" y="77"/>
			<point x="163" y="129"/>
			<point x="163" y="228" type="curve"/>
			<point x="142" y="203" type="line"/>
			<point x="460" y="203" type="line"/>
			<point x="460" y="284" type="line"/>
			<point x="67" y="284" type="line"/>
			<point x="65" y="272"/>
			<point x="62" y="248"/>
			<point x="62" y="226" type="curve" smooth="yes"/>
			<point x="62" y="89"/>
			<point x="143" y="-12"/>
		</contour>
		<contour>
			<point name="ogonekLC" x="294" y="0" type="move"/>
		</contour>
		<contour>
			<point name="aboveLC" x="310" y="512" type="move"/>
		</contour>
		<contour>
			<point name="baseLC" x="294" y="0" type="move"/>
		</contour>
		<contour>
			<point name="belowLC" x="294" y="-20" type="move"/>
		</contour>
	</outline>
</glyph>
<glyph name="eopenreversedclosed" format="1">
	<unicode hex="025E"/>
	<advance width="600"/>
	<outline>
		<contour>
			<point x="321" y="-12" type="curve" smooth="yes"/>
			<point x="451" y="-12"/>
			<point x="542" y="41"/>
			<point x="542" y="138" type="curve" smooth="yes"/>
			<point x="542" y="205"/>
			<point x="497" y="244"/>
			<point x="433" y="257" type="curve"/>
			<point x="433" y="261" type="line"/>
			<point x="491" y="278"/>
			<point x="519" y="320"/>
			<point x="519" y="367" type="curve" smooth="yes"/>
			<point x="519" y="461"/>
			<point x="429" y="503"/>
			<point x="317" y="503" type="curve" smooth="yes"/>
			<point x="180" y="503"/>
			<point x="54" y="416"/>
			<point x="54" y="244" type="curve" smooth="yes"/>
			<point x="54" y="75"/>
			<point x="169" y="-12"/>
		</contour>
		<contour>
			<point x="324" y="77" type="curve" smooth="yes"/>
			<point x="228" y="77"/>
			<point x="169" y="128"/>
			<point x="169" y="244" type="curve" smooth="yes"/>
			<point x="169" y="356"/>
			<point x="233" y="414"/>
			<point x="322" y="414" type="curve" smooth="yes"/>
			<point x="375" y="414"/>
			<point x="409" y="393"/>
			<point x="409" y="353" type="curve" smooth="yes"/>
			<point x="409" y="315"/>
			<point x="376" y="294"/>
			<point x="322" y="294" type="curve" smooth="yes"/>
			<point x="293" y="294" type="line"/>
			<point x="293" y="212" type="line"/>
			<point x="326" y="212" type="line" smooth="yes"/>
			<point x="386" y="212"/>
			<point x="428" y="193"/>
			<point x="428" y="149" type="curve" smooth="yes"/>
			<point x="428" y="103"/>
			<point x="389" y="77"/>
		</contour>
		<contour>
			<point name="aboveLC" x="320" y="512" type="move"/>
		</contour>
		<contour>
			<point name="belowLC" x="302" y="-20" type="move"/>
		</contour>
	</outline>
</glyph>
<glyph name="dotlessjstroke" format="2">
	<unicode hex="025F"/>
	<advance width="600"/>
	<outline>
		<contour>
			<point x="113" y="196" type="line"/>
			<point x="561" y="196" type="line"/>
			<point x="561" y="268" type="line"/>
			<point x="298" y="268" type="line"/>
			<point x="113" y="262" type="line"/>
		</contour>
		<component base="dotlessj"/>
	</outline>
</glyph>
<glyph name="gscript" format="1">
	<unicode hex="0261"/>
	<advance width="600"/>
	<outline>
		<contour>
			<point x="275" y="-206" type="curve" smooth="yes"/>
			<point x="432" y="-206"/>
			<point x="518" y="-129"/>
			<point x="518" y="-1" type="curve" smooth="yes"/>
			<point x="518" y="491" type="line"/>
			<point x="427" y="491" type="line"/>
			<point x="417" y="439" type="line"/>
			<point x="414" y="439" type="line"/>
			<point x="374" y="480"/>
			<point x="326" y="503"/>
			<point x="272" y="503" type="curve" smooth="yes"/>
			<point x="156" y="503"/>
			<point x="53" y="406"/>
			<point x="53" y="254" type="curve" smooth="yes"/>
			<point x="53" y="106"/>
			<point x="138" y="9"/>
			<point x="263" y="9" type="curve" smooth="yes"/>
			<point x="316" y="9"/>
			<point x="371" y="34"/>
			<point x="406" y="70" type="curve"/>
			<point x="410" y="70" type="line"/>
			<point x="406" y="-10" type="line" smooth="yes"/>
			<point x="402" y="-72"/>
			<point x="358" y="-115"/>
			<point x="275" y="-115" type="curve" smooth="yes"/>
			<point x="230" y="-115"/>
			<point x="174" y="-103"/>
			<point x="126" y="-74" type="curve"/>
			<point x="86" y="-154" type="line"/>
			<point x="142" y="-190"/>
			<point x="216" y="-206"/>
		</contour>
		<contour>
			<point x="291" y="103" type="curve" smooth="yes"/>
			<point x="218" y="103"/>
			<point x="170" y="160"/>
			<point x="170" y="255" type="curve" smooth="yes"/>
			<point x="170" y="349"/>
			<point x="230" y="408"/>
			<point x="296" y="408" type="curve" smooth="yes"/>
			<point x="333" y="408"/>
			<point x="367" y="396"/>
			<point x="402" y="363" type="curve"/>
			<point x="402" y="163" type="line"/>
			<point x="368" y="121"/>
			<point x="330" y="103"/>
		</contour>
		<contour>
			<point name="aboveLC" x="310" y="512" type="move"/>
		</contour>
		<contour>
			<point name="belowLC" x="296" y="-212" type="move"/>
		</contour>
	</outline>
</glyph>
<glyph name="gsmall" format="2">
	<unicode hex="0262"/>
	<advance width="600"/>
	<outline>
		<contour>
			<point x="338" y="-12" type="curve" smooth="yes"/>
			<point x="415" y="-12"/>
			<point x="487" y="17"/>
			<point x="529" y="56" type="curve"/>
			<point x="529" y="280" type="line"/>
			<point x="317" y="280" type="line"/>
			<point x="317" y="201" type="line"/>
			<point x="430" y="201" type="line"/>
			<point x="430" y="104" type="line"/>
			<point x="406" y="87"/>
			<point x="377" y="77"/>
			<point x="342" y="77" type="curve" smooth="yes"/>
			<point x="253" y="77"/>
			<point x="188" y="139"/>
			<point x="188" y="244" type="curve" smooth="yes"/>
			<point x="188" y="357"/>
			<point x="264" y="414"/>
			<point x="350" y="414" type="curve" smooth="yes"/>
			<point x="408" y="414"/>
			<point x="439" y="393"/>
			<point x="474" y="365" type="curve"/>
			<point x="528" y="435" type="line"/>
			<point x="484" y="472"/>
			<point x="431" y="503"/>
			<point x="342" y="503" type="curve" smooth="yes"/>
			<point x="200" y="503"/>
			<point x="71" y="408"/>
			<point x="71" y="244" type="curve" smooth="yes"/>
			<point x="71" y="74"/>
			<point x="193" y="-12"/>
		</contour>
	</outline>
	<anchor name="aboveLC" x="336" y="512"/>
	<anchor name="belowLC" x="324" y="-20"/>
</glyph>
<glyph name="hhook" format="1">
	<unicode hex="0266"/>
	<advance width="600"/>
	<outline>
		<contour>
			<point x="82" y="0" type="line"/>
			<point x="198" y="0" type="line"/>
			<point x="198" y="323" type="line"/>
			<point x="243" y="369"/>
			<point x="276" y="392"/>
			<point x="324" y="392" type="curve" smooth="yes"/>
			<point x="391" y="392"/>
			<point x="416" y="356"/>
			<point x="416" y="277" type="curve" smooth="yes"/>
			<point x="416" y="0" type="line"/>
			<point x="532" y="0" type="line"/>
			<point x="532" y="292" type="line" smooth="yes"/>
			<point x="532" y="419"/>
			<point x="480" y="491"/>
			<point x="367" y="491" type="curve" smooth="yes"/>
			<point x="292" y="491"/>
			<point x="237" y="452"/>
			<point x="194" y="407" type="curve"/>
			<point x="190" y="407" type="line"/>
			<point x="198" y="525" type="line"/>
			<point x="202" y="592"/>
			<point x="231" y="627"/>
			<point x="295" y="627" type="curve" smooth="yes"/>
			<point x="316" y="627"/>
			<point x="339" y="621"/>
			<point x="361" y="612" type="curve"/>
			<point x="384" y="698" type="line"/>
			<point x="359" y="708"/>
			<point x="321" y="718"/>
			<point x="280" y="718" type="curve" smooth="yes"/>
			<point x="142" y="718"/>
			<point x="82" y="631"/>
			<point x="82" y="518" type="curve"/>
		</contour>
		<contour>
			<point name="aboveUC" x="278" y="734" type="move"/>
		</contour>
		<contour>
			<point name="belowLC" x="313" y="-20" type="move"/>
		</contour>
	</outline>
</glyph>
<glyph name="ismall" format="2">
	<unicode hex="026A"/>
	<advance width="600"/>
	<outline>
		<contour>
			<point x="82" y="0" type="line"/>
			<point x="518" y="0" type="line"/>
			<point x="518" y="92" type="line"/>
			<point x="357" y="92" type="line"/>
			<point x="357" y="400" type="line"/>
			<point x="518" y="400" type="line"/>
			<point x="518" y="491" type="line"/>
			<point x="82" y="491" type="line"/>
			<point x="82" y="400" type="line"/>
			<point x="242" y="400" type="line"/>
			<point x="242" y="92" type="line"/>
			<point x="82" y="92" type="line"/>
		</contour>
	</outline>
	<anchor name="aboveLC" x="300" y="512"/>
	<anchor name="belowLC" x="300" y="-20"/>
</glyph>
<glyph name="lmiddletilde" format="1">
	<unicode hex="026B"/>
	<advance width="600"/>
	<outline>
		<component base="l"/>
		<component base="tildeoverlaycmb" xOffset="-17" yOffset="130"/>
		<contour>
			<point name="aboveUC" x="280" y="734" type="move"/>
		</contour>
		<contour>
			<point name="belowLC" x="376" y="-20" type="move"/>
		</contour>
	</outline>
</glyph>
<glyph name="lbelt" format="1">
	<unicode hex="026C"/>
	<advance width="600"/>
	<outline>
		<contour>
			<point x="214" y="287" type="curve" smooth="yes"/>
			<point x="476" y="287" type="line"/>
			<point x="476" y="357" type="line"/>
			<point x="197" y="357" type="line" smooth="yes"/>
			<point x="153" y="357"/>
			<point x="132" y="371"/>
			<point x="132" y="393" type="curve" smooth="yes"/>
			<point x="132" y="411"/>
			<point x="145" y="423"/>
			<point x="163" y="423" type="curve" smooth="yes"/>
			<point x="208" y="423"/>
			<point x="226" y="390"/>
			<point x="226" y="364" type="curve"/>
			<point x="270" y="346" type="line"/>
			<point x="270" y="387"/>
			<point x="253" y="488"/>
			<point x="156" y="488" type="curve" smooth="yes"/>
			<point x="99" y="488"/>
			<point x="58" y="449"/>
			<point x="58" y="395" type="curve" smooth="yes"/>
			<point x="58" y="333"/>
			<point x="103" y="287"/>
		</contour>
		<component base="l"/>
		<contour>
			<point name="aboveUC" x="279" y="734" type="move"/>
		</contour>
		<contour>
			<point name="belowLC" x="376" y="-20" type="move"/>
		</contour>
	</outline>
</glyph>
<glyph name="lretroflex" format="1">
	<unicode hex="026D"/>
	<advance width="600"/>
	<outline>
		<contour>
			<point x="401" y="-185" type="curve" smooth="yes"/>
			<point x="458" y="-185"/>
			<point x="493" y="-173"/>
			<point x="540" y="-157" type="curve"/>
			<point x="513" y="-72" type="line"/>
			<point x="480" y="-85"/>
			<point x="454" y="-91"/>
			<point x="429" y="-91" type="curve" smooth="yes"/>
			<point x="379" y="-91"/>
			<point x="341" y="-66"/>
			<point x="341" y="0" type="curve" smooth="yes"/>
			<point x="341" y="706" type="line"/>
			<point x="62" y="706" type="line"/>
			<point x="62" y="615" type="line"/>
			<point x="226" y="615" type="line"/>
			<point x="226" y="6" type="line" smooth="yes"/>
			<point x="226" y="-115"/>
			<point x="286" y="-185"/>
		</contour>
		<contour>
			<point name="aboveUC" x="280" y="734" type="move"/>
		</contour>
		<contour>
			<point name="belowLC" x="376" y="-212" type="move"/>
		</contour>
	</outline>
</glyph>
<glyph name="mhook" format="1">
	<unicode hex="0271"/>
	<advance width="600"/>
	<outline>
		<contour>
			<point x="429" y="-185" type="curve" smooth="yes"/>
			<point x="530" y="-185"/>
			<point x="566" y="-117"/>
			<point x="566" y="-22" type="curve"/>
			<point x="566" y="348" type="line" smooth="yes"/>
			<point x="566" y="446"/>
			<point x="525" y="503"/>
			<point x="457" y="503" type="curve" smooth="yes"/>
			<point x="401" y="503"/>
			<point x="368" y="469"/>
			<point x="345" y="421" type="curve"/>
			<point x="332" y="475"/>
			<point x="301" y="503"/>
			<point x="256" y="503" type="curve" smooth="yes"/>
			<point x="199" y="503"/>
			<point x="169" y="471"/>
			<point x="147" y="428" type="curve"/>
			<point x="144" y="428" type="line"/>
			<point x="135" y="491" type="line"/>
			<point x="46" y="491" type="line"/>
			<point x="46" y="0" type="line"/>
			<point x="158" y="0" type="line"/>
			<point x="158" y="343" type="line"/>
			<point x="176" y="384"/>
			<point x="193" y="405"/>
			<point x="219" y="405" type="curve" smooth="yes"/>
			<point x="247" y="405"/>
			<point x="258" y="383"/>
			<point x="258" y="340" type="curve" smooth="yes"/>
			<point x="258" y="0" type="line"/>
			<point x="354" y="0" type="line"/>
			<point x="354" y="343" type="line"/>
			<point x="374" y="384"/>
			<point x="389" y="405"/>
			<point x="416" y="405" type="curve" smooth="yes"/>
			<point x="443" y="405"/>
			<point x="455" y="383"/>
			<point x="455" y="340" type="curve" smooth="yes"/>
			<point x="455" y="-18" type="line"/>
			<point x="455" y="-66"/>
			<point x="448" y="-93"/>
			<point x="414" y="-93" type="curve" smooth="yes"/>
			<point x="401" y="-93"/>
			<point x="389" y="-90"/>
			<point x="379" y="-87" type="curve"/>
			<point x="358" y="-173" type="line"/>
			<point x="375" y="-180"/>
			<point x="399" y="-185"/>
		</contour>
		<contour>
			<point name="aboveLC" x="306" y="512" type="move"/>
		</contour>
		<contour>
			<point name="belowLC" x="306" y="-212" type="move"/>
		</contour>
	</outline>
</glyph>
<glyph name="nsmall" format="1">
	<unicode hex="0274"/>
	<advance width="600"/>
	<outline>
		<contour>
			<point x="85" y="0" type="line"/>
			<point x="193" y="0" type="line"/>
			<point x="193" y="169" type="line" smooth="yes"/>
			<point x="193" y="220"/>
			<point x="188" y="283"/>
			<point x="183" y="346" type="curve"/>
			<point x="187" y="346" type="line"/>
			<point x="204" y="315"/>
			<point x="229" y="270"/>
			<point x="248" y="242" type="curve" smooth="yes"/>
			<point x="407" y="0" type="line"/>
			<point x="515" y="0" type="line"/>
			<point x="515" y="491" type="line"/>
			<point x="407" y="491" type="line"/>
			<point x="407" y="322" type="line" smooth="yes"/>
			<point x="407" y="271"/>
			<point x="412" y="207"/>
			<point x="417" y="146" type="curve"/>
			<point x="413" y="146" type="line"/>
			<point x="395" y="176"/>
			<point x="371" y="220"/>
			<point x="352" y="250" type="curve" smooth="yes"/>
			<point x="193" y="491" type="line"/>
			<point x="85" y="491" type="line"/>
		</contour>
		<contour>
			<point name="aboveLC" x="308" y="512" type="move"/>
		</contour>
		<contour>
			<point name="belowLC" x="303" y="-20" type="move"/>
		</contour>
	</outline>
</glyph>
<glyph name="oesmall" format="1">
	<unicode hex="0276"/>
	<advance width="600"/>
	<outline>
		<contour>
			<point x="239" y="-12" type="curve" smooth="yes"/>
			<point x="274" y="-12"/>
			<point x="302" y="-9"/>
			<point x="341" y="0" type="curve"/>
			<point x="590" y="0" type="line"/>
			<point x="590" y="92" type="line"/>
			<point x="406" y="92" type="line"/>
			<point x="406" y="212" type="line"/>
			<point x="547" y="212" type="line"/>
			<point x="547" y="294" type="line"/>
			<point x="406" y="294" type="line"/>
			<point x="406" y="399" type="line"/>
			<point x="580" y="399" type="line"/>
			<point x="580" y="491" type="line"/>
			<point x="341" y="491" type="line"/>
			<point x="299" y="501"/>
			<point x="274" y="503"/>
			<point x="239" y="503" type="curve" smooth="yes"/>
			<point x="127" y="503"/>
			<point x="26" y="416"/>
			<point x="26" y="245" type="curve" smooth="yes"/>
			<point x="26" y="73"/>
			<point x="127" y="-12"/>
		</contour>
		<contour>
			<point x="250" y="80" type="curve" smooth="yes"/>
			<point x="192" y="80"/>
			<point x="144" y="126"/>
			<point x="144" y="245" type="curve" smooth="yes"/>
			<point x="144" y="359"/>
			<point x="192" y="409"/>
			<point x="250" y="409" type="curve" smooth="yes"/>
			<point x="267" y="409"/>
			<point x="287" y="405"/>
			<point x="303" y="400" type="curve"/>
			<point x="303" y="89" type="line"/>
			<point x="286" y="84"/>
			<point x="266" y="80"/>
		</contour>
		<contour>
			<point name="aboveLC" x="356" y="512" type="move"/>
		</contour>
		<contour>
			<point name="belowLC" x="350" y="-20" type="move"/>
		</contour>
	</outline>
</glyph>
<glyph name="rlonglegturned" format="1">
	<unicode hex="027A"/>
	<advance width="600"/>
	<outline>
		<contour>
			<point x="153" y="-12" type="curve" smooth="yes"/>
			<point x="238" y="-12"/>
			<point x="312" y="32"/>
			<point x="362" y="112" type="curve"/>
			<point x="365" y="112" type="line"/>
			<point x="375" y="0" type="line"/>
			<point x="470" y="0" type="line"/>
			<point x="470" y="706" type="line"/>
			<point x="354" y="706" type="line"/>
			<point x="354" y="220" type="line"/>
			<point x="304" y="125"/>
			<point x="238" y="90"/>
			<point x="171" y="90" type="curve" smooth="yes"/>
			<point x="134" y="90"/>
			<point x="114" y="95"/>
			<point x="82" y="106" type="curve"/>
			<point x="58" y="8" type="line"/>
			<point x="87" y="-6"/>
			<point x="113" y="-12"/>
		</contour>
		<contour>
			<point name="aboveUC" x="410" y="734" type="move"/>
		</contour>
		<contour>
			<point name="belowLC" x="278" y="-20" type="move"/>
		</contour>
	</outline>
</glyph>
<glyph name="rsmall" format="2">
	<unicode hex="0280"/>
	<advance width="600"/>
	<outline>
		<contour>
			<point x="86" y="0" type="line"/>
			<point x="202" y="0" type="line"/>
			<point x="202" y="175" type="line"/>
			<point x="334" y="175" type="line"/>
			<point x="427" y="175"/>
			<point x="527" y="221"/>
			<point x="527" y="337" type="curve" smooth="yes"/>
			<point x="527" y="452"/>
			<point x="442" y="491"/>
			<point x="332" y="491" type="curve" smooth="yes"/>
			<point x="86" y="491" type="line"/>
		</contour>
		<contour>
			<point x="202" y="258" type="line"/>
			<point x="202" y="404" type="line"/>
			<point x="316" y="404" type="line" smooth="yes"/>
			<point x="379" y="404"/>
			<point x="413" y="383"/>
			<point x="413" y="334" type="curve" smooth="yes"/>
			<point x="413" y="285"/>
			<point x="379" y="258"/>
			<point x="316" y="258" type="curve" smooth="yes"/>
		</contour>
		<contour>
			<point x="426" y="0" type="line"/>
			<point x="556" y="0" type="line"/>
			<point x="382" y="237" type="line"/>
			<point x="283" y="205" type="line"/>
		</contour>
	</outline>
</glyph>
<glyph name="shook" format="1">
	<unicode hex="0282"/>
	<advance width="600"/>
	<outline>
		<contour>
			<point x="206" y="-185" type="curve" smooth="yes"/>
			<point x="241" y="-185"/>
			<point x="266" y="-179"/>
			<point x="285" y="-172" type="curve"/>
			<point x="264" y="-88" type="line"/>
			<point x="251" y="-92"/>
			<point x="237" y="-96"/>
			<point x="222" y="-96" type="curve" smooth="yes"/>
			<point x="178" y="-96"/>
			<point x="164" y="-68"/>
			<point x="164" y="-21" type="curve"/>
			<point x="164" y="51" type="line"/>
			<point x="62" y="64" type="line"/>
			<point x="62" y="-4" type="line" smooth="yes"/>
			<point x="62" y="-120"/>
			<point x="102" y="-185"/>
		</contour>
		<component base="s"/>
		<contour>
			<point name="aboveLC" x="308" y="512" type="move"/>
		</contour>
		<contour>
			<point name="belowLC" x="310" y="-212" type="move"/>
		</contour>
	</outline>
</glyph>
<glyph name="esh" format="1">
	<unicode hex="0283"/>
	<advance width="600"/>
	<outline>
		<contour>
			<point x="186" y="-206" type="curve" smooth="yes"/>
			<point x="316" y="-206"/>
			<point x="359" y="-124"/>
			<point x="359" y="-9" type="curve" smooth="yes"/>
			<point x="359" y="524" type="line" smooth="yes"/>
			<point x="359" y="590"/>
			<point x="378" y="628"/>
			<point x="444" y="628" type="curve" smooth="yes"/>
			<point x="471" y="628"/>
			<point x="493" y="619"/>
			<point x="521" y="606" type="curve"/>
			<point x="551" y="690" type="line"/>
			<point x="516" y="705"/>
			<point x="482" y="719"/>
			<point x="428" y="719" type="curve" smooth="yes"/>
			<point x="291" y="719"/>
			<point x="244" y="637"/>
			<point x="244" y="522" type="curve" smooth="yes"/>
			<point x="244" y="-11" type="line" smooth="yes"/>
			<point x="244" y="-77"/>
			<point x="228" y="-115"/>
			<point x="170" y="-115" type="curve" smooth="yes"/>
			<point x="140" y="-115"/>
			<point x="112" y="-105"/>
			<point x="84" y="-92" type="curve"/>
			<point x="49" y="-174" type="line"/>
			<point x="87" y="-192"/>
			<point x="126" y="-206"/>
		</contour>
		<contour>
			<point name="aboveUC" x="376" y="734" type="move"/>
		</contour>
		<contour>
			<point name="belowLC" x="242" y="-212" type="move"/>
		</contour>
	</outline>
</glyph>
<glyph name="dotlessjstrokehook" format="2">
	<unicode hex="0284"/>
	<advance width="600"/>
	<outline>
		<contour>
			<point x="83" y="221" type="line"/>
			<point x="520" y="221" type="line"/>
			<point x="520" y="291" type="line"/>
			<point x="247" y="291" type="line"/>
			<point x="83" y="285" type="line"/>
		</contour>
		<component base="esh"/>
	</outline>
</glyph>
<glyph name="clickbilabial" format="1">
	<unicode hex="0298"/>
	<advance width="600"/>
	<outline>
		<contour>
			<point x="300" y="-12" type="curve" smooth="yes"/>
			<point x="446" y="-12"/>
			<point x="547" y="105"/>
			<point x="547" y="356" type="curve" smooth="yes"/>
			<point x="547" y="596"/>
			<point x="446" y="718"/>
			<point x="300" y="718" type="curve" smooth="yes"/>
			<point x="154" y="718"/>
			<point x="53" y="597"/>
			<point x="53" y="356" type="curve" smooth="yes"/>
			<point x="53" y="105"/>
			<point x="154" y="-12"/>
		</contour>
		<contour>
			<point x="300" y="82" type="curve" smooth="yes"/>
			<point x="224" y="82"/>
			<point x="161" y="150"/>
			<point x="161" y="356" type="curve" smooth="yes"/>
			<point x="161" y="549"/>
			<point x="224" y="624"/>
			<point x="300" y="624" type="curve" smooth="yes"/>
			<point x="376" y="624"/>
			<point x="440" y="549"/>
			<point x="440" y="356" type="curve" smooth="yes"/>
			<point x="440" y="150"/>
			<point x="376" y="82"/>
		</contour>
		<contour>
			<point x="300" y="289" type="curve" smooth="yes"/>
			<point x="336" y="289"/>
			<point x="367" y="317"/>
			<point x="367" y="356" type="curve" smooth="yes"/>
			<point x="367" y="396"/>
			<point x="336" y="425"/>
			<point x="300" y="425" type="curve" smooth="yes"/>
			<point x="264" y="425"/>
			<point x="233" y="396"/>
			<point x="233" y="356" type="curve" smooth="yes"/>
			<point x="233" y="317"/>
			<point x="264" y="289"/>
		</contour>
	</outline>
</glyph>
<glyph name="kturned" format="1">
	<unicode hex="029E"/>
	<advance width="600"/>
	<outline>
		<contour>
			<point x="394" y="-194" type="line"/>
			<point x="510" y="-194" type="line"/>
			<point x="510" y="491" type="line"/>
			<point x="394" y="491" type="line"/>
			<point x="394" y="363" type="line"/>
			<point x="21" y="0" type="line"/>
			<point x="157" y="0" type="line"/>
			<point x="390" y="228" type="line"/>
			<point x="394" y="228" type="line"/>
		</contour>
		<contour>
			<point x="254" y="177" type="line"/>
			<point x="319" y="250" type="line"/>
			<point x="160" y="491" type="line"/>
			<point x="42" y="491" type="line"/>
		</contour>
		<contour>
			<point name="aboveLC" x="290" y="512" type="move"/>
		</contour>
		<contour>
			<point name="belowLC" x="450" y="-212" type="move"/>
		</contour>
	</outline>
</glyph>
<glyph name="lsmall" format="1">
	<unicode hex="029F"/>
	<advance width="600"/>
	<outline>
		<contour>
			<point x="134" y="0" type="line"/>
			<point x="534" y="0" type="line"/>
			<point x="534" y="92" type="line"/>
			<point x="249" y="92" type="line"/>
			<point x="249" y="491" type="line"/>
			<point x="134" y="491" type="line"/>
		</contour>
		<contour>
			<point name="aboveLC" x="192" y="512" type="move"/>
		</contour>
		<contour>
			<point name="belowLC" x="338" y="-20" type="move"/>
		</contour>
	</outline>
</glyph>
<glyph name="glottalstopstroke" format="2">
	<unicode hex="02A1"/>
	<advance width="600"/>
	<outline>
		<contour>
			<point x="222" y="0" type="line"/>
			<point x="337" y="0" type="line"/>
			<point x="337" y="245" type="line"/>
			<point x="529" y="245" type="line"/>
			<point x="529" y="314" type="line"/>
			<point x="387" y="314" type="line"/>
			<point x="457" y="365"/>
			<point x="519" y="428"/>
			<point x="519" y="513" type="curve" smooth="yes"/>
			<point x="519" y="649"/>
			<point x="413" y="718"/>
			<point x="285" y="718" type="curve" smooth="yes"/>
			<point x="180" y="718"/>
			<point x="107" y="672"/>
			<point x="60" y="622" type="curve"/>
			<point x="119" y="549" type="line"/>
			<point x="155" y="588"/>
			<point x="206" y="624"/>
			<point x="274" y="624" type="curve" smooth="yes"/>
			<point x="355" y="624"/>
			<point x="403" y="581"/>
			<point x="403" y="509" type="curve" smooth="yes"/>
			<point x="403" y="442"/>
			<point x="346" y="377"/>
			<point x="237" y="314" type="curve"/>
			<point x="140" y="314" type="line"/>
			<point x="64" y="309" type="line"/>
			<point x="64" y="245" type="line"/>
			<point x="222" y="245" type="line"/>
		</contour>
	</outline>
</glyph>
<glyph name="glottalstopstrokereversed" format="2">
	<unicode hex="02A2"/>
	<advance width="600"/>
	<outline>
		<contour>
			<point x="262" y="0" type="line"/>
			<point x="377" y="0" type="line"/>
			<point x="377" y="245" type="line"/>
			<point x="535" y="245" type="line"/>
			<point x="535" y="314" type="line"/>
			<point x="361" y="314" type="line"/>
			<point x="253" y="377"/>
			<point x="195" y="442"/>
			<point x="195" y="509" type="curve" smooth="yes"/>
			<point x="195" y="581"/>
			<point x="244" y="624"/>
			<point x="325" y="624" type="curve" smooth="yes"/>
			<point x="392" y="624"/>
			<point x="443" y="588"/>
			<point x="479" y="549" type="curve"/>
			<point x="538" y="622" type="line"/>
			<point x="491" y="672"/>
			<point x="419" y="718"/>
			<point x="313" y="718" type="curve" smooth="yes"/>
			<point x="185" y="718"/>
			<point x="80" y="649"/>
			<point x="80" y="513" type="curve" smooth="yes"/>
			<point x="80" y="428"/>
			<point x="141" y="365"/>
			<point x="211" y="314" type="curve"/>
			<point x="146" y="314" type="line"/>
			<point x="70" y="309" type="line"/>
			<point x="70" y="245" type="line"/>
			<point x="262" y="245" type="line"/>
		</contour>
	</outline>
</glyph>
<glyph name="tesh" format="1">
	<unicode hex="02A7"/>
	<advance width="600"/>
	<outline>
		<contour>
			<point x="248" y="-12" type="curve" smooth="yes"/>
			<point x="287" y="-12"/>
			<point x="320" y="-3"/>
			<point x="346" y="6" type="curve"/>
			<point x="327" y="91" type="line"/>
			<point x="310" y="84"/>
			<point x="291" y="80"/>
			<point x="272" y="80" type="curve" smooth="yes"/>
			<point x="231" y="80"/>
			<point x="212" y="108"/>
			<point x="212" y="166" type="curve" smooth="yes"/>
			<point x="212" y="400" type="line"/>
			<point x="433" y="400" type="line"/>
			<point x="433" y="491" type="line"/>
			<point x="212" y="491" type="line"/>
			<point x="212" y="645" type="line"/>
			<point x="116" y="645" type="line"/>
			<point x="102" y="491" type="line"/>
			<point x="27" y="486" type="line"/>
			<point x="27" y="400" type="line"/>
			<point x="97" y="400" type="line"/>
			<point x="97" y="166" type="line" smooth="yes"/>
			<point x="97" y="60"/>
			<point x="138" y="-12"/>
		</contour>
		<contour>
			<point x="362" y="-206" type="curve" smooth="yes"/>
			<point x="473" y="-206"/>
			<point x="514" y="-129"/>
			<point x="514" y="-25" type="curve" smooth="yes"/>
			<point x="514" y="540" type="line" smooth="yes"/>
			<point x="514" y="597"/>
			<point x="527" y="628"/>
			<point x="574" y="628" type="curve" smooth="yes"/>
			<point x="586" y="628"/>
			<point x="596" y="624"/>
			<point x="606" y="620" type="curve"/>
			<point x="628" y="706" type="line"/>
			<point x="611" y="713"/>
			<point x="590" y="719"/>
			<point x="560" y="719" type="curve" smooth="yes"/>
			<point x="441" y="719"/>
			<point x="398" y="642"/>
			<point x="398" y="543" type="curve" smooth="yes"/>
			<point x="398" y="-27" type="line"/>
			<point x="398" y="-84"/>
			<point x="387" y="-115"/>
			<point x="348" y="-115" type="curve" smooth="yes"/>
			<point x="333" y="-115"/>
			<point x="319" y="-111"/>
			<point x="306" y="-107" type="curve"/>
			<point x="284" y="-193" type="line"/>
			<point x="302" y="-200"/>
			<point x="327" y="-206"/>
		</contour>
		<contour>
			<point name="aboveUC" x="279" y="730" type="move"/>
		</contour>
		<contour>
			<point name="belowLC" x="331" y="-212" type="move"/>
		</contour>
	</outline>
</glyph>
<glyph name="ringhalfrightmod" format="1">
	<unicode hex="02BE"/>
	<advance width="600"/>
	<outline>
		<contour>
			<point x="224" y="538" type="line"/>
			<point x="356" y="534"/>
			<point x="416" y="593"/>
			<point x="416" y="684" type="curve" smooth="yes"/>
			<point x="416" y="774"/>
			<point x="356" y="833"/>
			<point x="224" y="829" type="curve"/>
			<point x="224" y="765" type="line"/>
			<point x="294" y="765"/>
			<point x="330" y="735"/>
			<point x="330" y="684" type="curve" smooth="yes"/>
			<point x="330" y="632"/>
			<point x="294" y="602"/>
			<point x="224" y="602" type="curve"/>
		</contour>
	</outline>
</glyph>
<glyph name="ringhalfleftmod" format="2">
	<unicode hex="02BF"/>
	<advance width="600"/>
	<outline>
		<contour>
			<point x="376" y="538" type="curve"/>
			<point x="376" y="602" type="line"/>
			<point x="306" y="602"/>
			<point x="270" y="632"/>
			<point x="270" y="684" type="curve" smooth="yes"/>
			<point x="270" y="735"/>
			<point x="306" y="765"/>
			<point x="376" y="765" type="curve"/>
			<point x="376" y="829" type="line"/>
			<point x="244" y="833"/>
			<point x="184" y="774"/>
			<point x="184" y="684" type="curve" smooth="yes"/>
			<point x="184" y="593"/>
			<point x="244" y="534"/>
		</contour>
	</outline>
</glyph>
<glyph name="glottalstopreversedmod" format="1">
	<unicode hex="02C1"/>
	<advance width="600"/>
	<outline>
		<contour>
			<point x="271" y="445" type="line"/>
			<point x="355" y="445" type="line"/>
			<point x="355" y="562" type="line"/>
			<point x="273" y="608"/>
			<point x="238" y="644"/>
			<point x="238" y="693" type="curve" smooth="yes"/>
			<point x="238" y="737"/>
			<point x="273" y="762"/>
			<point x="323" y="762" type="curve" smooth="yes"/>
			<point x="362" y="762"/>
			<point x="391" y="742"/>
			<point x="415" y="718" type="curve"/>
			<point x="458" y="770" type="line"/>
			<point x="427" y="803"/>
			<point x="381" y="830"/>
			<point x="316" y="830" type="curve" smooth="yes"/>
			<point x="229" y="830"/>
			<point x="153" y="784"/>
			<point x="153" y="696" type="curve" smooth="yes"/>
			<point x="153" y="620"/>
			<point x="205" y="576"/>
			<point x="271" y="530" type="curve"/>
		</contour>
	</outline>
</glyph>
<glyph name="colontriangularmod" format="1">
	<unicode hex="02D0"/>
	<advance width="600"/>
	<outline>
		<contour>
			<point x="183" y="0" type="line"/>
			<point x="417" y="0" type="line"/>
			<point x="306" y="190" type="line"/>
			<point x="294" y="190" type="line"/>
		</contour>
		<contour>
			<point x="294" y="329" type="line"/>
			<point x="306" y="329" type="line"/>
			<point x="417" y="519" type="line"/>
			<point x="183" y="519" type="line"/>
		</contour>
	</outline>
</glyph>
<glyph name="gammalatinsupmod" format="1">
	<unicode hex="02E0"/>
	<advance width="600"/>
	<outline>
		<contour>
			<point x="254" y="419" type="line"/>
			<point x="349" y="419" type="line"/>
			<point x="462" y="710" type="line"/>
			<point x="381" y="710" type="line"/>
			<point x="331" y="561" type="line"/>
			<point x="322" y="532"/>
			<point x="312" y="510"/>
			<point x="303" y="481" type="curve"/>
			<point x="300" y="481" type="line"/>
			<point x="292" y="510"/>
			<point x="282" y="532"/>
			<point x="273" y="561" type="curve"/>
			<point x="223" y="710" type="line"/>
			<point x="138" y="710" type="line"/>
		</contour>
		<contour>
			<point x="302" y="243" type="curve" smooth="yes"/>
			<point x="361" y="243"/>
			<point x="395" y="278"/>
			<point x="395" y="332" type="curve" smooth="yes"/>
			<point x="395" y="369"/>
			<point x="376" y="399"/>
			<point x="342" y="458" type="curve"/>
			<point x="261" y="458" type="line"/>
			<point x="228" y="399"/>
			<point x="208" y="369"/>
			<point x="208" y="332" type="curve" smooth="yes"/>
			<point x="208" y="278"/>
			<point x="244" y="243"/>
		</contour>
		<contour>
			<point x="302" y="296" type="curve" smooth="yes"/>
			<point x="286" y="296"/>
			<point x="276" y="308"/>
			<point x="276" y="325" type="curve" smooth="yes"/>
			<point x="276" y="345"/>
			<point x="285" y="369"/>
			<point x="300" y="398" type="curve"/>
			<point x="303" y="398" type="line"/>
			<point x="319" y="369"/>
			<point x="327" y="345"/>
			<point x="327" y="325" type="curve" smooth="yes"/>
			<point x="327" y="308"/>
			<point x="318" y="296"/>
		</contour>
	</outline>
</glyph>
<glyph name="l.sups" format="2">
	<unicode hex="02E1"/>
	<advance width="600"/>
	<outline>
		<contour>
			<point x="379" y="377" type="curve" smooth="yes"/>
			<point x="414" y="377"/>
			<point x="434" y="383"/>
			<point x="462" y="390" type="curve"/>
			<point x="447" y="455" type="line"/>
			<point x="428" y="448"/>
			<point x="415" y="444"/>
			<point x="401" y="444" type="curve" smooth="yes"/>
			<point x="367" y="444"/>
			<point x="348" y="459"/>
			<point x="348" y="500" type="curve" smooth="yes"/>
			<point x="348" y="854" type="line"/>
			<point x="188" y="854" type="line"/>
			<point x="188" y="788" type="line"/>
			<point x="264" y="788" type="line"/>
			<point x="264" y="504" type="line" smooth="yes"/>
			<point x="264" y="425"/>
			<point x="299" y="377"/>
		</contour>
	</outline>
</glyph>
<glyph name="gravecmb" format="1">
	<unicode hex="0300"/>
	<advance width="600"/>
	<outline>
		<contour>
			<point x="314" y="564" type="line"/>
			<point x="371" y="621" type="line"/>
			<point x="224" y="796" type="line"/>
			<point x="144" y="719" type="line"/>
		</contour>
		<contour>
			<point name="_aboveLC" x="300" y="512" type="move"/>
		</contour>
		<contour>
			<point name="aboveLC" x="300" y="692" type="move"/>
		</contour>
	</outline>
</glyph>
<glyph name="acutecmb" format="1">
	<unicode hex="0301"/>
	<advance width="600"/>
	<outline>
		<contour>
			<point x="286" y="564" type="line"/>
			<point x="456" y="719" type="line"/>
			<point x="376" y="796" type="line"/>
			<point x="229" y="621" type="line"/>
		</contour>
		<contour>
			<point name="_aboveLC" x="300" y="512" type="move"/>
		</contour>
		<contour>
			<point name="aboveLC" x="300" y="692" type="move"/>
		</contour>
	</outline>
</glyph>
<glyph name="circumflexcmb" format="1">
	<unicode hex="0302"/>
	<advance width="600"/>
	<outline>
		<contour>
			<point x="176" y="564" type="line"/>
			<point x="298" y="667" type="line"/>
			<point x="302" y="667" type="line"/>
			<point x="424" y="564" type="line"/>
			<point x="469" y="607" type="line"/>
			<point x="358" y="742" type="line"/>
			<point x="242" y="742" type="line"/>
			<point x="131" y="607" type="line"/>
		</contour>
		<contour>
			<point name="_aboveLC" x="300" y="512" type="move"/>
		</contour>
		<contour>
			<point name="aboveLC" x="300" y="735" type="move"/>
		</contour>
	</outline>
</glyph>
<glyph name="macroncmb" format="1">
	<unicode hex="0304"/>
	<advance width="600"/>
	<outline>
		<contour>
			<point x="160" y="596" type="line"/>
			<point x="440" y="596" type="line"/>
			<point x="440" y="672" type="line"/>
			<point x="160" y="672" type="line"/>
		</contour>
		<contour>
			<point name="_aboveLC" x="300" y="512" type="move"/>
		</contour>
		<contour>
			<point name="aboveLC" x="300" y="620" type="move"/>
		</contour>
	</outline>
</glyph>
<glyph name="hoicmb" format="1">
	<unicode hex="0309"/>
	<advance width="600"/>
	<outline>
		<contour>
			<point x="262" y="570" type="line"/>
			<point x="329" y="578"/>
			<point x="389" y="606"/>
			<point x="389" y="669" type="curve" smooth="yes"/>
			<point x="389" y="734"/>
			<point x="339" y="774"/>
			<point x="228" y="777" type="curve"/>
			<point x="221" y="704" type="line"/>
			<point x="278" y="701"/>
			<point x="302" y="686"/>
			<point x="302" y="660" type="curve" smooth="yes"/>
			<point x="302" y="636"/>
			<point x="280" y="626"/>
			<point x="252" y="619" type="curve"/>
		</contour>
		<contour>
			<point name="_aboveLC" x="300" y="512" type="move"/>
		</contour>
		<contour>
			<point name="aboveLC" x="300" y="668" type="move"/>
		</contour>
	</outline>
</glyph>
<glyph name="hungarumlautcmb" format="2">
	<unicode hex="030B"/>
	<advance width="600"/>
	<outline>
		<contour>
			<point x="245" y="566" type="line"/>
			<point x="349" y="735" type="line"/>
			<point x="270" y="771" type="line"/>
			<point x="183" y="594" type="line"/>
		</contour>
		<contour>
			<point x="410" y="566" type="line"/>
			<point x="514" y="735" type="line"/>
			<point x="435" y="771" type="line"/>
			<point x="348" y="594" type="line"/>
		</contour>
	</outline>
	<anchor name="_aboveLC" x="300" y="512"/>
</glyph>
<glyph name="caroncmb" format="1">
	<unicode hex="030C"/>
	<advance width="600"/>
	<outline>
		<contour>
			<point x="242" y="576" type="line"/>
			<point x="358" y="576" type="line"/>
			<point x="469" y="711" type="line"/>
			<point x="424" y="753" type="line"/>
			<point x="302" y="651" type="line"/>
			<point x="298" y="651" type="line"/>
			<point x="176" y="753" type="line"/>
			<point x="131" y="711" type="line"/>
		</contour>
		<contour>
			<point name="_aboveLC" x="300" y="512" type="move"/>
		</contour>
	</outline>
</glyph>
<glyph name="breveinvertedcmb" format="1">
	<unicode hex="0311"/>
	<advance width="600"/>
	<outline>
		<contour>
			<point x="205" y="566" type="line"/>
			<point x="212" y="614"/>
			<point x="241" y="658"/>
			<point x="300" y="658" type="curve" smooth="yes"/>
			<point x="359" y="658"/>
			<point x="388" y="614"/>
			<point x="395" y="566" type="curve"/>
			<point x="463" y="578" type="line"/>
			<point x="458" y="659"/>
			<point x="411" y="732"/>
			<point x="300" y="732" type="curve" smooth="yes"/>
			<point x="189" y="732"/>
			<point x="142" y="659"/>
			<point x="137" y="578" type="curve"/>
		</contour>
		<contour>
			<point name="_aboveLC" x="300" y="512" type="move"/>
		</contour>
	</outline>
</glyph>
<glyph name="lefttackbelowcmb" format="2">
	<unicode hex="0318"/>
	<advance width="600"/>
	<outline>
		<contour>
			<point x="334" y="-253" type="line"/>
			<point x="403" y="-253" type="line"/>
			<point x="403" y="-56" type="line"/>
			<point x="334" y="-56" type="line"/>
			<point x="334" y="-125" type="line"/>
			<point x="218" y="-125" type="line"/>
			<point x="218" y="-184" type="line"/>
			<point x="334" y="-184" type="line"/>
		</contour>
	</outline>
	<anchor name="_belowLC" x="300" y="-20"/>
</glyph>
<glyph name="righttackbelowcmb" format="1">
	<unicode hex="0319"/>
	<advance width="600"/>
	<outline>
		<contour>
			<point x="197" y="-253" type="line"/>
			<point x="266" y="-253" type="line"/>
			<point x="266" y="-184" type="line"/>
			<point x="382" y="-184" type="line"/>
			<point x="382" y="-125" type="line"/>
			<point x="266" y="-125" type="line"/>
			<point x="266" y="-56" type="line"/>
			<point x="197" y="-56" type="line"/>
		</contour>
		<contour>
			<point name="_belowLC" x="300" y="-20" type="move"/>
		</contour>
	</outline>
</glyph>
<glyph name="leftangleabovecmb" format="1">
	<unicode hex="031A"/>
	<advance width="600"/>
	<outline>
		<contour>
			<point x="328" y="573" type="line"/>
			<point x="392" y="573" type="line"/>
			<point x="392" y="719" type="line"/>
			<point x="218" y="719" type="line"/>
			<point x="218" y="660" type="line"/>
			<point x="328" y="660" type="line"/>
		</contour>
		<contour>
			<point name="_aboverightLC" x="300" y="512" type="move"/>
		</contour>
	</outline>
</glyph>
<glyph name="horncmb" format="2">
	<unicode hex="031B"/>
	<advance width="600"/>
	<outline>
		<contour>
			<point x="300" y="430" type="line"/>
			<point x="388" y="439"/>
			<point x="464" y="484"/>
			<point x="464" y="578" type="curve" smooth="yes"/>
			<point x="464" y="613"/>
			<point x="452" y="643"/>
			<point x="438" y="666" type="curve"/>
			<point x="351" y="627" type="line"/>
			<point x="359" y="610"/>
			<point x="366" y="592"/>
			<point x="366" y="570" type="curve" smooth="yes"/>
			<point x="366" y="516"/>
			<point x="338" y="489"/>
			<point x="291" y="480" type="curve"/>
		</contour>
	</outline>
	<anchor name="_hornLC" x="300" y="491"/>
</glyph>
<glyph name="ringhalfleftbelowcmb" format="2">
	<unicode hex="031C"/>
	<advance width="600"/>
	<outline>
		<contour>
			<point x="365" y="-257" type="curve"/>
			<point x="365" y="-212" type="line"/>
			<point x="316" y="-212"/>
			<point x="292" y="-191"/>
			<point x="292" y="-159" type="curve" smooth="yes"/>
			<point x="292" y="-127"/>
			<point x="316" y="-106"/>
			<point x="365" y="-106" type="curve"/>
			<point x="365" y="-60" type="line"/>
			<point x="259" y="-57"/>
			<point x="213" y="-97"/>
			<point x="213" y="-159" type="curve" smooth="yes"/>
			<point x="213" y="-221"/>
			<point x="259" y="-260"/>
		</contour>
	</outline>
	<anchor name="_belowLC" x="300" y="-20"/>
</glyph>
<glyph name="uptackbelowcmb" format="1">
	<unicode hex="031D"/>
	<advance width="600"/>
	<outline>
		<contour>
			<point x="178" y="-220" type="line"/>
			<point x="422" y="-220" type="line"/>
			<point x="422" y="-161" type="line"/>
			<point x="334" y="-161" type="line"/>
			<point x="334" y="-56" type="line"/>
			<point x="266" y="-56" type="line"/>
			<point x="266" y="-161" type="line"/>
			<point x="178" y="-161" type="line"/>
		</contour>
		<contour>
			<point name="_belowLC" x="300" y="-20" type="move"/>
		</contour>
	</outline>
</glyph>
<glyph name="plusbelowcmb" format="1">
	<unicode hex="031F"/>
	<advance width="600"/>
	<outline>
		<contour>
			<point x="266" y="-253" type="line"/>
			<point x="334" y="-253" type="line"/>
			<point x="334" y="-184" type="line"/>
			<point x="422" y="-184" type="line"/>
			<point x="422" y="-125" type="line"/>
			<point x="334" y="-125" type="line"/>
			<point x="334" y="-56" type="line"/>
			<point x="266" y="-56" type="line"/>
			<point x="266" y="-125" type="line"/>
			<point x="178" y="-125" type="line"/>
			<point x="178" y="-184" type="line"/>
			<point x="266" y="-184" type="line"/>
		</contour>
		<contour>
			<point name="_belowLC" x="300" y="-20" type="move"/>
		</contour>
	</outline>
</glyph>
<glyph name="minusbelowcmb" format="1">
	<unicode hex="0320"/>
	<advance width="600"/>
	<outline>
		<contour>
			<point x="178" y="-152" type="line"/>
			<point x="422" y="-152" type="line"/>
			<point x="422" y="-93" type="line"/>
			<point x="178" y="-93" type="line"/>
		</contour>
		<contour>
			<point name="_belowLC" x="300" y="-20" type="move"/>
		</contour>
	</outline>
</glyph>
<glyph name="commabelowcmb" format="1">
	<unicode hex="0326"/>
	<advance width="600"/>
	<outline>
		<contour>
			<point x="206" y="-233" type="line"/>
			<point x="321" y="-228"/>
			<point x="387" y="-198"/>
			<point x="387" y="-135" type="curve" smooth="yes"/>
			<point x="387" y="-88"/>
			<point x="355" y="-64"/>
			<point x="258" y="-55" type="curve"/>
			<point x="234" y="-101" type="line"/>
			<point x="280" y="-105"/>
			<point x="302" y="-117"/>
			<point x="302" y="-140" type="curve" smooth="yes"/>
			<point x="302" y="-165"/>
			<point x="277" y="-178"/>
			<point x="196" y="-183" type="curve"/>
		</contour>
		<contour>
			<point name="_belowLC" x="300" y="-20" type="move"/>
		</contour>
	</outline>
</glyph>
<glyph name="cedillacmb" format="1">
	<unicode hex="0327"/>
	<advance width="600"/>
	<outline>
		<contour>
			<point x="206" y="-233" type="line"/>
			<point x="321" y="-228"/>
			<point x="387" y="-198"/>
			<point x="387" y="-135" type="curve" smooth="yes"/>
			<point x="387" y="-94"/>
			<point x="360" y="-74"/>
			<point x="312" y="-62" type="curve"/>
			<point x="340" y="10" type="line"/>
			<point x="270" y="10" type="line"/>
			<point x="225" y="-91" type="line"/>
			<point x="284" y="-99"/>
			<point x="302" y="-113"/>
			<point x="302" y="-136" type="curve" smooth="yes"/>
			<point x="302" y="-165"/>
			<point x="277" y="-178"/>
			<point x="196" y="-183" type="curve"/>
		</contour>
		<contour>
			<point name="_baseLC" x="300" y="0" type="move"/>
		</contour>
	</outline>
</glyph>
<glyph name="ogonekcmb" format="1">
	<unicode hex="0328"/>
	<advance width="600"/>
	<outline>
		<contour>
			<point x="310" y="-226" type="curve" smooth="yes"/>
			<point x="352" y="-226"/>
			<point x="391" y="-212"/>
			<point x="416" y="-190" type="curve"/>
			<point x="388" y="-138" type="line"/>
			<point x="378" y="-147"/>
			<point x="360" y="-155"/>
			<point x="336" y="-155" type="curve" smooth="yes"/>
			<point x="311" y="-155"/>
			<point x="283" y="-140"/>
			<point x="283" y="-105" type="curve" smooth="yes"/>
			<point x="283" y="-66"/>
			<point x="311" y="-31"/>
			<point x="355" y="3" type="curve"/>
			<point x="284" y="3" type="line"/>
			<point x="251" y="-21"/>
			<point x="203" y="-68"/>
			<point x="203" y="-130" type="curve" smooth="yes"/>
			<point x="203" y="-194"/>
			<point x="250" y="-226"/>
		</contour>
		<contour>
			<point name="_ogonekLC" x="300" y="0" type="move"/>
		</contour>
	</outline>
</glyph>
<glyph name="bridgebelowcmb" format="1">
	<unicode hex="032A"/>
	<advance width="600"/>
	<outline>
		<contour>
			<point x="173" y="-223" type="line"/>
			<point x="235" y="-223" type="line"/>
			<point x="235" y="-139" type="line"/>
			<point x="365" y="-139" type="line"/>
			<point x="365" y="-223" type="line"/>
			<point x="427" y="-223" type="line"/>
			<point x="427" y="-80" type="line"/>
			<point x="173" y="-80" type="line"/>
		</contour>
		<contour>
			<point name="_belowLC" x="300" y="-20" type="move"/>
		</contour>
	</outline>
</glyph>
<glyph name="tildeoverlaycmb" format="1">
	<unicode hex="0334"/>
	<advance width="600"/>
	<outline>
		<contour>
			<point x="405" y="170" type="curve" smooth="yes"/>
			<point x="471" y="170"/>
			<point x="504" y="220"/>
			<point x="508" y="301" type="curve"/>
			<point x="434" y="315" type="line"/>
			<point x="431" y="275"/>
			<point x="418" y="251"/>
			<point x="394" y="251" type="curve" smooth="yes"/>
			<point x="336" y="251"/>
			<point x="290" y="324"/>
			<point x="195" y="324" type="curve" smooth="yes"/>
			<point x="129" y="324"/>
			<point x="96" y="274"/>
			<point x="92" y="193" type="curve"/>
			<point x="166" y="179" type="line"/>
			<point x="169" y="220"/>
			<point x="182" y="243"/>
			<point x="206" y="243" type="curve" smooth="yes"/>
			<point x="264" y="243"/>
			<point x="311" y="170"/>
		</contour>
		<contour>
			<point name="_center" x="300" y="246" type="move"/>
		</contour>
	</outline>
</glyph>
<glyph name="ringhalfrightbelowcmb" format="1">
	<unicode hex="0339"/>
	<advance width="600"/>
	<outline>
		<contour>
			<point x="235" y="-257" type="line"/>
			<point x="341" y="-260"/>
			<point x="387" y="-221"/>
			<point x="387" y="-159" type="curve" smooth="yes"/>
			<point x="387" y="-97"/>
			<point x="341" y="-57"/>
			<point x="235" y="-60" type="curve"/>
			<point x="235" y="-106" type="line"/>
			<point x="284" y="-106"/>
			<point x="308" y="-127"/>
			<point x="308" y="-159" type="curve" smooth="yes"/>
			<point x="308" y="-191"/>
			<point x="284" y="-212"/>
			<point x="235" y="-212" type="curve"/>
		</contour>
		<contour>
			<point name="_belowLC" x="300" y="-20" type="move"/>
		</contour>
	</outline>
</glyph>
<glyph name="squarebelowcmb" format="2">
	<unicode hex="033B"/>
	<advance width="600"/>
	<outline>
		<contour>
			<point x="173" y="-244" type="line"/>
			<point x="427" y="-244" type="line"/>
			<point x="427" y="-72" type="line"/>
			<point x="173" y="-72" type="line"/>
		</contour>
		<contour>
			<point x="235" y="-196" type="line"/>
			<point x="235" y="-118" type="line"/>
			<point x="365" y="-118" type="line"/>
			<point x="365" y="-196" type="line"/>
		</contour>
	</outline>
	<anchor name="_belowLC" x="300" y="-20"/>
</glyph>
<glyph name="seagullbelowcmb" format="1">
	<unicode hex="033C"/>
	<advance width="600"/>
	<outline>
		<contour>
			<point x="187" y="-240" type="line"/>
			<point x="187" y="-168"/>
			<point x="202" y="-151"/>
			<point x="229" y="-151" type="curve" smooth="yes"/>
			<point x="258" y="-151"/>
			<point x="270" y="-176"/>
			<point x="270" y="-218" type="curve" smooth="yes"/>
			<point x="270" y="-238" type="line"/>
			<point x="330" y="-238" type="line"/>
			<point x="330" y="-218" type="line" smooth="yes"/>
			<point x="330" y="-176"/>
			<point x="342" y="-151"/>
			<point x="370" y="-151" type="curve" smooth="yes"/>
			<point x="398" y="-151"/>
			<point x="413" y="-168"/>
			<point x="413" y="-240" type="curve"/>
			<point x="481" y="-232" type="line"/>
			<point x="482" y="-126"/>
			<point x="447" y="-78"/>
			<point x="375" y="-78" type="curve" smooth="yes"/>
			<point x="341" y="-78"/>
			<point x="313" y="-95"/>
			<point x="302" y="-134" type="curve"/>
			<point x="298" y="-134" type="line"/>
			<point x="287" y="-95"/>
			<point x="260" y="-78"/>
			<point x="225" y="-78" type="curve" smooth="yes"/>
			<point x="154" y="-78"/>
			<point x="118" y="-126"/>
			<point x="119" y="-232" type="curve"/>
		</contour>
		<contour>
			<point name="_belowLC" x="300" y="-20" type="move"/>
		</contour>
	</outline>
</glyph>
<glyph name="lownumeralsign" format="1">
	<unicode hex="0375"/>
	<advance width="600"/>
	<outline>
		<contour>
			<point x="221" y="0" type="line"/>
			<point x="335" y="0" type="line"/>
			<point x="356" y="270" type="line"/>
			<point x="280" y="270" type="line"/>
			<point x="240" y="110" type="line"/>
		</contour>
	</outline>
</glyph>
<glyph name="Omegatonos" format="1">
	<unicode hex="038F"/>
	<advance width="600"/>
	<outline>
		<contour>
			<point x="136" y="0" type="line"/>
			<point x="318" y="0" type="line"/>
			<point x="318" y="84" type="line"/>
			<point x="275" y="166"/>
			<point x="256" y="236"/>
			<point x="256" y="348" type="curve" smooth="yes"/>
			<point x="256" y="486"/>
			<point x="291" y="565"/>
			<point x="350" y="565" type="curve" smooth="yes"/>
			<point x="411" y="565"/>
			<point x="445" y="486"/>
			<point x="445" y="348" type="curve" smooth="yes"/>
			<point x="445" y="236"/>
			<point x="426" y="166"/>
			<point x="383" y="84" type="curve"/>
			<point x="383" y="0" type="line"/>
			<point x="565" y="0" type="line"/>
			<point x="565" y="94" type="line"/>
			<point x="475" y="94" type="line"/>
			<point x="475" y="98" type="line"/>
			<point x="523" y="171"/>
			<point x="554" y="252"/>
			<point x="554" y="370" type="curve" smooth="yes"/>
			<point x="554" y="543"/>
			<point x="475" y="666"/>
			<point x="350" y="666" type="curve" smooth="yes"/>
			<point x="226" y="666"/>
			<point x="146" y="543"/>
			<point x="146" y="370" type="curve" smooth="yes"/>
			<point x="146" y="252"/>
			<point x="178" y="171"/>
			<point x="226" y="98" type="curve"/>
			<point x="226" y="94" type="line"/>
			<point x="136" y="94" type="line"/>
		</contour>
		<component base="tonos.cap" xOffset="-214"/>
	</outline>
</glyph>
<glyph name="Theta" format="1">
	<unicode hex="0398"/>
	<advance width="600"/>
	<outline>
		<contour>
			<point x="300" y="-12" type="curve" smooth="yes"/>
			<point x="452" y="-12"/>
			<point x="557" y="118"/>
			<point x="557" y="330" type="curve" smooth="yes"/>
			<point x="557" y="541"/>
			<point x="452" y="666"/>
			<point x="300" y="666" type="curve" smooth="yes"/>
			<point x="148" y="666"/>
			<point x="43" y="541"/>
			<point x="43" y="330" type="curve" smooth="yes"/>
			<point x="43" y="118"/>
			<point x="148" y="-12"/>
		</contour>
		<contour>
			<point x="300" y="89" type="curve" smooth="yes"/>
			<point x="216" y="89"/>
			<point x="162" y="183"/>
			<point x="162" y="330" type="curve" smooth="yes"/>
			<point x="162" y="476"/>
			<point x="216" y="565"/>
			<point x="300" y="565" type="curve" smooth="yes"/>
			<point x="384" y="565"/>
			<point x="438" y="476"/>
			<point x="438" y="330" type="curve" smooth="yes"/>
			<point x="438" y="183"/>
			<point x="384" y="89"/>
		</contour>
		<contour>
			<point x="217" y="290" type="line"/>
			<point x="383" y="290" type="line"/>
			<point x="383" y="391" type="line"/>
			<point x="217" y="391" type="line"/>
		</contour>
	</outline>
</glyph>
<glyph name="Pi" format="1">
	<unicode hex="03A0"/>
	<advance width="600"/>
	<outline>
		<contour>
			<point x="72" y="0" type="line"/>
			<point x="188" y="0" type="line"/>
			<point x="188" y="556" type="line"/>
			<point x="412" y="556" type="line"/>
			<point x="412" y="0" type="line"/>
			<point x="528" y="0" type="line"/>
			<point x="528" y="654" type="line"/>
			<point x="72" y="654" type="line"/>
		</contour>
	</outline>
</glyph>
<glyph name="Sigma" format="1">
	<unicode hex="03A3"/>
	<advance width="600"/>
	<outline>
		<contour>
			<point x="69" y="0" type="line"/>
			<point x="536" y="0" type="line"/>
			<point x="536" y="98" type="line"/>
			<point x="215" y="98" type="line"/>
			<point x="399" y="334" type="line"/>
			<point x="218" y="556" type="line"/>
			<point x="508" y="556" type="line"/>
			<point x="508" y="654" type="line"/>
			<point x="73" y="654" type="line"/>
			<point x="73" y="584" type="line"/>
			<point x="283" y="331" type="line"/>
			<point x="69" y="70" type="line"/>
		</contour>
	</outline>
</glyph>
<glyph name="delta" format="1">
	<unicode hex="03B4"/>
	<advance width="600"/>
	<outline>
		<contour>
			<point x="299" y="-12" type="curve" smooth="yes"/>
			<point x="451" y="-12"/>
			<point x="541" y="82"/>
			<point x="541" y="221" type="curve" smooth="yes"/>
			<point x="541" y="333"/>
			<point x="477" y="394"/>
			<point x="377" y="456" type="curve" smooth="yes"/>
			<point x="285" y="514"/>
			<point x="220" y="550"/>
			<point x="220" y="593" type="curve" smooth="yes"/>
			<point x="220" y="614"/>
			<point x="240" y="632"/>
			<point x="286" y="632" type="curve" smooth="yes"/>
			<point x="342" y="632"/>
			<point x="412" y="617"/>
			<point x="500" y="588" type="curve"/>
			<point x="526" y="675" type="line"/>
			<point x="442" y="703"/>
			<point x="361" y="718"/>
			<point x="287" y="718" type="curve" smooth="yes"/>
			<point x="165" y="718"/>
			<point x="109" y="664"/>
			<point x="109" y="603" type="curve" smooth="yes"/>
			<point x="109" y="511"/>
			<point x="195" y="457"/>
			<point x="281" y="403" type="curve" smooth="yes"/>
			<point x="359" y="354"/>
			<point x="429" y="306"/>
			<point x="429" y="221" type="curve" smooth="yes"/>
			<point x="429" y="132"/>
			<point x="382" y="82"/>
			<point x="301" y="82" type="curve" smooth="yes"/>
			<point x="231" y="82"/>
			<point x="169" y="131"/>
			<point x="169" y="214" type="curve" smooth="yes"/>
			<point x="169" y="303"/>
			<point x="229" y="359"/>
			<point x="327" y="380" type="curve"/>
			<point x="273" y="444" type="line"/>
			<point x="161" y="411"/>
			<point x="59" y="337"/>
			<point x="59" y="212" type="curve" smooth="yes"/>
			<point x="59" y="72"/>
			<point x="172" y="-12"/>
		</contour>
	</outline>
</glyph>
<glyph name="theta" format="1">
	<unicode hex="03B8"/>
	<advance width="600"/>
	<outline>
		<contour>
			<point x="300" y="-12" type="curve" smooth="yes"/>
			<point x="444" y="-12"/>
			<point x="537" y="105"/>
			<point x="537" y="356" type="curve" smooth="yes"/>
			<point x="537" y="596"/>
			<point x="444" y="718"/>
			<point x="300" y="718" type="curve" smooth="yes"/>
			<point x="156" y="718"/>
			<point x="63" y="597"/>
			<point x="63" y="356" type="curve" smooth="yes"/>
			<point x="63" y="105"/>
			<point x="156" y="-12"/>
		</contour>
		<contour>
			<point x="300" y="82" type="curve" smooth="yes"/>
			<point x="229" y="82"/>
			<point x="176" y="144"/>
			<point x="176" y="356" type="curve" smooth="yes"/>
			<point x="176" y="561"/>
			<point x="229" y="624"/>
			<point x="300" y="624" type="curve" smooth="yes"/>
			<point x="371" y="624"/>
			<point x="424" y="561"/>
			<point x="424" y="356" type="curve" smooth="yes"/>
			<point x="424" y="144"/>
			<point x="371" y="82"/>
		</contour>
		<contour>
			<point x="126" y="317" type="line"/>
			<point x="474" y="317" type="line"/>
			<point x="474" y="396" type="line"/>
			<point x="126" y="396" type="line"/>
		</contour>
	</outline>
</glyph>
<glyph name="kappa" format="1">
	<unicode hex="03BA"/>
	<advance width="600"/>
	<outline>
		<contour>
			<point x="97" y="0" type="line"/>
			<point x="205" y="0" type="line"/>
			<point x="205" y="27" type="line" smooth="yes"/>
			<point x="205" y="96"/>
			<point x="220" y="143"/>
			<point x="245" y="175" type="curve" smooth="yes"/>
			<point x="354" y="308"/>
			<point x="445" y="372"/>
			<point x="539" y="395" type="curve"/>
			<point x="529" y="503" type="line"/>
			<point x="406" y="479"/>
			<point x="291" y="379"/>
			<point x="214" y="251" type="curve"/>
			<point x="210" y="251" type="line"/>
			<point x="210" y="373" type="line" smooth="yes"/>
			<point x="210" y="418"/>
			<point x="208" y="462"/>
			<point x="201" y="491" type="curve"/>
			<point x="87" y="491" type="line"/>
			<point x="96" y="443"/>
			<point x="97" y="387"/>
			<point x="97" y="348" type="curve" smooth="yes"/>
		</contour>
		<contour>
			<point x="451" y="-10" type="curve"/>
			<point x="581" y="0" type="line"/>
			<point x="504" y="85"/>
			<point x="410" y="211"/>
			<point x="358" y="314" type="curve"/>
			<point x="283" y="240" type="line"/>
			<point x="332" y="142"/>
			<point x="400" y="52"/>
		</contour>
	</outline>
</glyph>
<glyph name="xi" format="1">
	<unicode hex="03BE"/>
	<advance width="600"/>
	<outline>
		<contour>
			<point x="472" y="-185" type="line"/>
			<point x="515" y="-124"/>
			<point x="531" y="-68"/>
			<point x="531" y="-36" type="curve" smooth="yes"/>
			<point x="531" y="35"/>
			<point x="494" y="60"/>
			<point x="379" y="83" type="curve" smooth="yes"/>
			<point x="277" y="102"/>
			<point x="216" y="120"/>
			<point x="216" y="202" type="curve" smooth="yes"/>
			<point x="216" y="279"/>
			<point x="290" y="326"/>
			<point x="375" y="326" type="curve" smooth="yes"/>
			<point x="406" y="326"/>
			<point x="432" y="326"/>
			<point x="466" y="319" type="curve"/>
			<point x="466" y="413" type="line"/>
			<point x="434" y="406"/>
			<point x="415" y="406"/>
			<point x="381" y="406" type="curve" smooth="yes"/>
			<point x="315" y="406"/>
			<point x="260" y="453"/>
			<point x="260" y="511" type="curve" smooth="yes"/>
			<point x="260" y="576"/>
			<point x="313" y="615"/>
			<point x="383" y="615" type="curve" smooth="yes"/>
			<point x="525" y="615" type="line"/>
			<point x="525" y="706" type="line"/>
			<point x="75" y="706" type="line"/>
			<point x="75" y="615" type="line"/>
			<point x="133" y="619"/>
			<point x="161" y="621"/>
			<point x="207" y="621" type="curve"/>
			<point x="167" y="598"/>
			<point x="145" y="559"/>
			<point x="145" y="514" type="curve" smooth="yes"/>
			<point x="145" y="449"/>
			<point x="187" y="402"/>
			<point x="250" y="376" type="curve"/>
			<point x="250" y="372" type="line"/>
			<point x="169" y="346"/>
			<point x="98" y="275"/>
			<point x="98" y="185" type="curve" smooth="yes"/>
			<point x="98" y="58"/>
			<point x="192" y="16"/>
			<point x="305" y="-8" type="curve" smooth="yes"/>
			<point x="403" y="-28"/>
			<point x="429" y="-37"/>
			<point x="429" y="-66" type="curve" smooth="yes"/>
			<point x="429" y="-92"/>
			<point x="413" y="-113"/>
			<point x="381" y="-153" type="curve"/>
		</contour>
	</outline>
</glyph>
<glyph name="sigma.end" format="2">
	<unicode hex="03C2"/>
	<advance width="600"/>
	<outline>
		<contour>
			<point x="449" y="-183" type="line"/>
			<point x="492" y="-123"/>
			<point x="511" y="-62"/>
			<point x="511" y="-28" type="curve" smooth="yes"/>
			<point x="511" y="47"/>
			<point x="478" y="77"/>
			<point x="358" y="104" type="curve" smooth="yes"/>
			<point x="263" y="124"/>
			<point x="200" y="158"/>
			<point x="200" y="256" type="curve" smooth="yes"/>
			<point x="200" y="348"/>
			<point x="267" y="409"/>
			<point x="360" y="409" type="curve" smooth="yes"/>
			<point x="404" y="409"/>
			<point x="437" y="397"/>
			<point x="476" y="363" type="curve"/>
			<point x="531" y="436" type="line"/>
			<point x="490" y="476"/>
			<point x="431" y="503"/>
			<point x="352" y="503" type="curve" smooth="yes"/>
			<point x="211" y="503"/>
			<point x="81" y="413"/>
			<point x="81" y="256" type="curve" smooth="yes"/>
			<point x="81" y="93"/>
			<point x="196" y="36"/>
			<point x="309" y="10" type="curve" smooth="yes"/>
			<point x="391" y="-8"/>
			<point x="409" y="-24"/>
			<point x="409" y="-56" type="curve" smooth="yes"/>
			<point x="409" y="-83"/>
			<point x="390" y="-110"/>
			<point x="358" y="-151" type="curve"/>
		</contour>
	</outline>
</glyph>
<glyph name="beta.a" format="1">
	<unicode hex="03D0"/>
	<advance width="600"/>
	<outline>
		<contour>
			<point x="328" y="-12" type="curve" smooth="yes"/>
			<point x="451" y="-12"/>
			<point x="551" y="60"/>
			<point x="551" y="194" type="curve" smooth="yes"/>
			<point x="551" y="292"/>
			<point x="487" y="368"/>
			<point x="395" y="379" type="curve"/>
			<point x="395" y="383" type="line"/>
			<point x="458" y="415"/>
			<point x="496" y="472"/>
			<point x="496" y="541" type="curve" smooth="yes"/>
			<point x="496" y="662"/>
			<point x="397" y="717"/>
			<point x="296" y="717" type="curve" smooth="yes"/>
			<point x="150" y="717"/>
			<point x="82" y="618"/>
			<point x="82" y="484" type="curve" smooth="yes"/>
			<point x="82" y="231" type="line" smooth="yes"/>
			<point x="82" y="53"/>
			<point x="211" y="-12"/>
		</contour>
		<contour>
			<point x="324" y="88" type="curve" smooth="yes"/>
			<point x="270" y="88"/>
			<point x="190" y="122"/>
			<point x="190" y="246" type="curve" smooth="yes"/>
			<point x="190" y="314"/>
			<point x="192" y="377"/>
			<point x="194" y="468" type="curve" smooth="yes"/>
			<point x="197" y="570"/>
			<point x="229" y="627"/>
			<point x="296" y="627" type="curve" smooth="yes"/>
			<point x="342" y="627"/>
			<point x="384" y="595"/>
			<point x="384" y="531" type="curve" smooth="yes"/>
			<point x="384" y="447"/>
			<point x="334" y="398"/>
			<point x="150" y="368" type="curve"/>
			<point x="165" y="284" type="line"/>
			<point x="254" y="310"/>
			<point x="303" y="318"/>
			<point x="324" y="318" type="curve" smooth="yes"/>
			<point x="401" y="318"/>
			<point x="438" y="267"/>
			<point x="438" y="201" type="curve" smooth="yes"/>
			<point x="438" y="132"/>
			<point x="389" y="88"/>
		</contour>
	</outline>
</glyph>
<glyph name="kai" format="1">
	<unicode hex="03D7"/>
	<advance width="600"/>
	<outline>
		<contour>
			<point x="449" y="-187" type="line"/>
			<point x="484" y="-145"/>
			<point x="537" y="-70"/>
			<point x="581" y="0" type="curve"/>
			<point x="459" y="5" type="line"/>
			<point x="421" y="-54"/>
			<point x="369" y="-120"/>
			<point x="314" y="-178" type="curve"/>
		</contour>
		<component base="kappa"/>
	</outline>
</glyph>
<glyph name="stigma" format="2">
	<unicode hex="03DB"/>
	<advance width="600"/>
	<outline>
		<contour>
			<point x="449" y="-183" type="line"/>
			<point x="492" y="-123"/>
			<point x="511" y="-62"/>
			<point x="511" y="-28" type="curve" smooth="yes"/>
			<point x="511" y="47"/>
			<point x="478" y="77"/>
			<point x="358" y="104" type="curve" smooth="yes"/>
			<point x="257" y="126"/>
			<point x="201" y="162"/>
			<point x="201" y="245" type="curve" smooth="yes"/>
			<point x="201" y="350"/>
			<point x="266" y="397"/>
			<point x="364" y="397" type="curve" smooth="yes"/>
			<point x="415" y="397"/>
			<point x="475" y="397"/>
			<point x="522" y="395" type="curve"/>
			<point x="522" y="491" type="line"/>
			<point x="355" y="491" type="line" smooth="yes"/>
			<point x="202" y="491"/>
			<point x="82" y="412"/>
			<point x="82" y="245" type="curve" smooth="yes"/>
			<point x="82" y="98"/>
			<point x="194" y="37"/>
			<point x="309" y="10" type="curve" smooth="yes"/>
			<point x="398" y="-10"/>
			<point x="409" y="-29"/>
			<point x="409" y="-59" type="curve" smooth="yes"/>
			<point x="409" y="-83"/>
			<point x="392" y="-110"/>
			<point x="359" y="-151" type="curve"/>
		</contour>
	</outline>
</glyph>
<glyph name="Ze" format="1">
	<unicode hex="0417"/>
	<advance width="600"/>
	<outline>
		<contour>
			<point x="297" y="-12" type="curve" smooth="yes"/>
			<point x="438" y="-12"/>
			<point x="548" y="59"/>
			<point x="548" y="189" type="curve" smooth="yes"/>
			<point x="548" y="273"/>
			<point x="496" y="330"/>
			<point x="425" y="346" type="curve"/>
			<point x="425" y="350" type="line"/>
			<point x="484" y="374"/>
			<point x="516" y="428"/>
			<point x="516" y="494" type="curve" smooth="yes"/>
			<point x="516" y="601"/>
			<point x="431" y="666"/>
			<point x="291" y="666" type="curve" smooth="yes"/>
			<point x="209" y="666"/>
			<point x="133" y="635"/>
			<point x="79" y="584" type="curve"/>
			<point x="139" y="507" type="line"/>
			<point x="182" y="543"/>
			<point x="229" y="565"/>
			<point x="287" y="565" type="curve" smooth="yes"/>
			<point x="354" y="565"/>
			<point x="402" y="537"/>
			<point x="402" y="477" type="curve" smooth="yes"/>
			<point x="402" y="417"/>
			<point x="362" y="384"/>
			<point x="262" y="384" type="curve" smooth="yes"/>
			<point x="202" y="384" type="line"/>
			<point x="202" y="297" type="line"/>
			<point x="282" y="297" type="line" smooth="yes"/>
			<point x="382" y="297"/>
			<point x="434" y="266"/>
			<point x="434" y="197" type="curve" smooth="yes"/>
			<point x="434" y="127"/>
			<point x="375" y="89"/>
			<point x="296" y="89" type="curve" smooth="yes"/>
			<point x="227" y="89"/>
			<point x="172" y="110"/>
			<point x="117" y="163" type="curve"/>
			<point x="54" y="83" type="line"/>
			<point x="123" y="16"/>
			<point x="205" y="-12"/>
		</contour>
		<contour>
			<point name="aboveUC" x="316" y="674" type="move"/>
		</contour>
	</outline>
</glyph>
<glyph name="Sha" format="1">
	<unicode hex="0428"/>
	<advance width="600"/>
	<outline>
		<contour>
			<point x="35" y="0" type="line"/>
			<point x="565" y="0" type="line"/>
			<point x="565" y="654" type="line"/>
			<point x="461" y="654" type="line"/>
			<point x="461" y="98" type="line"/>
			<point x="349" y="98" type="line"/>
			<point x="349" y="654" type="line"/>
			<point x="251" y="654" type="line"/>
			<point x="251" y="98" type="line"/>
			<point x="139" y="98" type="line"/>
			<point x="139" y="654" type="line"/>
			<point x="35" y="654" type="line"/>
		</contour>
	</outline>
</glyph>
<glyph name="Yeru" format="1">
	<unicode hex="042B"/>
	<advance width="600"/>
	<outline>
		<contour>
			<point x="44" y="0" type="line"/>
			<point x="173" y="0" type="line" smooth="yes"/>
			<point x="297" y="0"/>
			<point x="384" y="59"/>
			<point x="384" y="208" type="curve" smooth="yes"/>
			<point x="384" y="345"/>
			<point x="298" y="401"/>
			<point x="174" y="401" type="curve" smooth="yes"/>
			<point x="148" y="401" type="line"/>
			<point x="148" y="654" type="line"/>
			<point x="44" y="654" type="line"/>
		</contour>
		<contour>
			<point x="148" y="93" type="line"/>
			<point x="148" y="308" type="line"/>
			<point x="168" y="308" type="line" smooth="yes"/>
			<point x="246" y="308"/>
			<point x="285" y="276"/>
			<point x="285" y="206" type="curve" smooth="yes"/>
			<point x="285" y="126"/>
			<point x="245" y="93"/>
			<point x="170" y="93" type="curve" smooth="yes"/>
		</contour>
		<contour>
			<point x="452" y="0" type="line"/>
			<point x="556" y="0" type="line"/>
			<point x="556" y="654" type="line"/>
			<point x="452" y="654" type="line"/>
		</contour>
		<contour>
			<point name="aboveUC" x="300" y="674" type="move"/>
		</contour>
	</outline>
</glyph>
<glyph name="Yu" format="2">
	<unicode hex="042E"/>
	<advance width="600"/>
	<outline>
		<contour>
			<point x="37" y="0" type="line"/>
			<point x="146" y="0" type="line"/>
			<point x="146" y="290" type="line"/>
			<point x="269" y="290" type="line"/>
			<point x="269" y="391" type="line"/>
			<point x="146" y="391" type="line"/>
			<point x="146" y="654" type="line"/>
			<point x="37" y="654" type="line"/>
		</contour>
		<contour>
			<point x="383" y="-12" type="curve" smooth="yes"/>
			<point x="501" y="-12"/>
			<point x="572" y="97"/>
			<point x="572" y="331" type="curve" smooth="yes"/>
			<point x="572" y="563"/>
			<point x="501" y="666"/>
			<point x="383" y="666" type="curve" smooth="yes"/>
			<point x="275" y="666"/>
			<point x="207" y="563"/>
			<point x="207" y="331" type="curve" smooth="yes"/>
			<point x="207" y="97"/>
			<point x="275" y="-12"/>
		</contour>
		<contour>
			<point x="383" y="89" type="curve" smooth="yes"/>
			<point x="337" y="89"/>
			<point x="308" y="150"/>
			<point x="308" y="331" type="curve" smooth="yes"/>
			<point x="308" y="510"/>
			<point x="337" y="565"/>
			<point x="383" y="565" type="curve" smooth="yes"/>
			<point x="431" y="565"/>
			<point x="457" y="510"/>
			<point x="457" y="331" type="curve" smooth="yes"/>
			<point x="457" y="150"/>
			<point x="431" y="89"/>
		</contour>
	</outline>
</glyph>
<glyph name="Ya" format="1">
	<unicode hex="042F"/>
	<advance width="600"/>
	<outline>
		<contour>
			<point x="400" y="0" type="line"/>
			<point x="516" y="0" type="line"/>
			<point x="516" y="654" type="line"/>
			<point x="296" y="654" type="line" smooth="yes"/>
			<point x="160" y="654"/>
			<point x="55" y="606"/>
			<point x="55" y="460" type="curve" smooth="yes"/>
			<point x="55" y="319"/>
			<point x="160" y="258"/>
			<point x="288" y="256" type="curve"/>
			<point x="400" y="256" type="line"/>
		</contour>
		<contour>
			<point x="308" y="348" type="line" smooth="yes"/>
			<point x="218" y="348"/>
			<point x="169" y="386"/>
			<point x="169" y="460" type="curve" smooth="yes"/>
			<point x="169" y="535"/>
			<point x="218" y="561"/>
			<point x="308" y="561" type="curve" smooth="yes"/>
			<point x="400" y="561" type="line"/>
			<point x="400" y="348" type="line"/>
		</contour>
		<contour>
			<point x="17" y="0" type="line"/>
			<point x="149" y="0" type="line"/>
			<point x="322" y="287" type="line"/>
			<point x="239" y="344" type="line"/>
		</contour>
		<contour>
			<point name="aboveUC" x="316" y="674" type="move"/>
		</contour>
	</outline>
</glyph>
<glyph name="be" format="1">
	<unicode hex="0431"/>
	<advance width="600"/>
	<outline>
		<contour>
			<point x="309" y="-12" type="curve" smooth="yes"/>
			<point x="440" y="-12"/>
			<point x="536" y="88"/>
			<point x="536" y="241" type="curve" smooth="yes"/>
			<point x="536" y="388"/>
			<point x="451" y="470"/>
			<point x="339" y="470" type="curve" smooth="yes"/>
			<point x="274" y="470"/>
			<point x="212" y="441"/>
			<point x="172" y="386" type="curve"/>
			<point x="177" y="308" type="line"/>
			<point x="218" y="365"/>
			<point x="265" y="383"/>
			<point x="307" y="383" type="curve" smooth="yes"/>
			<point x="377" y="383"/>
			<point x="418" y="336"/>
			<point x="418" y="241" type="curve" smooth="yes"/>
			<point x="418" y="145"/>
			<point x="379" y="82"/>
			<point x="308" y="82" type="curve" smooth="yes"/>
			<point x="224" y="82"/>
			<point x="178" y="154"/>
			<point x="178" y="277" type="curve" smooth="yes"/>
			<point x="178" y="556"/>
			<point x="224" y="568"/>
			<point x="404" y="594" type="curve" smooth="yes"/>
			<point x="449" y="600"/>
			<point x="490" y="609"/>
			<point x="517" y="628" type="curve"/>
			<point x="494" y="730" type="line"/>
			<point x="463" y="716"/>
			<point x="440" y="710"/>
			<point x="380" y="702" type="curve" smooth="yes"/>
			<point x="193" y="675"/>
			<point x="68" y="612"/>
			<point x="68" y="302" type="curve" smooth="yes"/>
			<point x="68" y="107"/>
			<point x="155" y="-12"/>
		</contour>
	</outline>
</glyph>
<glyph name="ve" format="1">
	<unicode hex="0432"/>
	<advance width="600"/>
	<outline>
		<contour>
			<point x="94" y="0" type="line"/>
			<point x="334" y="0" type="line" smooth="yes"/>
			<point x="452" y="0"/>
			<point x="543" y="42"/>
			<point x="543" y="141" type="curve" smooth="yes"/>
			<point x="543" y="209"/>
			<point x="498" y="243"/>
			<point x="439" y="257" type="curve"/>
			<point x="439" y="261" type="line"/>
			<point x="494" y="277"/>
			<point x="523" y="316"/>
			<point x="523" y="364" type="curve" smooth="yes"/>
			<point x="523" y="458"/>
			<point x="438" y="491"/>
			<point x="323" y="491" type="curve" smooth="yes"/>
			<point x="94" y="491" type="line"/>
		</contour>
		<contour>
			<point x="207" y="294" type="line"/>
			<point x="207" y="408" type="line"/>
			<point x="315" y="408" type="line" smooth="yes"/>
			<point x="384" y="408"/>
			<point x="412" y="390"/>
			<point x="412" y="352" type="curve" smooth="yes"/>
			<point x="412" y="315"/>
			<point x="384" y="294"/>
			<point x="312" y="294" type="curve" smooth="yes"/>
		</contour>
		<contour>
			<point x="207" y="83" type="line"/>
			<point x="207" y="212" type="line"/>
			<point x="322" y="212" type="line" smooth="yes"/>
			<point x="395" y="212"/>
			<point x="430" y="187"/>
			<point x="430" y="148" type="curve" smooth="yes"/>
			<point x="430" y="105"/>
			<point x="399" y="83"/>
			<point x="325" y="83" type="curve" smooth="yes"/>
		</contour>
		<contour>
			<point name="aboveLC" x="320" y="512" type="move"/>
		</contour>
	</outline>
</glyph>
<glyph name="ghe" format="1">
	<unicode hex="0433"/>
	<advance width="600"/>
	<outline>
		<contour>
			<point x="130" y="0" type="line"/>
			<point x="246" y="0" type="line"/>
			<point x="246" y="400" type="line"/>
			<point x="525" y="400" type="line"/>
			<point x="525" y="491" type="line"/>
			<point x="130" y="491" type="line"/>
		</contour>
		<contour>
			<point name="aboveLC" x="342" y="512" type="move"/>
		</contour>
	</outline>
</glyph>
<glyph name="en" format="2">
	<unicode hex="043D"/>
	<advance width="600"/>
	<outline>
		<contour>
			<point x="82" y="0" type="line"/>
			<point x="198" y="0" type="line"/>
			<point x="198" y="202" type="line"/>
			<point x="402" y="202" type="line"/>
			<point x="402" y="0" type="line"/>
			<point x="518" y="0" type="line"/>
			<point x="518" y="491" type="line"/>
			<point x="402" y="491" type="line"/>
			<point x="402" y="303" type="line"/>
			<point x="198" y="303" type="line"/>
			<point x="198" y="491" type="line"/>
			<point x="82" y="491" type="line"/>
		</contour>
	</outline>
	<anchor name="aboveLC" x="300" y="512"/>
</glyph>
<glyph name="pe" format="2">
	<unicode hex="043F"/>
	<advance width="600"/>
	<outline>
		<contour>
			<point x="82" y="0" type="line"/>
			<point x="198" y="0" type="line"/>
			<point x="198" y="400" type="line"/>
			<point x="402" y="400" type="line"/>
			<point x="402" y="0" type="line"/>
			<point x="518" y="0" type="line"/>
			<point x="518" y="491" type="line"/>
			<point x="82" y="491" type="line"/>
		</contour>
	</outline>
	<anchor name="aboveLC" x="300" y="512"/>
</glyph>
<glyph name="ef" format="1">
	<unicode hex="0444"/>
	<advance width="600"/>
	<outline>
		<contour>
			<point x="249" y="-194" type="line"/>
			<point x="351" y="-194" type="line"/>
			<point x="351" y="-54" type="line"/>
			<point x="348" y="20" type="line"/>
			<point x="371" y="2"/>
			<point x="397" y="-12"/>
			<point x="423" y="-12" type="curve" smooth="yes"/>
			<point x="502" y="-12"/>
			<point x="573" y="85"/>
			<point x="573" y="253" type="curve" smooth="yes"/>
			<point x="573" y="405"/>
			<point x="520" y="503"/>
			<point x="434" y="503" type="curve" smooth="yes"/>
			<point x="403" y="503"/>
			<point x="372" y="488"/>
			<point x="348" y="468" type="curve"/>
			<point x="351" y="545" type="line"/>
			<point x="351" y="706" type="line"/>
			<point x="249" y="706" type="line"/>
			<point x="249" y="545" type="line"/>
			<point x="252" y="472" type="line"/>
			<point x="231" y="489"/>
			<point x="208" y="503"/>
			<point x="175" y="503" type="curve" smooth="yes"/>
			<point x="99" y="503"/>
			<point x="27" y="405"/>
			<point x="27" y="245" type="curve" smooth="yes"/>
			<point x="27" y="83"/>
			<point x="85" y="-12"/>
			<point x="175" y="-12" type="curve" smooth="yes"/>
			<point x="205" y="-12"/>
			<point x="230" y="5"/>
			<point x="252" y="21" type="curve"/>
			<point x="249" y="-54" type="line"/>
		</contour>
		<contour>
			<point x="205" y="83" type="curve" smooth="yes"/>
			<point x="157" y="83"/>
			<point x="132" y="140"/>
			<point x="132" y="246" type="curve" smooth="yes"/>
			<point x="132" y="349"/>
			<point x="161" y="408"/>
			<point x="201" y="408" type="curve" smooth="yes"/>
			<point x="220" y="408"/>
			<point x="237" y="399"/>
			<point x="252" y="382" type="curve"/>
			<point x="252" y="111" type="line"/>
			<point x="237" y="92"/>
			<point x="223" y="83"/>
		</contour>
		<contour>
			<point x="396" y="83" type="curve" smooth="yes"/>
			<point x="383" y="83"/>
			<point x="364" y="91"/>
			<point x="348" y="109" type="curve"/>
			<point x="348" y="381" type="line"/>
			<point x="365" y="399"/>
			<point x="382" y="408"/>
			<point x="400" y="408" type="curve" smooth="yes"/>
			<point x="450" y="408"/>
			<point x="468" y="350"/>
			<point x="468" y="252" type="curve" smooth="yes"/>
			<point x="468" y="141"/>
			<point x="441" y="83"/>
		</contour>
	</outline>
</glyph>
<glyph name="yu" format="1">
	<unicode hex="044E"/>
	<advance width="600"/>
	<outline>
		<contour>
			<point x="37" y="0" type="line"/>
			<point x="149" y="0" type="line"/>
			<point x="149" y="200" type="line"/>
			<point x="232" y="200" type="line"/>
			<point x="235" y="301" type="line"/>
			<point x="149" y="301" type="line"/>
			<point x="149" y="491" type="line"/>
			<point x="37" y="491" type="line"/>
		</contour>
		<contour>
			<point x="390" y="-12" type="curve" smooth="yes"/>
			<point x="499" y="-12"/>
			<point x="572" y="72"/>
			<point x="572" y="245" type="curve" smooth="yes"/>
			<point x="572" y="419"/>
			<point x="499" y="503"/>
			<point x="390" y="503" type="curve" smooth="yes"/>
			<point x="288" y="503"/>
			<point x="213" y="416"/>
			<point x="213" y="245" type="curve" smooth="yes"/>
			<point x="213" y="75"/>
			<point x="288" y="-12"/>
		</contour>
		<contour>
			<point x="384" y="82" type="curve" smooth="yes"/>
			<point x="338" y="82"/>
			<point x="307" y="128"/>
			<point x="307" y="245" type="curve" smooth="yes"/>
			<point x="307" y="362"/>
			<point x="338" y="409"/>
			<point x="384" y="409" type="curve" smooth="yes"/>
			<point x="429" y="409"/>
			<point x="459" y="362"/>
			<point x="459" y="245" type="curve" smooth="yes"/>
			<point x="459" y="128"/>
			<point x="429" y="82"/>
		</contour>
		<contour>
			<point name="aboveLC" x="292" y="512" type="move"/>
		</contour>
	</outline>
</glyph>
<glyph name="dje" format="1">
	<unicode hex="0452"/>
	<advance width="600"/>
	<outline>
		<contour>
			<point x="325" y="-206" type="curve" smooth="yes"/>
			<point x="460" y="-206"/>
			<point x="544" y="-118"/>
			<point x="544" y="176" type="curve" smooth="yes"/>
			<point x="544" y="373"/>
			<point x="477" y="483"/>
			<point x="352" y="483" type="curve" smooth="yes"/>
			<point x="285" y="483"/>
			<point x="235" y="445"/>
			<point x="194" y="400" type="curve"/>
			<point x="191" y="400" type="line"/>
			<point x="197" y="504" type="line"/>
			<point x="197" y="706" type="line"/>
			<point x="82" y="706" type="line"/>
			<point x="82" y="0" type="line"/>
			<point x="197" y="0" type="line"/>
			<point x="197" y="315" type="line"/>
			<point x="241" y="361"/>
			<point x="272" y="385"/>
			<point x="312" y="385" type="curve" smooth="yes"/>
			<point x="387" y="385"/>
			<point x="425" y="327"/>
			<point x="425" y="162" type="curve" smooth="yes"/>
			<point x="425" y="-58"/>
			<point x="377" y="-115"/>
			<point x="315" y="-115" type="curve" smooth="yes"/>
			<point x="302" y="-115"/>
			<point x="289" y="-111"/>
			<point x="277" y="-107" type="curve"/>
			<point x="256" y="-193" type="line"/>
			<point x="272" y="-200"/>
			<point x="295" y="-206"/>
		</contour>
		<contour>
			<point x="13" y="559" type="line"/>
			<point x="395" y="559" type="line"/>
			<point x="395" y="627" type="line"/>
			<point x="89" y="627" type="line"/>
			<point x="13" y="622" type="line"/>
		</contour>
	</outline>
</glyph>
<glyph name="ieukran" format="1">
	<unicode hex="0454"/>
	<advance width="600"/>
	<outline>
		<contour>
			<point x="347" y="-12" type="curve" smooth="yes"/>
			<point x="415" y="-12"/>
			<point x="487" y="8"/>
			<point x="542" y="56" type="curve"/>
			<point x="499" y="127" type="line"/>
			<point x="463" y="99"/>
			<point x="414" y="77"/>
			<point x="359" y="77" type="curve" smooth="yes"/>
			<point x="251" y="77"/>
			<point x="182" y="131"/>
			<point x="182" y="245" type="curve" smooth="yes"/>
			<point x="182" y="359"/>
			<point x="252" y="414"/>
			<point x="355" y="414" type="curve" smooth="yes"/>
			<point x="406" y="414"/>
			<point x="447" y="399"/>
			<point x="483" y="369" type="curve"/>
			<point x="535" y="440" type="line"/>
			<point x="492" y="478"/>
			<point x="433" y="503"/>
			<point x="355" y="503" type="curve" smooth="yes"/>
			<point x="203" y="503"/>
			<point x="73" y="418"/>
			<point x="73" y="245" type="curve" smooth="yes"/>
			<point x="73" y="73"/>
			<point x="190" y="-12"/>
		</contour>
		<contour>
			<point x="141" y="212" type="line"/>
			<point x="419" y="212" type="line"/>
			<point x="419" y="294" type="line"/>
			<point x="141" y="294" type="line"/>
		</contour>
	</outline>
</glyph>
<glyph name="lje" format="1">
	<unicode hex="0459"/>
	<advance width="600"/>
	<outline>
		<contour>
			<point x="41" y="-12" type="curve" smooth="yes"/>
			<point x="110" y="-12"/>
			<point x="156" y="38"/>
			<point x="171" y="135" type="curve" smooth="yes"/>
			<point x="184" y="224"/>
			<point x="190" y="314"/>
			<point x="195" y="400" type="curve"/>
			<point x="268" y="400" type="line"/>
			<point x="268" y="0" type="line"/>
			<point x="370" y="0" type="line"/>
			<point x="370" y="491" type="line"/>
			<point x="105" y="491" type="line"/>
			<point x="100" y="383"/>
			<point x="93" y="285"/>
			<point x="79" y="187" type="curve" smooth="yes"/>
			<point x="69" y="120"/>
			<point x="50" y="98"/>
			<point x="29" y="98" type="curve" smooth="yes"/>
			<point x="21" y="98"/>
			<point x="15" y="100"/>
			<point x="9" y="102" type="curve"/>
			<point x="-10" y="-3" type="line"/>
			<point x="6" y="-9"/>
			<point x="21" y="-12"/>
		</contour>
		<contour>
			<point x="268" y="0" type="line"/>
			<point x="383" y="0" type="line" smooth="yes"/>
			<point x="490" y="0"/>
			<point x="566" y="45"/>
			<point x="566" y="163" type="curve" smooth="yes"/>
			<point x="566" y="278"/>
			<point x="490" y="323"/>
			<point x="383" y="323" type="curve" smooth="yes"/>
			<point x="370" y="323" type="line"/>
			<point x="370" y="491" type="line"/>
			<point x="268" y="491" type="line"/>
		</contour>
		<contour>
			<point x="370" y="89" type="line"/>
			<point x="370" y="236" type="line"/>
			<point x="376" y="236" type="line" smooth="yes"/>
			<point x="441" y="236"/>
			<point x="470" y="213"/>
			<point x="470" y="163" type="curve" smooth="yes"/>
			<point x="470" y="113"/>
			<point x="441" y="89"/>
			<point x="376" y="89" type="curve" smooth="yes"/>
		</contour>
	</outline>
</glyph>
<glyph name="dzhe" format="1">
	<unicode hex="045F"/>
	<advance width="600"/>
	<outline>
		<contour>
			<point x="88" y="0" type="line"/>
			<point x="512" y="0" type="line"/>
			<point x="512" y="491" type="line"/>
			<point x="396" y="491" type="line"/>
			<point x="396" y="92" type="line"/>
			<point x="204" y="92" type="line"/>
			<point x="204" y="491" type="line"/>
			<point x="88" y="491" type="line"/>
		</contour>
		<contour>
			<point x="248" y="-172" type="line"/>
			<point x="347" y="-172" type="line"/>
			<point x="360" y="10" type="line"/>
			<point x="244" y="10" type="line"/>
		</contour>
	</outline>
</glyph>
<glyph name="Yat" format="1">
	<unicode hex="0462"/>
	<advance width="600"/>
	<outline>
		<contour>
			<point x="146" y="0" type="line"/>
			<point x="318" y="0" type="line" smooth="yes"/>
			<point x="462" y="0"/>
			<point x="562" y="55"/>
			<point x="562" y="204" type="curve" smooth="yes"/>
			<point x="562" y="332"/>
			<point x="455" y="380"/>
			<point x="313" y="380" type="curve" smooth="yes"/>
			<point x="262" y="380" type="line"/>
			<point x="262" y="698" type="line"/>
			<point x="146" y="698" type="line"/>
		</contour>
		<contour>
			<point x="262" y="90" type="line"/>
			<point x="262" y="296" type="line"/>
			<point x="303" y="296" type="line" smooth="yes"/>
			<point x="403" y="296"/>
			<point x="448" y="268"/>
			<point x="448" y="199" type="curve" smooth="yes"/>
			<point x="448" y="120"/>
			<point x="401" y="90"/>
			<point x="309" y="90" type="curve" smooth="yes"/>
		</contour>
		<contour>
			<point x="19" y="495" type="line"/>
			<point x="479" y="495" type="line"/>
			<point x="479" y="588" type="line"/>
			<point x="19" y="588" type="line"/>
		</contour>
	</outline>
</glyph>
<glyph name="izhitsa" format="1">
	<unicode hex="0475"/>
	<advance width="600"/>
	<outline>
		<contour>
			<point x="231" y="0" type="line"/>
			<point x="371" y="0" type="line"/>
			<point x="473" y="331" type="line" smooth="yes"/>
			<point x="487" y="374"/>
			<point x="500" y="400"/>
			<point x="526" y="400" type="curve" smooth="yes"/>
			<point x="538" y="400"/>
			<point x="546" y="396"/>
			<point x="553" y="394" type="curve"/>
			<point x="574" y="493" type="line"/>
			<point x="556" y="500"/>
			<point x="542" y="503"/>
			<point x="514" y="503" type="curve" smooth="yes"/>
			<point x="437" y="503"/>
			<point x="403" y="452"/>
			<point x="374" y="346" type="curve" smooth="yes"/>
			<point x="340" y="236" type="line" smooth="yes"/>
			<point x="327" y="187"/>
			<point x="313" y="138"/>
			<point x="301" y="88" type="curve"/>
			<point x="297" y="88" type="line"/>
			<point x="284" y="138"/>
			<point x="270" y="189"/>
			<point x="255" y="236" type="curve"/>
			<point x="170" y="491" type="line"/>
			<point x="53" y="491" type="line"/>
		</contour>
		<contour>
			<point name="aboveLC" x="310" y="512" type="move"/>
		</contour>
	</outline>
</glyph>
<glyph name="zhedescender" format="2">
	<unicode hex="0497"/>
	<advance width="600"/>
	<outline>
		<contour>
			<point x="520" y="-172" type="line"/>
			<point x="598" y="-172" type="line"/>
			<point x="609" y="17" type="line"/>
			<point x="609" y="92" type="line"/>
			<point x="504" y="92" type="line"/>
			<point x="504" y="0" type="line"/>
			<point x="520" y="0" type="line"/>
		</contour>
		<component base="zhe"/>
	</outline>
</glyph>
<glyph name="Kadescender" format="1">
	<unicode hex="049A"/>
	<advance width="600"/>
	<outline>
		<contour>
			<point x="495" y="-188" type="line"/>
			<point x="586" y="-188" type="line"/>
			<point x="597" y="26" type="line"/>
			<point x="597" y="98" type="line"/>
			<point x="473" y="98" type="line"/>
			<point x="473" y="0" type="line"/>
			<point x="495" y="0" type="line"/>
		</contour>
		<component base="Ka"/>
	</outline>
</glyph>
<glyph name="Kabashkir" format="2">
	<unicode hex="04A0"/>
	<advance width="600"/>
	<outline>
		<contour>
			<point x="189" y="0" type="line"/>
			<point x="293" y="0" type="line"/>
			<point x="293" y="291" type="line"/>
			<point x="350" y="291" type="line"/>
			<point x="492" y="0" type="line"/>
			<point x="600" y="0" type="line"/>
			<point x="411" y="389" type="line"/>
			<point x="293" y="389" type="line"/>
			<point x="293" y="654" type="line"/>
			<point x="189" y="654" type="line"/>
		</contour>
		<contour>
			<point x="22" y="556" type="line"/>
			<point x="189" y="556" type="line"/>
			<point x="293" y="654" type="line"/>
			<point x="22" y="654" type="line"/>
		</contour>
		<contour>
			<point x="427" y="338" type="line"/>
			<point x="489" y="486" type="line" smooth="yes"/>
			<point x="516" y="546"/>
			<point x="532" y="556"/>
			<point x="549" y="556" type="curve" smooth="yes"/>
			<point x="555" y="556"/>
			<point x="562" y="556"/>
			<point x="568" y="554" type="curve"/>
			<point x="587" y="658" type="line"/>
			<point x="576" y="663"/>
			<point x="562" y="666"/>
			<point x="548" y="666" type="curve" smooth="yes"/>
			<point x="489" y="666"/>
			<point x="453" y="646"/>
			<point x="413" y="546" type="curve" smooth="yes"/>
			<point x="342" y="366" type="line"/>
		</contour>
	</outline>
</glyph>
<glyph name="endescender" format="1">
	<unicode hex="04A3"/>
	<advance width="600"/>
	<outline>
		<contour>
			<point x="82" y="0" type="line"/>
			<point x="198" y="0" type="line"/>
			<point x="198" y="202" type="line"/>
			<point x="387" y="202" type="line"/>
			<point x="387" y="0" type="line"/>
			<point x="502" y="0" type="line"/>
			<point x="502" y="491" type="line"/>
			<point x="387" y="491" type="line"/>
			<point x="387" y="303" type="line"/>
			<point x="198" y="303" type="line"/>
			<point x="198" y="491" type="line"/>
			<point x="82" y="491" type="line"/>
		</contour>
		<contour>
			<point x="466" y="-172" type="line"/>
			<point x="566" y="-172" type="line"/>
			<point x="577" y="17" type="line"/>
			<point x="577" y="92" type="line"/>
			<point x="432" y="92" type="line"/>
			<point x="432" y="0" type="line"/>
			<point x="466" y="0" type="line"/>
		</contour>
	</outline>
</glyph>
<glyph name="Esdescender" format="2">
	<unicode hex="04AA"/>
	<advance width="600"/>
	<outline>
		<contour>
			<point x="301" y="-188" type="line"/>
			<point x="403" y="-188" type="line"/>
			<point x="414" y="19" type="line"/>
			<point x="301" y="0" type="line"/>
		</contour>
		<component base="Es"/>
	</outline>
</glyph>
<glyph name="Ustraightstroke" format="2">
	<unicode hex="04B0"/>
	<advance width="600"/>
	<outline>
		<contour>
			<point x="94" y="214" type="line"/>
			<point x="506" y="214" type="line"/>
			<point x="506" y="283" type="line"/>
			<point x="185" y="283" type="line"/>
			<point x="94" y="278" type="line"/>
		</contour>
		<component base="Ustraight"/>
	</outline>
</glyph>
<glyph name="chedescender" format="2">
	<unicode hex="04B7"/>
	<advance width="600"/>
	<outline>
		<contour>
			<point x="381" y="0" type="line"/>
			<point x="496" y="0" type="line"/>
			<point x="496" y="491" type="line"/>
			<point x="381" y="491" type="line"/>
			<point x="381" y="273" type="line"/>
			<point x="355" y="267"/>
			<point x="334" y="264"/>
			<point x="306" y="264" type="curve" smooth="yes"/>
			<point x="225" y="264"/>
			<point x="191" y="293"/>
			<point x="191" y="357" type="curve" smooth="yes"/>
			<point x="191" y="491" type="line"/>
			<point x="76" y="491" type="line"/>
			<point x="76" y="357" type="line" smooth="yes"/>
			<point x="76" y="224"/>
			<point x="156" y="172"/>
			<point x="282" y="172" type="curve" smooth="yes"/>
			<point x="328" y="172"/>
			<point x="347" y="176"/>
			<point x="381" y="183" type="curve"/>
		</contour>
		<contour>
			<point x="462" y="-172" type="line"/>
			<point x="560" y="-172" type="line"/>
			<point x="571" y="17" type="line"/>
			<point x="571" y="92" type="line"/>
			<point x="426" y="92" type="line"/>
			<point x="426" y="0" type="line"/>
			<point x="462" y="0" type="line"/>
		</contour>
	</outline>
</glyph>
<glyph name="a.sups" format="2">
	<unicode hex="1D43"/>
	<advance width="600"/>
	<outline>
		<contour>
			<point x="262" y="377" type="curve" smooth="yes"/>
			<point x="305" y="377"/>
			<point x="345" y="396"/>
			<point x="377" y="422" type="curve"/>
			<point x="379" y="422" type="line"/>
			<point x="385" y="385" type="line"/>
			<point x="453" y="385" type="line"/>
			<point x="453" y="576" type="line" smooth="yes"/>
			<point x="453" y="669"/>
			<point x="404" y="718"/>
			<point x="316" y="718" type="curve" smooth="yes"/>
			<point x="261" y="718"/>
			<point x="206" y="699"/>
			<point x="166" y="676" type="curve"/>
			<point x="197" y="620" type="line"/>
			<point x="230" y="639"/>
			<point x="266" y="651"/>
			<point x="300" y="651" type="curve" smooth="yes"/>
			<point x="348" y="651"/>
			<point x="367" y="627"/>
			<point x="370" y="592" type="curve"/>
			<point x="220" y="582"/>
			<point x="154" y="542"/>
			<point x="154" y="473" type="curve" smooth="yes"/>
			<point x="154" y="417"/>
			<point x="198" y="377"/>
		</contour>
		<contour>
			<point x="285" y="440" type="curve" smooth="yes"/>
			<point x="257" y="440"/>
			<point x="235" y="452"/>
			<point x="235" y="481" type="curve" smooth="yes"/>
			<point x="235" y="513"/>
			<point x="271" y="535"/>
			<point x="370" y="543" type="curve"/>
			<point x="370" y="474" type="line"/>
			<point x="343" y="454"/>
			<point x="317" y="440"/>
		</contour>
	</outline>
</glyph>
<glyph name="m.sups" format="2">
	<unicode hex="1D50"/>
	<advance width="600"/>
	<outline>
		<contour>
			<point x="59" y="385" type="line"/>
			<point x="142" y="385" type="line"/>
			<point x="142" y="610" type="line"/>
			<point x="168" y="636"/>
			<point x="188" y="648"/>
			<point x="207" y="648" type="curve" smooth="yes"/>
			<point x="246" y="648"/>
			<point x="257" y="622"/>
			<point x="257" y="577" type="curve" smooth="yes"/>
			<point x="257" y="385" type="line"/>
			<point x="340" y="385" type="line"/>
			<point x="340" y="610" type="line"/>
			<point x="366" y="636"/>
			<point x="385" y="648"/>
			<point x="404" y="648" type="curve" smooth="yes"/>
			<point x="443" y="648"/>
			<point x="454" y="622"/>
			<point x="454" y="577" type="curve" smooth="yes"/>
			<point x="454" y="385" type="line"/>
			<point x="538" y="385" type="line"/>
			<point x="538" y="588" type="line" smooth="yes"/>
			<point x="538" y="666"/>
			<point x="507" y="718"/>
			<point x="434" y="718" type="curve" smooth="yes"/>
			<point x="390" y="718"/>
			<point x="357" y="691"/>
			<point x="328" y="660" type="curve"/>
			<point x="312" y="698"/>
			<point x="281" y="718"/>
			<point x="237" y="718" type="curve" smooth="yes"/>
			<point x="192" y="718"/>
			<point x="163" y="694"/>
			<point x="136" y="666" type="curve"/>
			<point x="133" y="666" type="line"/>
			<point x="126" y="710" type="line"/>
			<point x="59" y="710" type="line"/>
		</contour>
	</outline>
</glyph>
<glyph name="iotaadscript" format="1">
	<unicode hex="1FBE"/>
	<advance width="600"/>
	<outline>
		<contour>
			<point x="352" y="-12" type="curve" smooth="yes"/>
			<point x="387" y="-12"/>
			<point x="408" y="-6"/>
			<point x="426" y="2" type="curve"/>
			<point x="411" y="88" type="line"/>
			<point x="400" y="84"/>
			<point x="389" y="82"/>
			<point x="381" y="82" type="curve" smooth="yes"/>
			<point x="356" y="82"/>
			<point x="341" y="93"/>
			<point x="341" y="123" type="curve" smooth="yes"/>
			<point x="341" y="203"/>
			<point x="344" y="312"/>
			<point x="349" y="411" type="curve"/>
			<point x="232" y="411" type="line"/>
			<point x="232" y="129" type="line" smooth="yes"/>
			<point x="232" y="42"/>
			<point x="263" y="-12"/>
		</contour>
	</outline>
</glyph>
<glyph name="quoteright" format="1">
	<unicode hex="2019"/>
	<advance width="600"/>
	<outline>
		<contour>
			<point x="243" y="319" type="line"/>
			<point x="346" y="369"/>
			<point x="402" y="453"/>
			<point x="402" y="557" type="curve" smooth="yes"/>
			<point x="402" y="645"/>
			<point x="362" y="698"/>
			<point x="298" y="698" type="curve" smooth="yes"/>
			<point x="249" y="698"/>
			<point x="213" y="662"/>
			<point x="213" y="608" type="curve" smooth="yes"/>
			<point x="213" y="560"/>
			<point x="247" y="527"/>
			<point x="294" y="527" type="curve" smooth="yes"/>
			<point x="318" y="527"/>
			<point x="344" y="540"/>
			<point x="362" y="557" type="curve"/>
			<point x="305" y="632" type="line"/>
			<point x="318" y="545" type="line"/>
			<point x="318" y="472"/>
			<point x="280" y="418"/>
			<point x="210" y="382" type="curve"/>
		</contour>
	</outline>
</glyph>
<glyph name="ellipsis" format="1">
	<unicode hex="2026"/>
	<advance width="600"/>
	<outline>
		<contour>
			<point x="96" y="-12" type="curve" smooth="yes"/>
			<point x="143" y="-12"/>
			<point x="177" y="24"/>
			<point x="177" y="74" type="curve" smooth="yes"/>
			<point x="177" y="123"/>
			<point x="143" y="160"/>
			<point x="96" y="160" type="curve" smooth="yes"/>
			<point x="49" y="160"/>
			<point x="15" y="123"/>
			<point x="15" y="74" type="curve" smooth="yes"/>
			<point x="15" y="24"/>
			<point x="49" y="-12"/>
		</contour>
		<contour>
			<point x="300" y="-12" type="curve" smooth="yes"/>
			<point x="347" y="-12"/>
			<point x="381" y="24"/>
			<point x="381" y="74" type="curve" smooth="yes"/>
			<point x="381" y="123"/>
			<point x="347" y="160"/>
			<point x="300" y="160" type="curve" smooth="yes"/>
			<point x="253" y="160"/>
			<point x="219" y="123"/>
			<point x="219" y="74" type="curve" smooth="yes"/>
			<point x="219" y="24"/>
			<point x="253" y="-12"/>
		</contour>
		<contour>
			<point x="504" y="-12" type="curve" smooth="yes"/>
			<point x="551" y="-12"/>
			<point x="585" y="24"/>
			<point x="585" y="74" type="curve" smooth="yes"/>
			<point x="585" y="123"/>
			<point x="551" y="160"/>
			<point x="504" y="160" type="curve" smooth="yes"/>
			<point x="457" y="160"/>
			<point x="423" y="123"/>
			<point x="423" y="74" type="curve" smooth="yes"/>
			<point x="423" y="24"/>
			<point x="457" y="-12"/>
		</contour>
	</outline>
</glyph>
<glyph name="prime" format="1">
	<unicode hex="2032"/>
	<advance width="600"/>
	<outline>
		<contour>
			<point x="243" y="394" type="line"/>
			<point x="318" y="394" type="line"/>
			<point x="359" y="565" type="line"/>
			<point x="379" y="688" type="line"/>
			<point x="265" y="688" type="line"/>
		</contour>
	</outline>
</glyph>
<glyph name="guilsinglleft" format="2">
	<unicode hex="2039"/>
	<advance width="600"/>
	<outline>
		<contour>
			<point x="348" y="38" type="line"/>
			<point x="399" y="83" type="line"/>
			<point x="272" y="252" type="line"/>
			<point x="399" y="420" type="line"/>
			<point x="348" y="466" type="line"/>
			<point x="186" y="309" type="line"/>
			<point x="186" y="195" type="line"/>
		</contour>
	</outline>
</glyph>
<glyph name="guilsinglright" format="1">
	<unicode hex="203A"/>
	<advance width="600"/>
	<outline>
		<contour>
			<point x="252" y="38" type="line"/>
			<point x="414" y="195" type="line"/>
			<point x="414" y="309" type="line"/>
			<point x="252" y="466" type="line"/>
			<point x="201" y="420" type="line"/>
			<point x="328" y="252" type="line"/>
			<point x="201" y="83" type="line"/>
		</contour>
	</outline>
</glyph>
<glyph name="five.subs" format="2">
	<unicode hex="2085"/>
	<advance width="600"/>
	<outline>
		<contour>
			<point x="299" y="-194" type="curve" smooth="yes"/>
			<point x="389" y="-194"/>
			<point x="454" y="-138"/>
			<point x="454" y="-59" type="curve" smooth="yes"/>
			<point x="454" y="23"/>
			<point x="392" y="70"/>
			<point x="317" y="70" type="curve" smooth="yes"/>
			<point x="298" y="70"/>
			<point x="274" y="67"/>
			<point x="253" y="60" type="curve"/>
			<point x="261" y="134" type="line"/>
			<point x="437" y="134" type="line"/>
			<point x="437" y="208" type="line"/>
			<point x="192" y="208" type="line"/>
			<point x="174" y="17" type="line"/>
			<point x="213" y="-10" type="line"/>
			<point x="234" y="7"/>
			<point x="254" y="17"/>
			<point x="283" y="17" type="curve" smooth="yes"/>
			<point x="331" y="17"/>
			<point x="369" y="-10"/>
			<point x="369" y="-55" type="curve" smooth="yes"/>
			<point x="369" y="-96"/>
			<point x="336" y="-127"/>
			<point x="291" y="-127" type="curve" smooth="yes"/>
			<point x="247" y="-127"/>
			<point x="215" y="-110"/>
			<point x="189" y="-74" type="curve"/>
			<point x="135" y="-116" type="line"/>
			<point x="169" y="-165"/>
			<point x="225" y="-194"/>
		</contour>
	</outline>
</glyph>
<glyph name="nine.subs" format="2">
	<unicode hex="2089"/>
	<advance width="600"/>
	<outline>
		<contour>
			<point x="268" y="-194" type="curve" smooth="yes"/>
			<point x="380" y="-194"/>
			<point x="454" y="-116"/>
			<point x="454" y="19" type="curve" smooth="yes"/>
			<point x="454" y="142"/>
			<point x="391" y="220"/>
			<point x="285" y="220" type="curve" smooth="yes"/>
			<point x="203" y="220"/>
			<point x="141" y="162"/>
			<point x="141" y="85" type="curve" smooth="yes"/>
			<point x="141" y="10"/>
			<point x="190" y="-39"/>
			<point x="273" y="-39" type="curve" smooth="yes"/>
			<point x="315" y="-39"/>
			<point x="355" y="-24"/>
			<point x="382" y="7" type="curve"/>
			<point x="379" y="62" type="line"/>
			<point x="351" y="30"/>
			<point x="322" y="21"/>
			<point x="292" y="21" type="curve" smooth="yes"/>
			<point x="245" y="21"/>
			<point x="219" y="47"/>
			<point x="219" y="87" type="curve" smooth="yes"/>
			<point x="219" y="129"/>
			<point x="250" y="153"/>
			<point x="288" y="153" type="curve" smooth="yes"/>
			<point x="337" y="153"/>
			<point x="375" y="115"/>
			<point x="375" y="30" type="curve" smooth="yes"/>
			<point x="375" y="-72"/>
			<point x="335" y="-127"/>
			<point x="264" y="-127" type="curve" smooth="yes"/>
			<point x="232" y="-127"/>
			<point x="208" y="-117"/>
			<point x="187" y="-102" type="curve"/>
			<point x="152" y="-158" type="line"/>
			<point x="177" y="-177"/>
			<point x="213" y="-194"/>
		</contour>
	</outline>
</glyph>
<glyph name="naira" format="1">
	<unicode hex="20A6"/>
	<advance width="600"/>
	<outline>
		<contour>
			<point x="109" y="0" type="line"/>
			<point x="195" y="0" type="line"/>
			<point x="195" y="263" type="line"/>
			<point x="173" y="544" type="line"/>
			<point x="177" y="544" type="line"/>
			<point x="245" y="359" type="line"/>
			<point x="381" y="0" type="line"/>
			<point x="491" y="0" type="line"/>
			<point x="491" y="637" type="line"/>
			<point x="405" y="637" type="line"/>
			<point x="405" y="373" type="line"/>
			<point x="427" y="92" type="line"/>
			<point x="423" y="92" type="line"/>
			<point x="355" y="279" type="line"/>
			<point x="219" y="637" type="line"/>
			<point x="109" y="637" type="line"/>
		</contour>
		<contour>
			<point x="36" y="348" type="line"/>
			<point x="562" y="348" type="line"/>
			<point x="562" y="401" type="line"/>
			<point x="109" y="401" type="line"/>
			<point x="36" y="396" type="line"/>
		</contour>
		<contour>
			<point x="36" y="235" type="line"/>
			<point x="562" y="235" type="line"/>
			<point x="562" y="288" type="line"/>
			<point x="109" y="288" type="line"/>
			<point x="36" y="283" type="line"/>
		</contour>
	</outline>
</glyph>
<glyph name="Euro" format="1">
	<unicode hex="20AC"/>
	<advance width="600"/>
	<outline>
		<contour>
			<point x="378" y="-12" type="curve" smooth="yes"/>
			<point x="459" y="-12"/>
			<point x="522" y="22"/>
			<point x="575" y="81" type="curve"/>
			<point x="510" y="141" type="line"/>
			<point x="474" y="100"/>
			<point x="436" y="78"/>
			<point x="384" y="78" type="curve" smooth="yes"/>
			<point x="283" y="78"/>
			<point x="224" y="169"/>
			<point x="224" y="320" type="curve" smooth="yes"/>
			<point x="224" y="468"/>
			<point x="281" y="558"/>
			<point x="386" y="558" type="curve" smooth="yes"/>
			<point x="433" y="558"/>
			<point x="468" y="537"/>
			<point x="501" y="507" type="curve"/>
			<point x="566" y="570" type="line"/>
			<point x="522" y="618"/>
			<point x="458" y="648"/>
			<point x="390" y="648" type="curve" smooth="yes"/>
			<point x="222" y="648"/>
			<point x="107" y="524"/>
			<point x="107" y="316" type="curve" smooth="yes"/>
			<point x="107" y="106"/>
			<point x="220" y="-12"/>
		</contour>
		<contour>
			<point x="51" y="347" type="line"/>
			<point x="505" y="347" type="line"/>
			<point x="505" y="409" type="line"/>
			<point x="123" y="409" type="line"/>
			<point x="51" y="404" type="line"/>
		</contour>
		<contour>
			<point x="51" y="227" type="line"/>
			<point x="465" y="227" type="line"/>
			<point x="465" y="289" type="line"/>
			<point x="122" y="289" type="line"/>
			<point x="51" y="284" type="line"/>
		</contour>
	</outline>
</glyph>
<glyph name="tugrik" format="1">
	<unicode hex="20AE"/>
	<advance width="600"/>
	<outline>
		<contour>
			<point x="116" y="234" type="line"/>
			<point x="249" y="297" type="line"/>
			<point x="351" y="340" type="line"/>
			<point x="512" y="418" type="line"/>
			<point x="484" y="470" type="line"/>
			<point x="351" y="408" type="line"/>
			<point x="249" y="364" type="line"/>
			<point x="88" y="288" type="line"/>
		</contour>
		<contour>
			<point x="116" y="104" type="line"/>
			<point x="249" y="167" type="line"/>
			<point x="351" y="210" type="line"/>
			<point x="512" y="288" type="line"/>
			<point x="484" y="340" type="line"/>
			<point x="351" y="277" type="line"/>
			<point x="249" y="234" type="line"/>
			<point x="88" y="157" type="line"/>
		</contour>
		<contour>
			<point x="242" y="0" type="line"/>
			<point x="358" y="0" type="line"/>
			<point x="358" y="551" type="line"/>
			<point x="555" y="551" type="line"/>
			<point x="555" y="636" type="line"/>
			<point x="45" y="636" type="line"/>
			<point x="45" y="551" type="line"/>
			<point x="242" y="551" type="line"/>
		</contour>
	</outline>
</glyph>
<glyph name="peso" format="2">
	<unicode hex="20B1"/>
	<advance width="600"/>
	<outline>
		<contour>
			<point x="118" y="0" type="line"/>
			<point x="227" y="0" type="line"/>
			<point x="227" y="230" type="line"/>
			<point x="283" y="230" type="line" smooth="yes"/>
			<point x="412" y="230"/>
			<point x="516" y="293"/>
			<point x="516" y="433" type="curve" smooth="yes"/>
			<point x="516" y="583"/>
			<point x="415" y="637"/>
			<point x="283" y="637" type="curve" smooth="yes"/>
			<point x="118" y="637" type="line"/>
		</contour>
		<contour>
			<point x="227" y="305" type="line"/>
			<point x="227" y="562" type="line"/>
			<point x="273" y="562" type="line" smooth="yes"/>
			<point x="360" y="562"/>
			<point x="408" y="525"/>
			<point x="408" y="433" type="curve" smooth="yes"/>
			<point x="408" y="350"/>
			<point x="360" y="305"/>
			<point x="273" y="305" type="curve" smooth="yes"/>
		</contour>
		<contour>
			<point x="31" y="462" type="line"/>
			<point x="585" y="462" type="line"/>
			<point x="585" y="515" type="line"/>
			<point x="124" y="515" type="line"/>
			<point x="31" y="509" type="line"/>
		</contour>
		<contour>
			<point x="31" y="358" type="line"/>
			<point x="585" y="358" type="line"/>
			<point x="585" y="411" type="line"/>
			<point x="124" y="411" type="line"/>
			<point x="31" y="405" type="line"/>
		</contour>
	</outline>
</glyph>
<glyph name="hryvnia" format="2">
	<unicode hex="20B4"/>
	<advance width="600"/>
	<outline>
		<contour>
			<point x="325" y="-12" type="curve" smooth="yes"/>
			<point x="391" y="-12"/>
			<point x="467" y="18"/>
			<point x="519" y="70" type="curve"/>
			<point x="469" y="145" type="line"/>
			<point x="423" y="103"/>
			<point x="377" y="78"/>
			<point x="325" y="78" type="curve" smooth="yes"/>
			<point x="259" y="78"/>
			<point x="226" y="112"/>
			<point x="226" y="160" type="curve" smooth="yes"/>
			<point x="226" y="285"/>
			<point x="477" y="306"/>
			<point x="477" y="481" type="curve" smooth="yes"/>
			<point x="477" y="582"/>
			<point x="401" y="648"/>
			<point x="287" y="648" type="curve" smooth="yes"/>
			<point x="205" y="648"/>
			<point x="154" y="614"/>
			<point x="109" y="564" type="curve"/>
			<point x="166" y="500" type="line"/>
			<point x="203" y="540"/>
			<point x="235" y="558"/>
			<point x="282" y="558" type="curve" smooth="yes"/>
			<point x="334" y="558"/>
			<point x="366" y="527"/>
			<point x="366" y="483" type="curve" smooth="yes"/>
			<point x="366" y="370"/>
			<point x="115" y="354"/>
			<point x="115" y="166" type="curve" smooth="yes"/>
			<point x="115" y="56"/>
			<point x="193" y="-12"/>
		</contour>
		<contour>
			<point x="57" y="345" type="line"/>
			<point x="539" y="345" type="line"/>
			<point x="539" y="406" type="line"/>
			<point x="129" y="406" type="line"/>
			<point x="57" y="401" type="line"/>
		</contour>
		<contour>
			<point x="57" y="225" type="line"/>
			<point x="539" y="225" type="line"/>
			<point x="539" y="286" type="line"/>
			<point x="128" y="286" type="line"/>
			<point x="57" y="281" type="line"/>
		</contour>
	</outline>
</glyph>
<glyph name="cedi" format="2">
	<unicode hex="20B5"/>
	<advance width="600"/>
	<outline>
		<contour>
			<point x="358" y="-12" type="curve" smooth="yes"/>
			<point x="439" y="-12"/>
			<point x="502" y="22"/>
			<point x="555" y="81" type="curve"/>
			<point x="490" y="141" type="line"/>
			<point x="454" y="100"/>
			<point x="416" y="78"/>
			<point x="364" y="78" type="curve" smooth="yes"/>
			<point x="263" y="78"/>
			<point x="204" y="169"/>
			<point x="204" y="320" type="curve" smooth="yes"/>
			<point x="204" y="468"/>
			<point x="261" y="558"/>
			<point x="366" y="558" type="curve" smooth="yes"/>
			<point x="413" y="558"/>
			<point x="448" y="537"/>
			<point x="481" y="507" type="curve"/>
			<point x="546" y="570" type="line"/>
			<point x="502" y="618"/>
			<point x="438" y="648"/>
			<point x="370" y="648" type="curve" smooth="yes"/>
			<point x="202" y="648"/>
			<point x="87" y="524"/>
			<point x="87" y="316" type="curve" smooth="yes"/>
			<point x="87" y="106"/>
			<point x="200" y="-12"/>
		</contour>
		<contour>
			<point x="326" y="-110" type="line"/>
			<point x="394" y="-110" type="line"/>
			<point x="394" y="740" type="line"/>
			<point x="326" y="740" type="line"/>
		</contour>
	</outline>
</glyph>
<glyph name="ruble" format="1">
	<unicode hex="20BD"/>
	<advance width="600"/>
	<outline>
		<contour>
			<point x="144" y="0" type="line"/>
			<point x="253" y="0" type="line"/>
			<point x="253" y="273" type="line"/>
			<point x="330" y="273" type="line" smooth="yes"/>
			<point x="459" y="273"/>
			<point x="565" y="327"/>
			<point x="565" y="456" type="curve" smooth="yes"/>
			<point x="565" y="583"/>
			<point x="463" y="636"/>
			<point x="330" y="636" type="curve" smooth="yes"/>
			<point x="144" y="636" type="line"/>
		</contour>
		<contour>
			<point x="253" y="335" type="line"/>
			<point x="253" y="562" type="line"/>
			<point x="322" y="562" type="line" smooth="yes"/>
			<point x="408" y="562"/>
			<point x="457" y="530"/>
			<point x="457" y="450" type="curve" smooth="yes"/>
			<point x="457" y="376"/>
			<point x="408" y="335"/>
			<point x="322" y="335" type="curve" smooth="yes"/>
		</contour>
		<contour>
			<point x="31" y="273" type="line"/>
			<point x="195" y="273" type="line"/>
			<point x="195" y="335" type="line"/>
			<point x="154" y="335" type="line"/>
			<point x="31" y="330" type="line"/>
		</contour>
		<contour>
			<point x="31" y="153" type="line"/>
			<point x="498" y="153" type="line"/>
			<point x="498" y="215" type="line"/>
			<point x="154" y="215" type="line"/>
			<point x="31" y="210" type="line"/>
		</contour>
	</outline>
</glyph>
<glyph name="litre" format="2">
	<unicode hex="2113"/>
	<advance width="600"/>
	<outline>
		<contour>
			<point x="365" y="-12" type="curve" smooth="yes"/>
			<point x="429" y="-12"/>
			<point x="479" y="23"/>
			<point x="518" y="58" type="curve"/>
			<point x="475" y="128" type="line"/>
			<point x="451" y="107"/>
			<point x="422" y="84"/>
			<point x="382" y="84" type="curve" smooth="yes"/>
			<point x="337" y="84"/>
			<point x="299" y="115"/>
			<point x="299" y="200" type="curve" smooth="yes"/>
			<point x="299" y="507" type="line" smooth="yes"/>
			<point x="299" y="598"/>
			<point x="326" y="634"/>
			<point x="357" y="634" type="curve" smooth="yes"/>
			<point x="385" y="634"/>
			<point x="405" y="611"/>
			<point x="405" y="557" type="curve" smooth="yes"/>
			<point x="405" y="413"/>
			<point x="289" y="307"/>
			<point x="95" y="186" type="curve"/>
			<point x="139" y="114" type="line"/>
			<point x="379" y="262"/>
			<point x="499" y="390"/>
			<point x="499" y="558" type="curve" smooth="yes"/>
			<point x="499" y="660"/>
			<point x="441" y="720"/>
			<point x="354" y="720" type="curve" smooth="yes"/>
			<point x="258" y="720"/>
			<point x="186" y="651"/>
			<point x="186" y="490" type="curve" smooth="yes"/>
			<point x="186" y="191" type="line" smooth="yes"/>
			<point x="186" y="50"/>
			<point x="269" y="-12"/>
		</contour>
	</outline>
</glyph>
<glyph name="numero" format="1">
	<unicode hex="2116"/>
	<advance width="600"/>
	<outline>
		<contour>
			<point x="25" y="-12" type="curve" smooth="yes"/>
			<point x="81" y="-12"/>
			<point x="107" y="28"/>
			<point x="107" y="103" type="curve" smooth="yes"/>
			<point x="107" y="227" type="line" smooth="yes"/>
			<point x="107" y="307"/>
			<point x="98" y="384"/>
			<point x="85" y="507" type="curve"/>
			<point x="89" y="507" type="line"/>
			<point x="96" y="484"/>
			<point x="112" y="420"/>
			<point x="119" y="396" type="curve"/>
			<point x="138" y="319"/>
			<point x="208" y="73"/>
			<point x="227" y="0" type="curve"/>
			<point x="339" y="0" type="line"/>
			<point x="339" y="512" type="line" smooth="yes"/>
			<point x="339" y="547"/>
			<point x="348" y="556"/>
			<point x="367" y="556" type="curve"/>
			<point x="361" y="645" type="line"/>
			<point x="351" y="648"/>
			<point x="339" y="649"/>
			<point x="330" y="649" type="curve" smooth="yes"/>
			<point x="274" y="649"/>
			<point x="248" y="609"/>
			<point x="248" y="533" type="curve" smooth="yes"/>
			<point x="248" y="410" type="line" smooth="yes"/>
			<point x="248" y="330"/>
			<point x="258" y="253"/>
			<point x="269" y="129" type="curve"/>
			<point x="265" y="129" type="line"/>
			<point x="258" y="153"/>
			<point x="244" y="217"/>
			<point x="236" y="241" type="curve" smooth="yes"/>
			<point x="218" y="318"/>
			<point x="148" y="563"/>
			<point x="125" y="637" type="curve"/>
			<point x="17" y="637" type="line"/>
			<point x="17" y="124" type="line" smooth="yes"/>
			<point x="17" y="90"/>
			<point x="8" y="81"/>
			<point x="-13" y="81" type="curve"/>
			<point x="-6" y="-9" type="line"/>
			<point x="4" y="-12"/>
			<point x="17" y="-12"/>
		</contour>
		<contour>
			<point x="501" y="272" type="curve" smooth="yes"/>
			<point x="563" y="272"/>
			<point x="618" y="323"/>
			<point x="618" y="437" type="curve" smooth="yes"/>
			<point x="618" y="550"/>
			<point x="563" y="601"/>
			<point x="501" y="601" type="curve" smooth="yes"/>
			<point x="438" y="601"/>
			<point x="382" y="550"/>
			<point x="382" y="437" type="curve" smooth="yes"/>
			<point x="382" y="323"/>
			<point x="438" y="272"/>
		</contour>
		<contour>
			<point x="501" y="345" type="curve" smooth="yes"/>
			<point x="474" y="345"/>
			<point x="459" y="372"/>
			<point x="459" y="437" type="curve" smooth="yes"/>
			<point x="459" y="501"/>
			<point x="474" y="529"/>
			<point x="501" y="529" type="curve" smooth="yes"/>
			<point x="527" y="529"/>
			<point x="541" y="501"/>
			<point x="541" y="437" type="curve" smooth="yes"/>
			<point x="541" y="372"/>
			<point x="527" y="345"/>
		</contour>
		<contour>
			<point x="413" y="158" type="line"/>
			<point x="588" y="158" type="line"/>
			<point x="588" y="224" type="line"/>
			<point x="413" y="224" type="line"/>
		</contour>
	</outline>
</glyph>
<glyph name="soundcopyright" format="1">
	<unicode hex="2117"/>
	<advance width="600"/>
	<outline>
		<contour>
			<point x="300" y="-10" type="curve" smooth="yes"/>
			<point x="453" y="-10"/>
			<point x="576" y="119"/>
			<point x="576" y="324" type="curve" smooth="yes"/>
			<point x="576" y="530"/>
			<point x="453" y="654"/>
			<point x="300" y="654" type="curve" smooth="yes"/>
			<point x="147" y="654"/>
			<point x="24" y="530"/>
			<point x="24" y="324" type="curve" smooth="yes"/>
			<point x="24" y="119"/>
			<point x="147" y="-10"/>
		</contour>
		<contour>
			<point x="300" y="42" type="curve" smooth="yes"/>
			<point x="168" y="42"/>
			<point x="80" y="155"/>
			<point x="80" y="324" type="curve" smooth="yes"/>
			<point x="80" y="494"/>
			<point x="168" y="603"/>
			<point x="300" y="603" type="curve" smooth="yes"/>
			<point x="432" y="603"/>
			<point x="520" y="494"/>
			<point x="520" y="324" type="curve" smooth="yes"/>
			<point x="520" y="155"/>
			<point x="432" y="42"/>
		</contour>
		<contour>
			<point x="185" y="138" type="line"/>
			<point x="270" y="138" type="line"/>
			<point x="270" y="241" type="line"/>
			<point x="306" y="241" type="line" smooth="yes"/>
			<point x="385" y="241"/>
			<point x="451" y="285"/>
			<point x="451" y="378" type="curve" smooth="yes"/>
			<point x="451" y="467"/>
			<point x="387" y="502"/>
			<point x="306" y="502" type="curve" smooth="yes"/>
			<point x="185" y="502" type="line"/>
		</contour>
		<contour>
			<point x="270" y="304" type="line"/>
			<point x="270" y="437" type="line"/>
			<point x="298" y="437" type="line" smooth="yes"/>
			<point x="343" y="437"/>
			<point x="368" y="419"/>
			<point x="368" y="376" type="curve" smooth="yes"/>
			<point x="368" y="326"/>
			<point x="344" y="304"/>
			<point x="298" y="304" type="curve" smooth="yes"/>
		</contour>
	</outline>
</glyph>
